<svg xmlns="http://www.w3.org/2000/svg" xmlns:xlink="http://www.w3.org/1999/xlink" width="500" zoomAndPan="magnify" viewBox="0 0 375 374.999991" height="500" preserveAspectRatio="xMidYMid meet" version="1.0"><defs><clipPath id="92cee6c564"><path d="M 116 116.15625 L 245 116.15625 L 245 248 L 116 248 Z M 116 116.15625 " clip-rule="nonzero"/></clipPath><clipPath id="30a1bf0305"><path d="M 175 239 L 238 239 L 238 258.65625 L 175 258.65625 Z M 175 239 " clip-rule="nonzero"/></clipPath><clipPath id="2dc3075f5d"><path d="M 242 130 L 262.5 130 L 262.5 136 L 242 136 Z M 242 130 " clip-rule="nonzero"/></clipPath></defs><g clip-path="url(#92cee6c564)"><path fill="#d13627" d="M 176.367188 156.183594 C 175.308594 157.074219 174.335938 158.046875 173.449219 159.105469 C 172.613281 160.507812 171.863281 161.953125 171.195312 163.441406 L 171.195312 161.523438 C 168.109375 160.355469 165.109375 159.519531 162.523438 158.105469 C 161.273438 157.351562 160.6875 155.351562 159.605469 153.515625 L 163.023438 153.351562 L 163.273438 152.683594 C 161.1875 151.347656 159.1875 149.347656 156.9375 148.847656 C 154.683594 148.347656 153.015625 149.765625 151.183594 151.015625 L 152.265625 151.433594 C 151.347656 152.015625 149.765625 152.515625 149.011719 153.601562 C 144.425781 160.6875 139.757812 167.695312 135.753906 174.949219 C 130.917969 183.707031 126.664062 192.710938 122.242188 201.71875 C 121.410156 203.46875 121.160156 205.554688 120.574219 207.472656 C 119.992188 209.390625 118.910156 213.058594 117.992188 215.894531 C 117.074219 218.730469 118.074219 220.480469 119.910156 222.316406 C 121.417969 223.964844 122.835938 225.6875 124.160156 227.488281 L 123.328125 228.15625 L 120.910156 224.820312 C 120.492188 228.488281 120.492188 231.492188 121.828125 234.324219 C 123.160156 237.160156 124.078125 236.828125 126.082031 235.578125 C 126.984375 235.113281 127.929688 235.003906 128.914062 235.242188 C 130.347656 235.480469 131.683594 235.980469 132.917969 236.746094 C 138.089844 239.996094 142.507812 238.160156 146.34375 234.660156 C 150.179688 231.15625 151.597656 228.320312 154.101562 225.152344 C 154.53125 224.320312 155.167969 223.710938 156.019531 223.316406 C 155.953125 224.289062 155.757812 225.234375 155.433594 226.152344 C 154.09375 228.960938 152.328125 231.472656 150.140625 233.6875 C 147.957031 235.902344 145.464844 237.699219 142.675781 239.078125 C 142.015625 239.429688 141.320312 239.695312 140.59375 239.875 C 139.867188 240.054688 139.128906 240.148438 138.378906 240.148438 C 137.632812 240.148438 136.894531 240.054688 136.167969 239.875 C 135.441406 239.695312 134.746094 239.429688 134.085938 239.078125 C 132.25 238.078125 130.167969 237.660156 128.164062 236.996094 C 126.996094 241.082031 128.664062 244.75 132.25 245.5 C 135.835938 246.25 138.253906 246.335938 140.589844 245.25 C 145.09375 243.265625 149.1875 240.640625 152.875 237.382812 C 156.5625 234.121094 159.667969 230.378906 162.191406 226.152344 C 160.855469 228.90625 159.519531 231.65625 158.1875 234.242188 C 162.023438 233.742188 166.109375 233.160156 170.195312 232.742188 C 174.28125 232.324219 175.867188 232.15625 178.703125 232.15625 C 181.390625 232.28125 184.058594 232.585938 186.707031 233.074219 L 196.714844 226.152344 C 197.191406 225.832031 197.472656 225.390625 197.550781 224.820312 C 197.714844 220.066406 200.550781 216.3125 202.46875 212.308594 C 204.386719 208.308594 206.390625 202.886719 208.472656 198.300781 C 210.023438 194.734375 210.71875 191.007812 210.558594 187.125 C 210.558594 183.121094 212.058594 179.117188 216.394531 177.199219 L 219.230469 176.285156 C 219.148438 173.613281 217.648438 170.363281 220.898438 167.945312 C 220.816406 169.695312 220.566406 171.445312 220.566406 173.199219 C 220.648438 176.535156 221.898438 178.285156 224.066406 178.367188 C 226.238281 178.453125 229.574219 175.867188 229.574219 173.113281 C 229.429688 171.09375 229.152344 169.09375 228.738281 167.109375 C 230.988281 170.277344 231.074219 173.363281 229.65625 176.285156 C 229.296875 176.902344 229.121094 177.570312 229.121094 178.285156 C 229.121094 179 229.296875 179.667969 229.65625 180.285156 C 230.234375 181.480469 230.53125 182.742188 230.542969 184.070312 C 230.558594 185.398438 230.289062 186.667969 229.738281 187.875 L 228.488281 178.785156 C 225.652344 180.035156 223.484375 180.203125 221.234375 178.535156 C 218.980469 176.867188 215.394531 178.953125 214.0625 181.453125 C 212.726562 183.957031 212.308594 186.039062 211.476562 188.375 L 212.226562 188.625 L 212.976562 185.539062 L 212.976562 200.300781 L 212.308594 200.300781 C 212.226562 198.964844 212.144531 197.714844 211.976562 196.382812 L 211.226562 196.214844 C 209.140625 201.46875 209.308594 207.222656 207.804688 212.644531 C 207.640625 211.140625 207.554688 209.722656 207.390625 208.222656 C 204.136719 215.144531 197.214844 220.566406 199.632812 228.820312 C 198.464844 228.820312 197.132812 228.488281 196.046875 228.90625 C 194.964844 229.320312 192.960938 230.824219 191.378906 231.742188 C 189.792969 232.65625 188.125 235.328125 189.042969 237.910156 C 189.960938 240.496094 191.542969 242.5 194.628906 242.5 L 197.550781 242.5 C 192.960938 243.75 189.875 242.332031 187.875 238.828125 C 185.875 235.328125 181.621094 232.90625 177.285156 234.574219 C 175.28125 235.328125 173.78125 235.828125 171.863281 234.828125 C 169.945312 233.824219 169.863281 234.742188 168.445312 234.742188 C 170.527344 238.828125 173.613281 239.828125 177.535156 239.328125 C 174.53125 241.332031 170.78125 240.332031 168.445312 236.578125 C 167.277344 234.742188 166.191406 234.574219 164.191406 234.910156 C 158.355469 235.742188 153.683594 238.828125 149.179688 242.414062 C 145.929688 245.082031 142.507812 247.335938 138.171875 247.753906 C 130.667969 248.503906 127.246094 245.667969 126.496094 238.078125 C 121.410156 237.410156 119.574219 235.160156 119.574219 229.574219 C 119.574219 226.652344 119.910156 223.984375 117.65625 221.316406 C 116.488281 219.898438 116.238281 216.8125 116.824219 214.8125 C 119.160156 207.222656 121.992188 199.71875 124.746094 192.296875 C 125.195312 191.351562 125.695312 190.433594 126.246094 189.542969 C 128.414062 185.457031 130.417969 181.371094 132.585938 177.285156 C 134.085938 174.53125 135.753906 171.613281 137.421875 168.863281 C 139.089844 166.109375 138.671875 165.859375 136.085938 165.277344 C 135.320312 164.855469 134.847656 164.214844 134.667969 163.355469 C 134.585938 162.105469 135.335938 160.6875 135.085938 159.4375 C 134.253906 154.933594 136.921875 151.847656 139.421875 148.929688 C 140.242188 148.0625 140.867188 147.074219 141.300781 145.964844 C 141.734375 144.851562 141.941406 143.699219 141.925781 142.507812 C 141.925781 139.921875 143.007812 137.339844 143.757812 134.753906 C 144.511719 132.167969 145.011719 131.167969 145.761719 128.914062 L 133.335938 128.914062 L 133.085938 129.75 L 139.589844 133.085938 C 133.335938 132.25 129.25 127.746094 124.664062 124.160156 C 125.445312 124.613281 126.195312 125.113281 126.914062 125.664062 C 129.5 128.25 132.585938 128.414062 136.003906 127.832031 C 137.503906 127.414062 139.035156 127.25 140.589844 127.332031 C 142.261719 127.515625 143.910156 127.390625 145.535156 126.960938 C 147.160156 126.527344 148.652344 125.816406 150.015625 124.828125 C 152.683594 122.996094 156.101562 121.828125 158.855469 119.824219 C 159.488281 119.316406 160.210938 119.066406 161.023438 119.074219 C 165.527344 119.242188 169.613281 117.492188 173.949219 116.65625 C 176.449219 116.15625 179.285156 116.90625 181.953125 116.988281 C 187.207031 116.988281 191.960938 118.574219 197.046875 120.160156 C 202.136719 121.742188 207.972656 122.660156 212.558594 126.414062 L 212.808594 126.582031 C 219.316406 127.414062 222.316406 131.75 223.484375 137.753906 C 227.152344 135.585938 230.488281 133.253906 234.074219 131.667969 C 237.660156 130.082031 239.414062 130.332031 242.164062 129.832031 C 242.75 129.75 243.5 130.5 244.167969 130.832031 L 242.332031 130.832031 C 238.246094 131.5 233.992188 131.5 230.65625 134.753906 C 229.15625 136.171875 226.820312 136.671875 225.484375 138.171875 C 224.152344 139.671875 222.816406 142.675781 221.648438 144.761719 C 221.566406 144.34375 221.398438 143.175781 221.148438 142.007812 C 217.5625 142.59375 213.894531 143.09375 210.226562 143.84375 C 206.554688 144.59375 204.886719 147.179688 205.472656 151.097656 C 205.78125 152.414062 205.917969 153.75 205.886719 155.101562 C 205.386719 154.183594 204.886719 153.265625 204.46875 152.347656 C 204.054688 151.433594 203.886719 150.515625 203.636719 149.847656 L 193.878906 148.929688 C 194.007812 149.230469 194.117188 149.535156 194.214844 149.847656 L 186.457031 148.179688 L 187.542969 146.929688 C 186.957031 146.84375 186.207031 146.511719 185.875 146.761719 C 183.539062 148.097656 181.371094 149.597656 179.117188 151.097656 C 179.285156 149.265625 179.285156 149.265625 175.867188 149.679688 Z M 200.800781 127.664062 L 198.050781 123.746094 C 194.714844 119.324219 189.460938 117.40625 184.457031 118.824219 C 187.625 121.828125 190.460938 124.996094 191.292969 130.082031 C 188.042969 124.078125 185.207031 118.492188 177.867188 118.242188 C 170.527344 117.992188 165.941406 120.160156 163.941406 127.496094 L 163.355469 126.914062 L 165.609375 120.574219 C 162.441406 120.410156 159.355469 120.074219 157.351562 122.578125 L 161.355469 128.414062 L 160.773438 128.832031 C 160.375 128.1875 159.929688 127.574219 159.4375 126.996094 C 157.769531 124.664062 155.269531 123.996094 152.265625 124.996094 C 149.265625 125.996094 146.679688 129.164062 146.679688 131.417969 C 146.679688 132.335938 146.59375 133.585938 146.011719 134.085938 C 143.09375 136.839844 142.757812 140.089844 143.257812 143.507812 L 150.679688 139.089844 C 149.597656 134.753906 150.597656 132.667969 154.101562 131.835938 C 151.015625 134.921875 150.765625 135.835938 151.765625 139.589844 L 144.925781 144.84375 C 143.175781 146.59375 142.84375 151.265625 144.511719 154.351562 C 144.675781 153.105469 144.761719 151.855469 144.761719 150.597656 C 144.761719 148.679688 144.84375 146.679688 144.925781 144.761719 L 145.84375 152.097656 C 146.59375 151.683594 146.511719 151.015625 146.761719 150.929688 C 149.597656 149.097656 152.515625 147.429688 155.433594 145.84375 C 155.769531 145.59375 156.6875 145.929688 157.1875 146.261719 C 159.640625 147.976562 162.003906 149.8125 164.273438 151.765625 C 165.359375 152.765625 165.941406 154.265625 166.777344 155.519531 L 166.109375 155.933594 L 165.023438 153.765625 L 164.273438 153.765625 L 164.109375 156.269531 L 161.773438 154.851562 C 164.109375 158.519531 167.195312 159.4375 170.945312 158.019531 C 174.699219 156.601562 175.28125 154.769531 174.449219 151.347656 C 173.613281 147.929688 172.449219 146.09375 171.363281 143.34375 C 166.277344 146.679688 165.941406 146.761719 162.941406 144.59375 C 166.109375 145.09375 169.027344 144.84375 170.78125 142.007812 C 172.53125 139.171875 170.527344 135.753906 168.359375 132.667969 C 175.03125 136.671875 175.03125 136.671875 178.535156 137.003906 L 172.53125 137.003906 C 171.78125 143.257812 173.449219 147.34375 177.367188 147.511719 C 178.535156 147.566406 179.675781 147.421875 180.792969 147.078125 C 181.910156 146.734375 182.9375 146.210938 183.871094 145.511719 C 185.457031 144.175781 185.957031 141.589844 186.957031 139.589844 C 187.125 141.007812 187.375 142.59375 187.707031 144.09375 C 188.042969 145.59375 189.210938 147.011719 191.292969 147.011719 C 190.628906 141.257812 191.378906 138.339844 194.128906 136.503906 C 193.707031 137.214844 193.375 137.964844 193.128906 138.757812 C 191.378906 143.925781 191.542969 144.511719 196.214844 147.011719 C 196.296875 147.09375 196.714844 146.59375 196.964844 146.34375 C 198.214844 148.097656 202.71875 148.679688 203.96875 146.84375 C 206.554688 142.84375 210.390625 142.007812 214.644531 141.425781 C 217.3125 141.089844 219.980469 140.171875 222.566406 139.589844 C 221.316406 132.335938 217.648438 128.664062 211.058594 127.496094 C 210.640625 127.414062 210.058594 127.332031 209.890625 127.082031 C 207.222656 122.996094 203.054688 122.578125 198.714844 121.992188 C 199.46875 124.160156 200.132812 125.914062 200.800781 127.746094 Z M 141.925781 148.929688 C 135.835938 153.265625 135.253906 158.605469 139.921875 164.691406 C 144.425781 160.023438 142.675781 154.433594 141.925781 148.929688 Z M 141.925781 148.929688 " fill-opacity="1" fill-rule="nonzero"/></g><path fill="#d13627" d="M 238.078125 134.835938 C 238.222656 135.5 238.335938 136.164062 238.414062 136.839844 L 233.910156 138.507812 L 235.328125 139.339844 C 232.90625 140.925781 230.488281 142.507812 227.988281 144.011719 L 228.488281 145.09375 C 233.410156 144.261719 238.914062 146.011719 243.582031 141.007812 C 242.832031 142.34375 242.5 143.09375 242 144.09375 L 249.335938 141.425781 C 247.726562 142.8125 245.949219 143.933594 244 144.785156 C 242.054688 145.640625 240.023438 146.1875 237.910156 146.429688 C 236.160156 146.59375 234.242188 146.09375 232.574219 146.59375 C 230.90625 147.09375 228.40625 148.761719 226.320312 149.929688 L 226.320312 150.847656 L 236.078125 153.351562 C 231.90625 154.851562 228.238281 152.183594 224.902344 153.765625 L 224.902344 154.683594 L 229.488281 155.433594 L 224.152344 156.601562 L 224.152344 157.269531 L 228.988281 157.6875 L 228.988281 158.1875 L 220.898438 159.019531 L 222.148438 160.105469 C 217.648438 158.4375 213.5625 160.023438 209.472656 161.941406 L 209.140625 160.855469 L 212.644531 159.1875 C 214.496094 158.421875 216.175781 157.382812 217.6875 156.070312 C 219.199219 154.757812 220.464844 153.242188 221.484375 151.515625 C 224.652344 146.511719 227.738281 141.257812 232.824219 137.839844 C 234.523438 136.742188 236.273438 135.742188 238.078125 134.835938 Z M 238.078125 134.835938 " fill-opacity="1" fill-rule="nonzero"/><path fill="#d13627" d="M 236.578125 204.554688 C 235.242188 210.890625 234.242188 216.644531 242.082031 218.480469 C 245.25 219.230469 247.753906 218.230469 249.835938 214.894531 C 246.417969 216.8125 243.582031 216.144531 240.914062 214.3125 C 246.75 216.3125 250.671875 214.976562 253.007812 209.058594 C 254.675781 204.886719 255.425781 200.382812 256.175781 195.964844 C 256.675781 193.378906 256.507812 190.628906 257.09375 187.957031 C 257.09375 191.878906 257.257812 195.796875 257.09375 199.71875 C 256.800781 204.214844 255.519531 208.414062 253.257812 212.308594 C 250.917969 216.695312 248.832031 221.199219 247 225.820312 C 243.164062 234.742188 235.992188 239.578125 227.402344 242.664062 L 225.234375 239.914062 C 230.238281 242.914062 233.074219 238.828125 236.160156 236.660156 C 239.335938 234.183594 242.03125 231.265625 244.25 227.90625 C 245.835938 225.820312 246.417969 222.902344 247.417969 220.230469 C 235.578125 218.898438 230.90625 212.394531 236.578125 204.554688 Z M 236.578125 204.554688 " fill-opacity="1" fill-rule="nonzero"/><path fill="#d13627" d="M 194.546875 171.78125 C 191.542969 165.859375 189.375 164.441406 184.875 165.527344 C 187.042969 166.859375 188.960938 168.359375 191.042969 169.363281 C 193.128906 170.363281 192.960938 171.363281 192.128906 172.949219 C 189.960938 177.035156 184.207031 178.617188 180.121094 176.367188 C 179.125 175.976562 178.097656 175.726562 177.035156 175.617188 L 179.285156 174.03125 C 183.621094 177.285156 187.957031 176.785156 190.210938 172.613281 C 188.207031 172.949219 186.375 173.28125 184.539062 173.449219 C 182.703125 173.613281 181.121094 174.113281 180.871094 171.78125 C 180.621094 169.445312 182.453125 169.695312 183.789062 169.445312 L 186.125 168.945312 C 185.125 167.527344 185.039062 167.359375 182.289062 168.195312 C 180.875 168.753906 179.679688 169.613281 178.703125 170.78125 C 177.617188 171.945312 176.867188 173.449219 175.449219 174.53125 C 176.0625 173.207031 176.757812 171.929688 177.535156 170.695312 C 179.785156 167.277344 182.203125 164.109375 187.042969 164.273438 C 190.542969 164.441406 194.796875 167.195312 194.546875 171.78125 Z M 194.546875 171.78125 " fill-opacity="1" fill-rule="nonzero"/><path fill="#d13627" d="M 210.726562 166.027344 C 214.8125 165.859375 216.730469 165.023438 216.5625 162.773438 C 220.066406 165.109375 223.652344 165.109375 227.488281 163.441406 C 231.324219 161.773438 235.242188 160.605469 239.164062 159.269531 C 247 156.6875 252.671875 151.347656 257.425781 144.84375 C 257.921875 144.121094 258.503906 143.484375 259.175781 142.925781 C 256.257812 147.597656 253.339844 152.265625 248.835938 155.601562 C 241.582031 161.023438 233.242188 163.859375 224.652344 166.109375 C 221.066406 167.027344 217.148438 166.691406 213.308594 166.777344 C 212.476562 166.859375 211.558594 166.277344 210.726562 166.027344 Z M 210.726562 166.027344 " fill-opacity="1" fill-rule="nonzero"/><g clip-path="url(#30a1bf0305)"><path fill="#d13627" d="M 237.828125 239.914062 C 235.492188 242.332031 233.492188 245.332031 230.738281 247.167969 C 222.484375 252.671875 213.644531 257.257812 203.46875 258.09375 C 197.351562 258.523438 191.238281 258.496094 185.125 258.011719 C 180.953125 257.59375 177.617188 254.839844 175.28125 251.171875 C 176.738281 252.765625 178.40625 254.09375 180.289062 255.148438 C 182.171875 256.203125 184.171875 256.933594 186.289062 257.34375 C 190.628906 258.09375 194.964844 258.84375 198.300781 253.589844 C 197.882812 255.257812 197.714844 256.007812 197.382812 257.175781 C 212.894531 255.675781 226.988281 251.921875 237.246094 239.414062 Z M 237.828125 239.914062 " fill-opacity="1" fill-rule="nonzero"/></g><path fill="#d13627" d="M 131 228.988281 C 130.667969 222.816406 138.089844 224.484375 139.507812 220.316406 L 144.425781 222.402344 C 143.425781 223.234375 142.007812 224.402344 140.589844 225.402344 C 139.382812 226.203125 138.101562 226.871094 136.753906 227.402344 C 134.863281 228.03125 132.945312 228.558594 131 228.988281 Z M 131 228.988281 " fill-opacity="1" fill-rule="nonzero"/><path fill="#d13627" d="M 140.839844 144.675781 C 132.417969 141.425781 128.5 133.667969 122.828125 127.664062 Z M 140.839844 144.675781 " fill-opacity="1" fill-rule="nonzero"/><g clip-path="url(#2dc3075f5d)"><path fill="#d13627" d="M 242.332031 130.917969 L 244.167969 130.917969 C 250.085938 129.25 254.007812 130.167969 262.429688 135.753906 C 261.066406 135.367188 259.730469 134.894531 258.425781 134.335938 C 256.257812 133.082031 253.945312 132.210938 251.492188 131.726562 C 249.035156 131.242188 246.566406 131.164062 244.082031 131.5 C 243.5 131.5 242.914062 131.082031 242.332031 130.917969 Z M 242.332031 130.917969 " fill-opacity="1" fill-rule="nonzero"/></g><path fill="#d13627" d="M 247.417969 177.199219 C 253.339844 171.113281 253.421875 165.609375 247.417969 159.519531 C 250.335938 159.855469 252.003906 161.605469 252.671875 165.191406 C 253.589844 170.113281 251.421875 175.199219 247.417969 177.199219 Z M 247.417969 177.199219 " fill-opacity="1" fill-rule="nonzero"/><path fill="#d13627" d="M 254.171875 180.871094 C 257.34375 172.28125 258.09375 162.191406 250.671875 157.851562 C 253.089844 157.9375 254.757812 159.019531 255.757812 161.855469 C 256.34375 163.398438 256.753906 164.988281 256.984375 166.625 C 257.214844 168.257812 257.261719 169.898438 257.125 171.542969 C 256.988281 173.1875 256.667969 174.796875 256.171875 176.371094 C 255.671875 177.945312 255.007812 179.445312 254.171875 180.871094 Z M 254.171875 180.871094 " fill-opacity="1" fill-rule="nonzero"/><path fill="#d13627" d="M 206.304688 171.53125 C 206.582031 172.640625 206.6875 173.765625 206.632812 174.90625 C 206.574219 176.046875 206.351562 177.15625 205.964844 178.230469 C 205.578125 179.308594 205.046875 180.304688 204.367188 181.222656 C 203.683594 182.140625 202.886719 182.941406 201.96875 183.621094 C 203.46875 179.535156 205.054688 175.03125 206.304688 171.53125 Z M 206.304688 171.53125 " fill-opacity="1" fill-rule="nonzero"/><path fill="#d13627" d="M 196.214844 173.28125 C 199.882812 169.527344 202.300781 165.191406 202.550781 159.4375 C 204.554688 163.691406 200.96875 171.113281 196.214844 173.28125 Z M 196.214844 173.28125 " fill-opacity="1" fill-rule="nonzero"/><path fill="#d13627" d="M 173.53125 243.5 L 182.371094 246.417969 C 177.953125 247.25 173.199219 245 171.695312 241.082031 L 178.035156 241.832031 L 178.035156 242.25 L 173.699219 242.5 Z M 173.53125 243.5 " fill-opacity="1" fill-rule="nonzero"/><path fill="#d13627" d="M 249.585938 178.117188 C 253.671875 174.449219 254.007812 169.527344 253.757812 164.273438 C 256.34375 168.945312 254.757812 174.199219 249.585938 178.117188 Z M 249.585938 178.117188 " fill-opacity="1" fill-rule="nonzero"/><path fill="#d13627" d="M 120.992188 121.660156 C 119.75 121.019531 118.472656 120.460938 117.15625 119.992188 C 114.65625 119.242188 113.988281 119.742188 114.320312 122.410156 C 114.488281 123.746094 114.90625 124.996094 115.238281 126.582031 C 113.402344 124.578125 112.570312 119.992188 113.90625 119.324219 C 116.738281 117.824219 118.910156 119.824219 120.992188 121.660156 Z M 120.992188 121.660156 " fill-opacity="1" fill-rule="nonzero"/><path fill="#d13627" d="M 230.074219 191.292969 C 231.90625 186.957031 232.15625 182.789062 230.15625 178.535156 C 230.546875 178.972656 230.890625 179.4375 231.195312 179.9375 C 231.496094 180.4375 231.753906 180.960938 231.960938 181.507812 C 232.164062 182.054688 232.320312 182.617188 232.425781 183.191406 C 232.527344 183.765625 232.578125 184.347656 232.574219 184.929688 C 232.570312 185.515625 232.511719 186.09375 232.402344 186.667969 C 232.289062 187.242188 232.128906 187.800781 231.914062 188.34375 C 231.699219 188.890625 231.4375 189.410156 231.128906 189.90625 C 230.820312 190.402344 230.46875 190.863281 230.074219 191.292969 Z M 230.074219 191.292969 " fill-opacity="1" fill-rule="nonzero"/><path fill="#d13627" d="M 195.296875 158.105469 L 197.550781 158.9375 L 196.464844 156.6875 L 197.382812 156.351562 L 200.550781 164.191406 L 199.71875 164.523438 Z M 195.296875 158.105469 " fill-opacity="1" fill-rule="nonzero"/><path fill="#d13627" d="M 203.804688 185.375 C 207.304688 186.957031 208.140625 189.542969 206.972656 192.960938 C 205.972656 190.460938 204.886719 187.957031 203.804688 185.375 Z M 203.804688 185.375 " fill-opacity="1" fill-rule="nonzero"/><path fill="#d13627" d="M 258.34375 174.113281 C 257.675781 178.285156 257.257812 182.621094 253.339844 184.707031 Z M 258.34375 174.113281 " fill-opacity="1" fill-rule="nonzero"/><path fill="#d13627" d="M 201.636719 186.625 C 202.96875 189.710938 204.386719 192.710938 205.722656 195.796875 L 204.886719 196.214844 C 203.554688 193.128906 202.136719 190.042969 200.71875 187.042969 Z M 201.636719 186.625 " fill-opacity="1" fill-rule="nonzero"/><path fill="#d13627" d="M 225.070312 193.628906 L 222.902344 193.628906 L 225.570312 196.796875 C 222.902344 197.296875 222.816406 194.628906 221.734375 193.296875 C 220.648438 191.960938 222.566406 191.628906 222.734375 191.710938 C 223.65625 192.039062 224.519531 192.484375 225.320312 193.046875 Z M 225.070312 193.628906 " fill-opacity="1" fill-rule="nonzero"/><path fill="#d13627" d="M 238.578125 193.878906 C 237.328125 199.632812 237.660156 200.46875 240.832031 202.804688 C 239.578125 201.96875 237.910156 201.386719 237.328125 200.21875 C 236.746094 199.050781 236.242188 195.964844 238.578125 193.878906 Z M 238.578125 193.878906 " fill-opacity="1" fill-rule="nonzero"/><path fill="#d13627" d="M 233.492188 195.882812 C 232.574219 198.800781 229.824219 200.550781 226.488281 200.300781 Z M 233.492188 195.882812 " fill-opacity="1" fill-rule="nonzero"/><path fill="#d13627" d="M 212.144531 239.664062 L 204.886719 240.246094 L 204.886719 239.246094 L 208.058594 239.828125 C 207.097656 239.101562 206.179688 238.320312 205.304688 237.496094 L 212.144531 239.328125 Z M 212.144531 239.664062 " fill-opacity="1" fill-rule="nonzero"/><path fill="#d13627" d="M 174.367188 246.75 L 183.371094 248.753906 C 181.539062 249.921875 177.535156 249.253906 174.367188 246.75 Z M 174.367188 246.75 " fill-opacity="1" fill-rule="nonzero"/><path fill="#d13627" d="M 184.121094 186.957031 C 188.375 188.792969 191.292969 187.625 193.964844 184.707031 C 192.046875 189.042969 187.375 190.125 184.121094 186.957031 Z M 184.121094 186.957031 " fill-opacity="1" fill-rule="nonzero"/><path fill="#d13627" d="M 223.152344 223.734375 C 218.480469 224.984375 215.394531 223.484375 213.894531 219.066406 C 216.394531 222.316406 218.980469 224.652344 223.152344 223.734375 Z M 223.152344 223.734375 " fill-opacity="1" fill-rule="nonzero"/><path fill="#d13627" d="M 191.960938 245.835938 L 201.800781 246.417969 L 201.800781 246.917969 L 191.792969 246.5 Z M 191.960938 245.835938 " fill-opacity="1" fill-rule="nonzero"/><path fill="#d13627" d="M 184.621094 208.808594 L 184.621094 216.980469 L 183.457031 208.722656 Z M 184.621094 208.808594 " fill-opacity="1" fill-rule="nonzero"/><path fill="#d13627" d="M 230.65625 213.476562 C 228.738281 216.730469 225.820312 215.894531 222.484375 215.980469 Z M 230.65625 213.476562 " fill-opacity="1" fill-rule="nonzero"/><path fill="#d13627" d="M 176.117188 249.585938 L 184.875 251.589844 L 184.707031 252.253906 L 175.867188 250.503906 Z M 176.117188 249.585938 " fill-opacity="1" fill-rule="nonzero"/><path fill="#d13627" d="M 135.921875 144.511719 L 135.921875 144.675781 L 135.753906 144.675781 L 135.753906 144.511719 C 135.753906 144.511719 135.835938 144.511719 135.921875 144.511719 Z M 135.921875 144.511719 " fill-opacity="1" fill-rule="nonzero"/><path fill="#d13627" d="M 200.800781 127.746094 L 201.300781 130.5 L 207.640625 131.25 L 196.132812 133.085938 L 200.300781 130.667969 C 200.382812 129.75 200.632812 128.75 200.800781 127.664062 Z M 200.800781 127.746094 " fill-opacity="1" fill-rule="nonzero"/><path fill="#d13627" d="M 181.121094 127.082031 C 183.371094 125.914062 186.289062 127.496094 187.542969 130.832031 Z M 181.121094 127.082031 " fill-opacity="1" fill-rule="nonzero"/><path fill="#d13627" d="M 182.039062 134.167969 C 178.203125 135.921875 175.53125 133.667969 175.78125 129.082031 C 177.117188 133.503906 177.785156 134.003906 182.039062 134.167969 Z M 182.039062 134.167969 " fill-opacity="1" fill-rule="nonzero"/></svg>