<svg xmlns="http://www.w3.org/2000/svg" xmlns:xlink="http://www.w3.org/1999/xlink" width="500" zoomAndPan="magnify" viewBox="0 0 375 374.999991" height="500" preserveAspectRatio="xMidYMid meet" version="1.0"><defs><clipPath id="0ae2a77b6f"><path d="M 89.136719 96.027344 L 285.882812 96.027344 L 285.882812 278.964844 L 89.136719 278.964844 Z M 89.136719 96.027344 " clip-rule="nonzero"/></clipPath></defs><g clip-path="url(#0ae2a77b6f)"><path fill="#d13627" d="M 217.542969 167.3125 C 217.226562 167.769531 216.917969 168.027344 216.902344 168.296875 C 216.894531 168.5 217.265625 168.722656 217.46875 168.933594 C 217.707031 168.707031 218.0625 168.511719 218.144531 168.238281 C 218.195312 168.058594 217.851562 167.761719 217.542969 167.3125 Z M 152.359375 172.398438 C 152.71875 171.933594 153.050781 171.683594 153.078125 171.40625 C 153.097656 171.183594 152.742188 170.929688 152.554688 170.6875 C 152.300781 170.925781 151.941406 171.125 151.835938 171.414062 C 151.769531 171.59375 152.089844 171.917969 152.359375 172.398438 Z M 260.105469 163.804688 C 257.785156 162.59375 255.5 162.503906 253.550781 163.179688 C 255.460938 163.363281 257.742188 163.582031 260.105469 163.804688 Z M 250.578125 165.671875 C 253.4375 164.199219 256.332031 163.515625 259.628906 164.9375 C 257.511719 162.996094 252.417969 163.503906 250.578125 165.671875 Z M 150.988281 173.90625 C 152.398438 178.101562 155.964844 178.640625 159.953125 174.949219 C 159.394531 175.125 158.855469 175.371094 158.414062 175.726562 C 156.929688 176.921875 155.308594 177.652344 153.574219 176.492188 C 152.523438 175.789062 151.742188 174.679688 150.988281 173.90625 Z M 214.019531 172.976562 C 219.011719 175.910156 223.011719 174.664062 222.894531 170.296875 C 222.683594 170.804688 222.539062 171.1875 222.371094 171.554688 C 221.140625 174.261719 219.042969 175.058594 216.359375 173.839844 C 215.914062 173.636719 215.496094 173.375 215.039062 173.199219 C 214.71875 173.074219 214.359375 173.046875 214.019531 172.976562 Z M 154.769531 168.660156 C 153.917969 168.710938 153.402344 169.195312 153.417969 170.015625 C 153.4375 170.832031 154.019531 171.355469 154.820312 171.355469 C 155.636719 171.355469 156.15625 170.855469 156.144531 169.984375 C 156.136719 169.101562 155.609375 168.710938 154.769531 168.660156 Z M 220.109375 168.667969 C 220.464844 168.179688 220.984375 167.738281 221.128906 167.195312 C 221.3125 166.503906 220.445312 165.738281 219.695312 165.832031 C 218.980469 165.917969 218.386719 166.226562 218.386719 167.089844 C 218.386719 167.84375 219.085938 168.5 220.109375 168.667969 Z M 265.753906 162.933594 C 256.964844 160.640625 255.277344 160.992188 253.035156 162.445312 C 254.039062 162.445312 255.132812 162.363281 256.210938 162.46875 C 257.285156 162.574219 258.355469 162.820312 259.40625 163.09375 C 260.457031 163.367188 261.46875 163.796875 262.519531 164.066406 C 263.515625 164.320312 264.539062 164.457031 265.550781 164.648438 C 265.554688 164.59375 265.5625 164.539062 265.566406 164.480469 C 264.175781 163.992188 262.78125 163.5 261.1875 162.933594 C 262.835938 162.933594 264.21875 162.933594 265.753906 162.933594 Z M 117.417969 165.113281 C 117.394531 164.980469 117.375 164.847656 117.351562 164.714844 C 116.773438 164.816406 116.195312 164.917969 115.613281 165.023438 C 115.609375 164.988281 115.601562 164.949219 115.597656 164.914062 C 116.1875 164.703125 116.78125 164.488281 117.585938 164.203125 C 112.242188 164.582031 107.074219 165.496094 102.140625 163.136719 C 105.296875 166.324219 109.222656 166.035156 113.191406 165.683594 C 112.46875 165.8125 111.746094 165.945312 111.023438 166.074219 C 111.050781 166.199219 111.082031 166.324219 111.109375 166.449219 C 113.210938 166.003906 115.3125 165.558594 117.417969 165.113281 Z M 264.976562 161.3125 C 264.019531 161.183594 263.0625 161.054688 262.105469 160.925781 C 263.492188 160.71875 264.890625 160.851562 266.246094 160.675781 C 267.570312 160.503906 268.921875 160.164062 270.144531 159.625 C 271.351562 159.09375 272.410156 158.222656 273.535156 157.5 C 271.707031 157.96875 270.050781 158.722656 268.3125 159.101562 C 266.558594 159.480469 264.726562 159.550781 262.921875 159.636719 C 261.167969 159.71875 259.40625 159.652344 257.648438 159.652344 C 257.648438 159.699219 257.648438 159.742188 257.648438 159.785156 C 258.105469 159.914062 258.5625 160.039062 259.015625 160.167969 C 259.011719 160.21875 259.003906 160.273438 258.996094 160.324219 C 258.382812 160.324219 257.773438 160.324219 256.910156 160.324219 C 259.679688 161.4375 262.304688 161.554688 264.976562 161.3125 Z M 140.625 171.652344 C 133.8125 175.972656 126.960938 175.59375 119.886719 171.742188 C 124.40625 177.636719 136.0625 177.515625 140.625 171.652344 Z M 237.972656 158.664062 C 240.167969 156.785156 242.554688 156.660156 245.136719 157.121094 C 243.066406 155.113281 238.097656 155.585938 235.457031 158 C 235.976562 158.035156 236.449219 158.066406 236.964844 158.097656 C 236.410156 158.707031 235.902344 159.269531 235.257812 159.984375 C 235.765625 159.882812 236.035156 159.828125 236.300781 159.777344 C 236.359375 159.851562 236.414062 159.925781 236.472656 160 C 236.089844 160.261719 235.703125 160.519531 235.320312 160.777344 C 235.363281 160.816406 235.40625 160.859375 235.445312 160.898438 C 236.265625 160.699219 237.085938 160.5 238.222656 160.226562 C 237.574219 160.761719 237.210938 161.0625 236.992188 161.242188 C 239.277344 161.242188 241.644531 161.242188 244.015625 161.242188 C 244.023438 161.179688 244.03125 161.121094 244.039062 161.058594 C 242.738281 160.714844 241.4375 160.367188 239.855469 159.945312 C 240.734375 159.695312 241.324219 159.527344 242.097656 159.308594 C 241.339844 159.144531 240.792969 159.027344 239.984375 158.851562 C 240.664062 158.664062 241.097656 158.542969 241.535156 158.421875 C 241.519531 158.34375 241.503906 158.261719 241.488281 158.183594 C 240.386719 158.335938 239.28125 158.488281 237.972656 158.664062 Z M 234.234375 168.089844 C 239.59375 174.214844 252.089844 173.609375 256.273438 167.207031 C 249.160156 171.703125 241.9375 172.496094 234.234375 168.089844 Z M 136.765625 157.609375 C 134.003906 155.0625 121.148438 155.636719 116.335938 158.816406 C 120.992188 157.339844 125.484375 157.03125 130.199219 157.011719 C 128.21875 157.550781 126.417969 158.042969 124.617188 158.53125 C 124.628906 158.585938 124.644531 158.636719 124.65625 158.691406 C 125.441406 158.550781 126.226562 158.414062 127.011719 158.273438 C 127.019531 158.308594 127.023438 158.34375 127.03125 158.375 C 126.324219 158.664062 125.621094 158.949219 124.664062 159.335938 C 128.882812 158.734375 132.808594 158.171875 136.765625 157.609375 Z M 176.070312 125.566406 C 174.730469 129.113281 171.484375 130.304688 168.375 131.902344 C 173.730469 131.359375 180.25 126.011719 180.660156 122.011719 C 179.496094 122.378906 178.308594 122.75 177.121094 123.125 C 177.09375 123.066406 177.066406 123.007812 177.035156 122.949219 C 177.257812 122.695312 177.476562 122.441406 177.695312 122.1875 C 175.292969 124.195312 173.183594 126.542969 170.191406 127.742188 C 170.25 127.855469 170.308594 127.964844 170.367188 128.078125 C 172.234375 127.253906 174.105469 126.429688 176.070312 125.566406 Z M 165.617188 127.214844 C 167.621094 126.652344 169.472656 126.070312 171.359375 125.621094 C 173.699219 125.066406 175.425781 123.714844 176.859375 121.839844 C 175.3125 121.925781 173.824219 121.871094 172.394531 122.125 C 170.972656 122.382812 169.550781 122.828125 168.234375 123.421875 C 166.90625 124.023438 165.664062 124.851562 164.464844 125.691406 C 163.308594 126.503906 162.253906 127.457031 161.152344 128.351562 C 164.074219 126.824219 166.710938 124.820312 170.066406 124.339844 C 169.332031 124.800781 168.546875 125.167969 167.820312 125.625 C 167.0625 126.101562 166.359375 126.671875 165.617188 127.214844 Z M 273.707031 146.804688 C 264.367188 143.945312 255.109375 143.414062 246.183594 148.039062 C 250.675781 147.382812 255.230469 146.523438 259.824219 146.089844 C 264.453125 145.65625 269.09375 146.074219 273.707031 146.804688 Z M 178.945312 134.011719 C 181.964844 131.648438 183.925781 127.59375 183.335938 124.996094 C 182.976562 125.335938 182.625 125.664062 182.277344 125.996094 C 182.230469 125.957031 182.183594 125.921875 182.140625 125.882812 C 182.484375 125.15625 182.828125 124.433594 183.171875 123.710938 C 183.117188 123.675781 183.0625 123.636719 183.007812 123.601562 C 182.617188 123.972656 182.226562 124.339844 181.710938 124.828125 C 181.917969 124.101562 182.078125 123.535156 182.242188 122.964844 C 182.136719 122.902344 182.03125 122.835938 181.925781 122.769531 C 180.976562 123.8125 179.894531 124.765625 179.101562 125.917969 C 177.757812 127.863281 176.597656 129.933594 175.363281 131.949219 C 175.402344 132 175.441406 132.050781 175.484375 132.101562 C 176.867188 130.6875 178.246094 129.277344 179.628906 127.867188 C 179.71875 127.90625 179.8125 127.945312 179.90625 127.988281 C 179.273438 129.675781 178.644531 131.367188 178.054688 132.949219 C 178.859375 132.050781 179.789062 131.015625 180.894531 129.785156 C 180.785156 130.261719 180.773438 130.492188 180.675781 130.679688 C 180.121094 131.777344 179.546875 132.863281 178.945312 134.011719 Z M 243.6875 152.683594 C 247.496094 151.886719 251.199219 152.765625 254.921875 153.378906 C 254.949219 153.277344 254.976562 153.171875 255.007812 153.066406 C 253.542969 152.605469 252.082031 152.148438 250.617188 151.6875 C 250.625 151.617188 250.628906 151.542969 250.632812 151.472656 C 253.234375 151.8125 255.832031 152.152344 258.515625 152.503906 C 258.316406 152.394531 258.195312 152.304688 258.0625 152.257812 C 257.707031 152.132812 257.351562 152.007812 256.988281 151.914062 C 252.269531 150.664062 247.519531 150.761719 242.753906 151.597656 C 240.664062 151.964844 238.753906 152.6875 236.96875 154.230469 C 241.410156 154.230469 245.621094 154.230469 249.835938 154.230469 C 249.847656 154.203125 249.855469 154.179688 249.867188 154.152344 C 248.394531 153.90625 246.917969 153.660156 245.445312 153.414062 C 245.449219 153.367188 245.453125 153.320312 245.457031 153.273438 C 246.542969 153.273438 247.632812 153.273438 248.722656 153.273438 C 248.726562 153.199219 248.730469 153.125 248.734375 153.054688 C 247.054688 152.929688 245.378906 152.808594 243.6875 152.683594 Z M 155.117188 162.820312 C 152.023438 161.132812 149.042969 162.546875 148.273438 165.835938 C 147.972656 167.125 147.285156 168.324219 146.765625 169.558594 C 146.691406 169.730469 146.511719 169.871094 146.488281 170.042969 C 146.445312 170.3125 146.492188 170.59375 146.503906 170.871094 C 146.800781 170.820312 147.191406 170.867188 147.378906 170.695312 C 147.707031 170.402344 147.9375 169.988281 148.160156 169.597656 C 149.40625 167.386719 151.339844 166.472656 153.769531 166.886719 C 155.425781 167.167969 157.023438 167.789062 158.515625 168.21875 C 157.902344 165.519531 155.726562 163.964844 151.917969 163.578125 C 152.945312 163.335938 153.972656 163.089844 155.117188 162.820312 Z M 214.445312 166.265625 C 215.367188 165.761719 216.269531 165.152344 217.253906 164.738281 C 220.449219 163.398438 222.914062 164.058594 225.085938 166.746094 C 225.320312 167.042969 225.515625 167.402344 225.816406 167.601562 C 226.140625 167.816406 226.566406 167.878906 226.945312 168.007812 C 226.859375 167.613281 226.851562 167.179688 226.671875 166.832031 C 226.015625 165.542969 225.292969 164.285156 224.617188 163.003906 C 224.285156 162.375 224.097656 161.65625 223.691406 161.089844 C 222.183594 158.996094 218.542969 158.808594 217.054688 160.609375 C 218.113281 160.699219 219.238281 160.792969 220.359375 160.890625 C 217.0625 161.367188 214.941406 163.21875 214.445312 166.265625 Z M 267.402344 147.257812 C 267.398438 147.160156 267.394531 147.066406 267.390625 146.972656 C 259.316406 146.421875 251.328125 146.59375 243.679688 149.796875 C 250.886719 150.578125 258.1875 150.042969 265.34375 151.476562 C 261.445312 149.40625 257.238281 148.957031 252.890625 148.785156 C 255.800781 148.488281 258.714844 148.191406 261.714844 147.886719 C 261.113281 147.753906 260.582031 147.636719 260.046875 147.519531 C 260.054688 147.429688 260.058594 147.34375 260.066406 147.257812 C 262.511719 147.257812 264.957031 147.257812 267.402344 147.257812 Z M 199.953125 133.738281 C 199.734375 133.382812 199.699219 133.265625 199.621094 133.207031 C 196.105469 130.558594 192.992188 127.507812 190.386719 123.949219 C 189.882812 123.261719 189.214844 122.851562 188.230469 122.984375 C 188.800781 123.84375 189.324219 124.632812 189.847656 125.417969 C 189.753906 125.496094 189.664062 125.570312 189.574219 125.648438 C 188.8125 124.804688 188.046875 123.964844 187.074219 122.882812 C 187.417969 123.871094 187.65625 124.558594 187.894531 125.246094 C 187.824219 125.28125 187.757812 125.320312 187.6875 125.355469 C 187.109375 124.53125 186.53125 123.710938 185.859375 122.765625 C 185.5625 124.957031 187.414062 131.414062 188.628906 132.894531 C 188.382812 131.171875 188.121094 129.355469 187.863281 127.535156 C 189.292969 130.054688 190.859375 132.375 193.675781 133.480469 C 191.996094 131.742188 190.539062 129.882812 189.78125 127.167969 C 192.863281 130.089844 195.828125 132.578125 199.953125 133.738281 Z M 200.820312 122.175781 C 202.460938 122.847656 203.824219 123.449219 205.21875 123.96875 C 206.636719 124.5 208.082031 124.949219 209.511719 125.4375 C 207.347656 124.074219 205.109375 122.917969 202.929688 121.65625 C 200.652344 120.335938 198.265625 120.515625 195.792969 120.871094 C 197.191406 121.644531 198.535156 122.390625 199.878906 123.136719 C 199.832031 123.238281 199.785156 123.34375 199.734375 123.445312 C 197.875 123.050781 196.011719 122.65625 194.121094 122.253906 C 194.164062 122.414062 194.210938 122.582031 194.300781 122.925781 C 192.667969 122.605469 191.164062 122.308594 189.550781 121.992188 C 192.578125 126.382812 196.613281 129.378906 199.695312 129.585938 C 197.410156 127.71875 196.191406 125.726562 196.335938 124.089844 C 197.144531 124.753906 197.957031 125.421875 198.769531 126.09375 C 198.800781 126.046875 198.832031 126.003906 198.863281 125.957031 C 198.269531 125.15625 197.671875 124.359375 197.074219 123.5625 C 197.144531 123.5 197.21875 123.4375 197.289062 123.378906 C 199.785156 126.214844 203.015625 127.796875 206.65625 129.097656 C 205.089844 127.847656 203.6875 126.734375 202.289062 125.621094 C 202.355469 125.535156 202.417969 125.449219 202.480469 125.367188 C 203.632812 125.902344 204.765625 126.484375 205.941406 126.957031 C 207.117188 127.425781 208.339844 127.78125 209.539062 128.1875 C 206.273438 126.824219 203.523438 124.789062 200.820312 122.175781 Z M 182.207031 243.523438 C 182.148438 243.503906 182.089844 243.484375 182.035156 243.464844 C 181.84375 242.75 181.65625 242.03125 181.46875 241.316406 C 181.386719 241.328125 181.304688 241.339844 181.222656 241.351562 C 181.066406 241.957031 180.910156 242.5625 180.703125 243.351562 C 180.429688 242.492188 180.210938 241.8125 179.910156 240.867188 C 179.558594 241.65625 179.335938 242.160156 179.0625 242.769531 C 178.878906 242.15625 178.734375 241.6875 178.515625 240.964844 C 178.199219 241.566406 178.015625 241.914062 177.78125 242.351562 C 177.570312 241.925781 177.398438 241.582031 177.175781 241.136719 C 176.941406 241.4375 176.773438 241.648438 176.667969 241.789062 C 176.246094 241.566406 175.871094 241.371094 175.5 241.175781 C 177.3125 245.113281 180.050781 247.644531 184.546875 247.582031 C 187.90625 247.53125 191.269531 247.332031 194.625 247.433594 C 199.871094 247.59375 202.714844 244.300781 205.167969 240.183594 C 204.402344 240.398438 203.636719 240.609375 202.828125 240.835938 C 202.847656 240.882812 202.761719 240.664062 202.585938 240.226562 C 202.34375 240.816406 202.1875 241.199219 202.019531 241.617188 C 201.839844 241.183594 201.679688 240.796875 201.519531 240.414062 C 201.421875 240.414062 201.320312 240.417969 201.21875 240.421875 C 201.046875 240.960938 200.875 241.5 200.636719 242.238281 C 200.484375 241.777344 200.410156 241.492188 200.296875 241.222656 C 200.199219 240.992188 200.058594 240.777344 199.933594 240.554688 C 199.851562 240.578125 199.769531 240.597656 199.683594 240.621094 C 199.558594 241.222656 199.429688 241.820312 199.246094 242.691406 C 198.976562 241.875 198.785156 241.296875 198.59375 240.722656 C 198.515625 240.742188 198.441406 240.761719 198.363281 240.78125 C 198.1875 241.523438 198.011719 242.269531 197.835938 243.011719 C 197.769531 243.003906 197.699219 242.992188 197.632812 242.984375 C 197.46875 242.273438 197.308594 241.5625 197.148438 240.847656 C 197.046875 240.847656 196.949219 240.847656 196.847656 240.847656 C 196.71875 241.703125 196.589844 242.558594 196.457031 243.414062 C 196.410156 243.414062 196.359375 243.414062 196.3125 243.414062 C 196.105469 242.65625 195.898438 241.898438 195.691406 241.140625 C 195.613281 241.144531 195.53125 241.152344 195.453125 241.160156 C 195.335938 241.957031 195.21875 242.75 195.105469 243.546875 C 195.054688 243.546875 195.003906 243.550781 194.953125 243.550781 C 194.730469 242.773438 194.511719 241.992188 194.289062 241.210938 C 194.214844 241.226562 194.144531 241.238281 194.070312 241.253906 C 193.9375 242.089844 193.804688 242.921875 193.671875 243.757812 C 193.625 243.769531 193.574219 243.777344 193.527344 243.789062 C 193.292969 242.929688 193.058594 242.070312 192.824219 241.214844 C 192.757812 241.226562 192.691406 241.242188 192.625 241.257812 C 192.519531 242.050781 192.414062 242.847656 192.304688 243.640625 C 192.25 243.648438 192.195312 243.652344 192.140625 243.65625 C 191.910156 242.929688 191.679688 242.203125 191.453125 241.476562 C 191.382812 241.480469 191.308594 241.488281 191.238281 241.492188 C 191.136719 242.386719 191.03125 243.285156 190.929688 244.179688 C 190.859375 244.1875 190.785156 244.199219 190.714844 244.207031 C 190.480469 243.3125 190.242188 242.417969 189.929688 241.230469 C 189.71875 242.40625 189.5625 243.28125 189.40625 244.15625 C 189.347656 244.152344 189.292969 244.144531 189.234375 244.136719 C 189.046875 243.246094 188.855469 242.355469 188.667969 241.464844 C 188.605469 241.464844 188.542969 241.460938 188.480469 241.457031 C 188.3125 242.308594 188.144531 243.15625 187.972656 244.007812 C 187.910156 244.007812 187.84375 244.011719 187.777344 244.015625 C 187.5625 243.140625 187.347656 242.265625 187.132812 241.386719 C 187.066406 241.394531 187.003906 241.398438 186.941406 241.40625 C 186.785156 242.257812 186.628906 243.109375 186.472656 243.960938 C 186.417969 243.953125 186.359375 243.949219 186.300781 243.941406 C 186.113281 243.152344 185.921875 242.363281 185.734375 241.574219 C 185.660156 241.570312 185.582031 241.5625 185.507812 241.558594 C 185.378906 242.292969 185.253906 243.023438 185.125 243.757812 C 185.0625 243.753906 185 243.75 184.9375 243.746094 C 184.707031 242.957031 184.480469 242.164062 184.25 241.375 C 184.179688 241.390625 184.109375 241.40625 184.035156 241.421875 C 183.945312 242.199219 183.851562 242.980469 183.757812 243.757812 C 183.675781 243.757812 183.589844 243.761719 183.507812 243.761719 C 183.292969 242.960938 183.078125 242.160156 182.867188 241.355469 C 182.804688 241.367188 182.742188 241.375 182.683594 241.382812 C 182.523438 242.097656 182.363281 242.808594 182.207031 243.523438 Z M 194.117188 276.90625 C 194.234375 276.839844 194.347656 276.773438 194.464844 276.707031 C 193.882812 275.410156 193.3125 274.109375 192.714844 272.824219 C 189.667969 266.257812 186.574219 259.71875 183.59375 253.125 C 182.898438 251.589844 181.980469 250.371094 180.457031 249.746094 C 177.078125 248.371094 175.097656 245.691406 173.574219 242.574219 C 172.839844 241.074219 172.871094 241.058594 171.125 241.414062 C 171.546875 248.03125 174.351562 253.253906 180.082031 256.773438 C 180.707031 257.160156 181.296875 257.59375 182.105469 258.140625 C 181.433594 258.492188 181.027344 258.75 180.589844 258.929688 C 179.042969 259.570312 178.796875 259.984375 179.816406 261.316406 C 180.878906 262.710938 182.089844 264.070312 183.484375 265.113281 C 185.96875 266.964844 188.066406 269.128906 189.890625 271.613281 C 191.226562 273.433594 192.703125 275.144531 194.117188 276.90625 Z M 249.109375 126.808594 C 249.175781 126.777344 249.242188 126.746094 249.3125 126.714844 C 249 126.074219 248.691406 125.433594 248.382812 124.789062 C 248.457031 124.726562 248.53125 124.660156 248.605469 124.597656 C 248.742188 124.820312 248.851562 125.0625 249.015625 125.261719 C 249.183594 125.460938 249.410156 125.617188 249.609375 125.789062 C 249.664062 125.746094 249.71875 125.707031 249.773438 125.664062 C 249.640625 125.308594 249.503906 124.953125 249.347656 124.535156 C 249.722656 124.765625 250.015625 124.945312 250.5625 125.277344 C 250.304688 124.742188 250.175781 124.476562 250.023438 124.164062 C 251.414062 124.5625 251.570312 124.4375 251.433594 123.511719 C 251.996094 123.128906 252.554688 122.917969 252.859375 122.515625 C 255.058594 119.59375 256.667969 116.347656 257.289062 112.75 C 257.679688 110.46875 257.589844 108.105469 257.667969 105.773438 C 257.675781 105.523438 257.347656 105.257812 257.144531 104.957031 C 257.929688 103.714844 257.511719 98.386719 256.363281 97.410156 C 256.183594 97.941406 255.945312 98.40625 255.875 98.894531 C 255.613281 100.6875 255.359375 102.480469 255.191406 104.285156 C 254.773438 108.734375 253.71875 112.984375 251.40625 116.855469 C 247.183594 123.921875 240.570312 127.292969 232.792969 128.851562 C 231.621094 129.085938 230.445312 129.28125 229.253906 129.496094 C 229.429688 129.828125 229.582031 130.117188 229.734375 130.402344 C 229.148438 130.175781 228.734375 129.539062 228.308594 129.527344 C 224.964844 129.445312 221.621094 129.480469 218.21875 129.480469 C 219.503906 131.703125 220.734375 133.828125 221.964844 135.949219 C 222.011719 135.929688 222.054688 135.910156 222.101562 135.890625 C 222.011719 135.121094 221.921875 134.351562 221.832031 133.582031 C 221.882812 133.570312 221.933594 133.558594 221.984375 133.546875 C 222.394531 134.695312 222.804688 135.84375 223.214844 136.992188 C 223.285156 136.972656 223.355469 136.949219 223.425781 136.925781 C 223.363281 136.164062 223.296875 135.40625 223.210938 134.375 C 223.699219 135.332031 224.054688 136.03125 224.410156 136.730469 C 224.46875 136.707031 224.53125 136.683594 224.589844 136.660156 C 224.589844 136.226562 224.589844 135.792969 224.589844 135.117188 C 225.195312 136.09375 225.679688 136.875 226.3125 137.894531 C 226.160156 137.042969 226.0625 136.472656 225.941406 135.78125 C 226.324219 136.449219 226.640625 137 227.109375 137.8125 C 227.109375 136.816406 227.109375 136.128906 227.109375 135.414062 C 227.5625 136.574219 227.996094 137.683594 228.539062 139.066406 C 228.539062 137.941406 228.539062 137.164062 228.539062 136.160156 C 228.875 136.9375 229.117188 137.5 229.476562 138.332031 C 229.582031 137.167969 229.660156 136.308594 229.765625 135.136719 C 230.28125 136.183594 230.640625 136.914062 231 137.648438 C 231.039062 137.636719 231.078125 137.625 231.117188 137.613281 C 230.863281 136.28125 230.609375 134.953125 230.355469 133.625 C 230.421875 133.617188 230.492188 133.613281 230.5625 133.605469 C 231.167969 134.722656 231.773438 135.84375 232.539062 137.246094 C 232.253906 135.785156 232.03125 134.636719 231.808594 133.488281 C 231.871094 133.464844 231.9375 133.441406 232.003906 133.417969 C 232.570312 134.472656 233.136719 135.53125 233.699219 136.585938 C 233.753906 136.5625 233.804688 136.539062 233.855469 136.515625 C 233.722656 135.714844 233.585938 134.914062 233.453125 134.117188 C 233.496094 134.089844 233.542969 134.066406 233.589844 134.042969 C 234.382812 135.199219 235.175781 136.359375 236.148438 137.777344 C 235.617188 136.261719 235.191406 135.046875 234.765625 133.832031 C 234.8125 133.816406 234.855469 133.796875 234.902344 133.78125 C 235.425781 134.523438 235.949219 135.265625 236.5 136.042969 C 236.453125 135.460938 236.410156 134.941406 236.355469 134.257812 C 236.84375 134.628906 237.210938 134.90625 237.597656 135.199219 C 237.578125 134.871094 237.5625 134.539062 237.546875 134.222656 C 237.984375 134.574219 238.382812 134.898438 239.03125 135.421875 C 238.648438 134.566406 238.394531 134 238.136719 133.433594 C 238.222656 133.355469 238.308594 133.273438 238.394531 133.195312 C 238.964844 133.75 239.539062 134.304688 239.988281 134.742188 C 239.988281 133.878906 239.988281 132.886719 239.988281 132.035156 C 240.308594 132.335938 240.765625 132.765625 241.378906 133.347656 C 241.183594 132.636719 241.054688 132.179688 240.863281 131.503906 C 241.292969 131.988281 241.566406 132.300781 241.847656 132.613281 C 242.101562 132.191406 242.300781 131.859375 242.515625 131.507812 C 242.710938 131.742188 242.882812 131.941406 243.210938 132.320312 C 243.128906 131.839844 243.089844 131.609375 243.03125 131.261719 C 243.339844 131.542969 243.550781 131.734375 243.945312 132.089844 C 243.730469 131.214844 243.574219 130.578125 243.398438 129.863281 C 244.101562 130.535156 244.726562 131.128906 245.421875 131.792969 C 245.261719 131.207031 245.132812 130.726562 244.949219 130.046875 C 245.351562 130.390625 245.59375 130.59375 245.898438 130.851562 C 245.945312 130.304688 245.984375 129.878906 246.027344 129.363281 C 246.429688 129.691406 246.792969 129.988281 247.257812 130.371094 C 246.839844 129.226562 246.460938 128.195312 246.019531 127 C 247.089844 128.019531 248.011719 128.898438 248.988281 129.832031 C 248.226562 128.601562 247.507812 127.445312 246.785156 126.285156 C 246.835938 126.257812 246.886719 126.230469 246.9375 126.199219 C 247.449219 126.828125 247.960938 127.457031 248.46875 128.085938 C 248.539062 128.03125 248.605469 127.980469 248.671875 127.929688 C 248.339844 127.28125 248.003906 126.628906 247.671875 125.976562 C 247.730469 125.941406 247.789062 125.910156 247.851562 125.875 C 248.269531 126.1875 248.6875 126.496094 249.109375 126.808594 Z M 154.652344 132.484375 C 151.621094 132.632812 148.683594 132.789062 145.742188 132.898438 C 144.949219 132.929688 144.160156 132.824219 143.789062 133.785156 C 143.742188 133.90625 143.429688 133.925781 143.019531 134.074219 C 143.328125 133.585938 143.507812 133.300781 143.710938 132.980469 C 141.882812 132.765625 140.136719 132.632812 138.417969 132.335938 C 135.550781 131.839844 132.753906 131.039062 130.207031 129.582031 C 123.503906 125.738281 119.980469 119.714844 118.710938 112.289062 C 118.148438 108.984375 117.941406 105.621094 117.542969 102.285156 C 117.496094 101.902344 117.265625 101.542969 117.121094 101.167969 C 116.996094 101.195312 116.871094 101.21875 116.75 101.246094 C 116.109375 103.496094 115.796875 105.769531 116.113281 108.015625 C 115.925781 108.625 115.585938 109.199219 115.597656 109.765625 C 115.652344 112.21875 115.652344 114.6875 115.964844 117.113281 C 116.417969 120.601562 117.847656 123.765625 119.855469 126.648438 C 120.164062 127.089844 120.742188 127.34375 121.324219 127.78125 C 121.332031 127.75 121.261719 128.011719 121.148438 128.414062 C 121.535156 128.3125 121.777344 128.265625 122.011719 128.191406 C 122.285156 128.101562 122.550781 127.992188 122.90625 127.859375 C 122.09375 128.972656 122.09375 128.972656 122.703125 129.835938 C 123.125 129.433594 123.542969 129.035156 123.960938 128.636719 C 124.042969 128.695312 124.128906 128.753906 124.210938 128.8125 C 123.660156 129.757812 123.113281 130.707031 122.449219 131.855469 C 123.394531 131.019531 124.171875 130.328125 124.953125 129.640625 C 124.988281 129.664062 125.027344 129.691406 125.0625 129.714844 C 124.4375 130.878906 123.816406 132.042969 123.195312 133.203125 C 123.253906 133.246094 123.3125 133.285156 123.371094 133.324219 C 124.101562 132.492188 124.832031 131.660156 125.566406 130.832031 C 125.632812 130.882812 125.703125 130.933594 125.773438 130.984375 C 125.527344 131.589844 125.28125 132.195312 125.035156 132.800781 C 125.070312 132.820312 125.105469 132.839844 125.140625 132.859375 C 125.371094 132.582031 125.605469 132.300781 125.835938 132.023438 C 125.882812 132.054688 125.929688 132.082031 125.972656 132.113281 C 125.679688 132.78125 125.386719 133.449219 125.089844 134.113281 C 125.140625 134.15625 125.191406 134.199219 125.238281 134.242188 C 125.675781 133.882812 126.113281 133.523438 126.8125 132.945312 C 126.554688 133.730469 126.398438 134.199219 126.199219 134.800781 C 126.570312 134.488281 126.835938 134.265625 127.152344 134 C 127.203125 134.320312 127.238281 134.535156 127.308594 134.980469 C 127.8125 134.433594 128.167969 134.046875 128.667969 133.503906 C 128.332031 134.511719 128.066406 135.308594 127.707031 136.390625 C 128.339844 135.589844 128.773438 135.042969 129.207031 134.496094 C 129.261719 134.53125 129.3125 134.5625 129.367188 134.59375 C 129.292969 134.960938 129.222656 135.328125 129.113281 135.863281 C 129.390625 135.558594 129.539062 135.398438 129.691406 135.234375 C 129.921875 136.023438 130.332031 136.070312 131.03125 135.351562 C 130.847656 136.128906 130.714844 136.695312 130.582031 137.261719 C 130.992188 136.839844 131.398438 136.421875 131.800781 136.003906 C 131.886719 136.074219 131.96875 136.140625 132.054688 136.210938 C 131.90625 136.96875 131.757812 137.726562 131.609375 138.480469 C 131.660156 138.492188 131.710938 138.5 131.761719 138.511719 C 132.175781 137.464844 132.589844 136.421875 133.003906 135.378906 C 133.054688 135.394531 133.105469 135.410156 133.15625 135.421875 C 132.867188 136.410156 132.574219 137.398438 132.191406 138.703125 C 132.703125 138.058594 133.007812 137.675781 133.460938 137.109375 C 133.460938 137.957031 133.460938 138.558594 133.460938 139.304688 C 134.019531 138.152344 134.503906 137.160156 134.988281 136.164062 C 135.042969 136.191406 135.101562 136.222656 135.15625 136.25 C 134.894531 137.214844 134.628906 138.175781 134.316406 139.320312 C 135.070312 138.761719 135.667969 138.324219 136.25 137.894531 C 136.308594 138.390625 136.371094 138.921875 136.457031 139.621094 C 137.003906 138.636719 137.476562 137.792969 137.945312 136.949219 C 137.984375 136.964844 138.019531 136.980469 138.058594 136.996094 C 137.710938 138.347656 137.363281 139.699219 137.011719 141.050781 C 137.0625 141.066406 137.117188 141.082031 137.167969 141.097656 C 137.800781 139.867188 138.429688 138.636719 139.0625 137.40625 C 139.125 137.425781 139.1875 137.445312 139.253906 137.464844 C 139.140625 138.484375 139.027344 139.503906 138.890625 140.75 C 139.632812 139.140625 140.28125 137.742188 140.925781 136.34375 C 140.992188 136.371094 141.058594 136.398438 141.125 136.425781 C 140.90625 137.757812 140.683594 139.085938 140.464844 140.414062 C 140.523438 140.433594 140.582031 140.453125 140.640625 140.472656 C 141.167969 139.21875 141.695312 137.964844 142.222656 136.707031 C 142.289062 136.730469 142.355469 136.753906 142.417969 136.773438 C 142.234375 138.179688 142.050781 139.582031 141.84375 141.160156 C 142.328125 140.078125 142.742188 139.152344 143.152344 138.226562 C 143.230469 138.253906 143.308594 138.277344 143.386719 138.304688 C 143.324219 139.332031 143.261719 140.363281 143.195312 141.390625 C 143.246094 141.410156 143.296875 141.429688 143.34375 141.449219 C 143.621094 140.921875 143.894531 140.390625 144.167969 139.863281 C 144.246094 139.875 144.328125 139.886719 144.40625 139.898438 C 144.515625 140.707031 144.621094 141.519531 144.730469 142.328125 C 145.085938 141.230469 145.453125 140.101562 145.832031 138.9375 C 145.929688 139.65625 146.019531 140.3125 146.140625 141.207031 C 146.371094 140.554688 146.507812 140.167969 146.679688 139.683594 C 146.867188 140.019531 146.976562 140.21875 147.125 140.480469 C 147.292969 139.996094 147.425781 139.621094 147.628906 139.039062 C 147.707031 139.523438 147.746094 139.78125 147.808594 140.164062 C 148.140625 139.464844 148.410156 138.898438 148.679688 138.332031 C 148.730469 138.34375 148.785156 138.359375 148.835938 138.371094 C 148.773438 138.980469 148.707031 139.589844 148.640625 140.199219 C 148.699219 140.222656 148.753906 140.246094 148.8125 140.269531 C 149.253906 139.363281 149.699219 138.453125 150.265625 137.292969 C 150.167969 138.4375 150.089844 139.3125 150.015625 140.1875 C 150.085938 140.207031 150.160156 140.226562 150.230469 140.242188 C 150.617188 138.9375 151.003906 137.628906 151.390625 136.320312 C 151.449219 136.332031 151.511719 136.34375 151.574219 136.359375 C 151.507812 137.070312 151.441406 137.78125 151.375 138.492188 C 151.425781 138.511719 151.480469 138.53125 151.535156 138.546875 C 152.5625 136.550781 153.589844 134.550781 154.652344 132.484375 Z M 157.507812 187.050781 C 159.082031 189.445312 159.417969 192.300781 159.8125 195.183594 C 159.8125 193.003906 159.8125 190.824219 159.8125 188.640625 C 159.925781 188.632812 160.039062 188.625 160.148438 188.613281 C 160.359375 189.773438 160.566406 190.929688 160.828125 192.394531 C 161.039062 188.894531 160.925781 185.734375 159.90625 182.640625 C 160.007812 182.601562 160.105469 182.5625 160.207031 182.519531 C 160.777344 183.582031 161.351562 184.644531 161.925781 185.707031 C 162 185.683594 162.078125 185.660156 162.152344 185.636719 C 161.644531 184.003906 161.132812 182.367188 160.542969 180.460938 C 161.34375 181.335938 161.96875 182.019531 162.59375 182.703125 C 162.175781 181.226562 161.671875 179.78125 161.0625 178.382812 C 160.539062 177.171875 159.9375 177.121094 159.054688 178.101562 C 156.777344 180.628906 155.476562 180.933594 152.3125 179.597656 C 152.203125 180.078125 152.054688 180.535156 152.003906 181.003906 C 151.804688 182.835938 152.1875 184.542969 153.3125 186.027344 C 155.335938 188.703125 156.164062 191.777344 156.589844 195.054688 C 157.246094 200.128906 158.492188 205.058594 160.890625 209.621094 C 161.761719 211.277344 162.777344 212.859375 163.855469 214.6875 C 168.214844 205.761719 171.78125 196.878906 173.964844 187.460938 C 173.824219 188.890625 173.6875 190.320312 173.546875 191.746094 C 173.589844 191.753906 173.636719 191.761719 173.679688 191.765625 C 173.894531 191.210938 174.109375 190.652344 174.324219 190.097656 C 174.261719 191.09375 174.117188 192.058594 173.882812 193 C 172.027344 200.460938 169.421875 207.640625 165.714844 214.386719 C 164.300781 216.964844 163.699219 219.683594 163.492188 222.605469 C 163.34375 224.675781 162.648438 226.714844 162.109375 228.742188 C 161.847656 229.71875 161.273438 230.609375 161.027344 231.589844 C 159.925781 236.003906 162.785156 238.628906 166.109375 238.351562 C 166.675781 238.304688 167.242188 238.339844 167.8125 238.324219 C 177.96875 238.011719 188.128906 237.695312 198.289062 237.382812 C 203.046875 237.234375 207.804688 237.105469 212.5625 236.941406 C 215.785156 236.828125 217.839844 235.328125 218.359375 232.710938 C 218.703125 230.96875 217.898438 229.488281 217.234375 227.957031 C 216.402344 226.03125 215.265625 224.085938 215.058594 222.070312 C 214.667969 218.226562 213.421875 214.902344 210.890625 212.03125 C 210.839844 211.972656 210.800781 211.90625 210.757812 211.84375 C 206.765625 205.683594 203.621094 199.078125 200.519531 192.449219 C 200.320312 192.027344 200.1875 191.570312 200.027344 191.125 C 200.085938 191.101562 200.148438 191.074219 200.210938 191.050781 C 200.574219 191.726562 200.933594 192.402344 201.296875 193.082031 C 201.332031 193.066406 201.371094 193.046875 201.40625 193.03125 C 200.929688 191.050781 200.457031 189.066406 199.925781 186.863281 C 201.125 189.652344 202.046875 192.292969 203.347656 194.730469 C 206.316406 200.285156 209.425781 205.765625 212.5625 211.230469 C 213.59375 213.027344 214.890625 214.671875 216.101562 216.429688 C 216.066406 216.503906 216.109375 216.394531 216.160156 216.292969 C 216.363281 215.890625 216.582031 215.492188 216.777344 215.085938 C 220.304688 207.628906 221.285156 199.726562 220.898438 191.582031 C 220.835938 190.265625 220.628906 188.894531 220.910156 187.640625 C 221.339844 185.714844 222.105469 183.855469 222.78125 181.988281 C 223.453125 180.132812 223.441406 178.355469 222.675781 176.917969 C 221.226562 177.207031 220.011719 177.632812 218.789062 177.644531 C 217.304688 177.65625 216.105469 176.773438 215.035156 175.757812 C 214.238281 174.996094 213.628906 175.011719 213.179688 176.011719 C 212.664062 177.152344 212.449219 178.433594 212.113281 179.65625 C 212.105469 179.679688 212.203125 179.738281 212.257812 179.78125 C 212.417969 179.527344 212.578125 179.277344 212.855469 178.835938 C 212.507812 180.425781 212.210938 181.78125 211.878906 183.300781 C 212.605469 182.015625 213.238281 180.894531 213.871094 179.773438 C 213.925781 179.8125 213.976562 179.847656 214.03125 179.886719 C 213.800781 181.90625 213.570312 183.925781 213.34375 185.945312 C 213.410156 185.953125 213.476562 185.960938 213.542969 185.96875 C 213.957031 184.605469 214.375 183.246094 214.792969 181.863281 C 215.132812 185.101562 215.457031 188.21875 215.78125 191.332031 C 215.867188 191.320312 215.953125 191.308594 216.042969 191.296875 C 216.121094 189.558594 216.199219 187.820312 216.28125 186.082031 C 216.386719 186.085938 216.492188 186.089844 216.597656 186.09375 C 216.761719 187.351562 216.894531 188.617188 217.101562 189.867188 C 217.304688 191.117188 217.582031 192.355469 217.828125 193.597656 C 218.371094 188.371094 218.65625 187.117188 219.574219 186.140625 C 219.503906 187.625 219.351562 189.277344 219.367188 190.925781 C 219.414062 196.738281 218.664062 202.449219 217.285156 208.082031 C 216.816406 209.988281 216.175781 211.855469 215.550781 213.949219 C 214.988281 213.023438 214.59375 212.382812 214.207031 211.738281 C 210.546875 205.617188 206.878906 199.503906 203.25 193.367188 C 202.898438 192.78125 202.601562 192.03125 202.628906 191.375 C 202.707031 189.566406 202.859375 187.75 203.1875 185.972656 C 203.660156 183.433594 204.316406 180.929688 204.898438 178.402344 C 204.441406 178.574219 203.910156 178.773438 203.257812 179.015625 C 203.335938 178.738281 203.335938 178.621094 203.394531 178.546875 C 206.625 174.417969 208.273438 169.621094 209.648438 164.625 C 211.148438 159.167969 214.480469 155.121094 219.988281 153.171875 C 220.875 152.855469 221.804688 152.667969 222.707031 152.398438 C 224.332031 151.917969 224.648438 151.292969 223.964844 149.71875 C 223.273438 148.128906 222.582031 146.53125 221.753906 145.011719 C 220.386719 142.496094 219.089844 139.914062 217.433594 137.597656 C 214.894531 134.042969 210.308594 132.210938 206.113281 132.789062 C 208.796875 134.835938 212.242188 135.355469 214.722656 137.929688 C 213 137.136719 211.492188 136.449219 209.984375 135.757812 C 209.972656 135.796875 209.960938 135.832031 209.949219 135.871094 C 211.503906 137.214844 213.054688 138.558594 214.609375 139.902344 C 213.316406 139.453125 212.214844 138.742188 211.039062 138.1875 C 209.820312 137.609375 208.542969 137.148438 207.269531 136.699219 C 206.082031 136.277344 204.867188 135.933594 203.664062 135.558594 C 203.628906 135.648438 203.59375 135.738281 203.558594 135.828125 C 205.523438 136.996094 207.488281 138.164062 209.550781 139.390625 C 207.03125 138.816406 204.632812 138.269531 202.238281 137.726562 C 202.21875 137.820312 202.199219 137.914062 202.175781 138.007812 C 203.042969 138.246094 203.910156 138.476562 204.773438 138.730469 C 205.640625 138.984375 206.511719 139.230469 207.355469 139.546875 C 208.152344 139.84375 208.914062 140.226562 209.691406 140.574219 C 209.671875 140.589844 209.65625 140.609375 209.636719 140.625 C 206.445312 139.785156 203.253906 138.945312 200.0625 138.105469 C 200.027344 138.226562 199.992188 138.34375 199.960938 138.464844 C 201.355469 138.96875 202.753906 139.472656 204.152344 139.976562 C 204.136719 140.023438 204.121094 140.066406 204.105469 140.109375 C 200.847656 139.289062 197.589844 138.464844 194.101562 137.585938 C 196.144531 139.632812 198.699219 140.03125 200.964844 141.0625 C 198.230469 140.746094 195.496094 140.425781 192.761719 140.109375 C 192.734375 140.199219 192.707031 140.292969 192.679688 140.382812 C 193.976562 141.070312 195.269531 141.753906 196.5625 142.441406 C 196.542969 142.496094 196.523438 142.550781 196.503906 142.609375 C 193.589844 142.066406 190.675781 141.523438 187.515625 140.933594 C 188.292969 141.808594 188.855469 142.441406 189.421875 143.074219 C 189.335938 143.164062 189.246094 143.253906 189.160156 143.34375 C 187.203125 142.078125 185.242188 140.8125 183.410156 139.625 C 184.0625 140.378906 184.78125 141.207031 185.71875 142.289062 C 183.984375 141.496094 182.566406 140.847656 181.050781 140.152344 C 182.023438 139.433594 182.96875 138.734375 184.160156 137.851562 C 183.3125 138.011719 182.785156 138.109375 182.257812 138.207031 C 182.230469 138.140625 182.207031 138.078125 182.183594 138.011719 C 182.921875 137.632812 183.664062 137.25 184.402344 136.871094 C 184.375 136.785156 184.339844 136.703125 184.3125 136.617188 C 181.75 137.398438 179.1875 138.175781 176.625 138.953125 C 176.609375 138.914062 176.589844 138.875 176.574219 138.832031 C 177.582031 138.179688 178.585938 137.527344 179.59375 136.871094 C 179.554688 136.796875 179.515625 136.71875 179.476562 136.640625 C 176.148438 137.582031 172.820312 138.519531 169.496094 139.457031 C 169.472656 139.390625 169.449219 139.320312 169.429688 139.253906 C 170.488281 138.832031 171.550781 138.410156 172.609375 137.992188 C 168.621094 138.207031 164.953125 139.664062 161.21875 140.84375 C 161.1875 140.753906 161.152344 140.660156 161.121094 140.570312 C 163.742188 139.394531 166.359375 138.21875 168.976562 137.042969 C 168.949219 136.964844 168.921875 136.886719 168.894531 136.808594 C 166.246094 137.722656 163.597656 138.636719 160.8125 139.597656 C 163.109375 137.980469 165.277344 136.453125 167.449219 134.921875 C 167.386719 134.832031 167.324219 134.742188 167.261719 134.652344 C 164.535156 136.257812 161.8125 137.867188 159.085938 139.472656 C 159.0625 139.445312 159.039062 139.417969 159.011719 139.394531 C 160.933594 137.726562 162.847656 136.058594 164.765625 134.386719 C 164.707031 134.320312 164.648438 134.25 164.589844 134.183594 C 164.3125 134.335938 164.03125 134.484375 163.648438 134.691406 C 164.316406 133.34375 165.722656 132.519531 165.585938 130.765625 C 163.023438 132.035156 160.238281 132.53125 158.117188 134.476562 C 159.308594 134.058594 160.503906 133.644531 161.875 133.164062 C 160.738281 134.074219 159.765625 134.851562 158.792969 135.632812 C 158.839844 135.703125 158.890625 135.777344 158.9375 135.847656 C 159.445312 135.617188 159.957031 135.382812 160.464844 135.148438 C 160.050781 135.707031 159.574219 136.136719 159.074219 136.535156 C 156.292969 138.78125 154.117188 141.488281 152.726562 144.804688 C 151.648438 147.378906 150.496094 149.921875 149.417969 152.496094 C 148.609375 154.425781 148.960938 155.117188 151.019531 155.503906 C 154.730469 156.199219 157.613281 158.171875 159.941406 161.066406 C 161.496094 163.007812 162.625 165.175781 163.324219 167.550781 C 164.570312 171.792969 166.347656 175.757812 169.15625 179.214844 C 169.3125 179.40625 169.398438 179.652344 169.609375 180.046875 C 168.996094 179.871094 168.554688 179.75 168.292969 179.671875 C 169.167969 182.816406 170.09375 185.984375 170.921875 189.175781 C 171.75 192.355469 171.953125 195.5 170.015625 198.433594 C 169.792969 198.773438 169.691406 199.191406 169.515625 199.570312 C 167.550781 203.84375 165.582031 208.117188 163.519531 212.597656 C 161.363281 208.019531 159.867188 203.515625 159.074219 198.820312 C 158.410156 194.890625 158.011719 190.914062 157.507812 187.050781 Z M 121.574219 151.996094 C 116.933594 151.519531 112.320312 151.765625 107.730469 152.496094 C 109.496094 152.496094 111.261719 152.496094 113.023438 152.496094 C 113.03125 152.53125 113.039062 152.570312 113.046875 152.609375 C 112.097656 152.910156 111.148438 153.210938 110.199219 153.507812 C 111.464844 153.542969 112.679688 153.367188 113.902344 153.300781 C 115.183594 153.230469 116.472656 153.234375 117.753906 153.261719 C 118.945312 153.292969 120.132812 153.398438 121.320312 153.46875 C 115.875 153.933594 110.398438 155.359375 109.078125 156.722656 C 113.277344 156.054688 117.65625 155.359375 122.035156 154.660156 C 122.050781 154.757812 122.066406 154.855469 122.082031 154.953125 C 119.925781 155.667969 117.765625 156.378906 115.605469 157.09375 C 115.617188 157.105469 115.628906 157.121094 115.640625 157.132812 C 120.792969 156.179688 125.941406 155.222656 131.09375 154.269531 C 129.433594 153.679688 127.722656 153.25 126.023438 152.789062 C 125.496094 152.644531 124.996094 152.414062 124.484375 152.222656 C 125.804688 152.433594 127.121094 152.644531 128.441406 152.855469 C 119.921875 148.308594 107.605469 149.46875 99.921875 153.300781 C 105.269531 151.761719 110.46875 150.980469 115.785156 151.273438 C 117.722656 151.382812 119.644531 151.746094 121.574219 151.996094 Z M 136.789062 164.375 C 137.382812 164.488281 137.972656 164.605469 138.605469 164.726562 C 138.378906 164.355469 138.167969 164.007812 137.832031 163.460938 C 138.511719 163.648438 138.988281 163.777344 139.652344 163.957031 C 139.234375 163.523438 138.957031 163.230469 138.636719 162.898438 C 138.890625 162.820312 139.085938 162.761719 139.421875 162.660156 C 138.910156 162.21875 138.515625 161.882812 138.101562 161.523438 C 138.34375 161.449219 138.5625 161.382812 138.8125 161.304688 C 136.914062 159.421875 131.230469 159.308594 130.296875 161.148438 C 133.539062 160.625 135.550781 160.972656 136.671875 162.191406 C 135.8125 162.246094 134.886719 162.304688 133.960938 162.363281 C 133.960938 162.414062 133.964844 162.464844 133.964844 162.511719 C 134.40625 162.621094 134.847656 162.734375 135.421875 162.878906 C 134.753906 163.144531 134.246094 163.347656 133.820312 163.519531 C 134.828125 163.816406 135.828125 164.113281 136.828125 164.40625 C 135.117188 164.214844 133.421875 164.148438 131.796875 164.949219 C 133.746094 164.949219 135.652344 164.949219 137.769531 164.949219 C 137.320312 164.6875 137.054688 164.53125 136.789062 164.375 Z M 114.847656 168.007812 C 114.554688 168.347656 114.257812 168.691406 113.960938 169.03125 C 115.035156 168.851562 115.976562 168.371094 116.972656 168.136719 C 117.828125 167.933594 118.777344 167.851562 119.632812 167.996094 C 121.128906 168.253906 122.585938 168.730469 124.046875 169.109375 C 121.441406 167.488281 118.640625 166.867188 115.578125 167.605469 C 117.625 166.5 119.824219 166.492188 122.09375 166.71875 C 121.386719 166.28125 120.679688 165.929688 119.933594 165.75 C 116.355469 164.890625 113.277344 167.105469 109.882812 167.46875 C 110.78125 167.523438 111.679688 167.578125 112.578125 167.628906 C 112.59375 167.726562 112.609375 167.824219 112.625 167.921875 C 111.671875 168.316406 110.71875 168.707031 109.65625 169.144531 C 110.042969 169.144531 110.34375 169.203125 110.609375 169.132812 C 112.027344 168.777344 113.4375 168.386719 114.847656 168.007812 Z M 155.542969 130.722656 C 154.3125 129.425781 152.984375 128.332031 152.835938 126.21875 C 153.375 126.585938 153.710938 126.796875 154.023438 127.035156 C 155.550781 128.191406 157.214844 128.3125 158.796875 127.347656 C 160.464844 126.332031 162.023438 125.125 163.570312 123.921875 C 165.539062 122.382812 167.464844 120.75 170.027344 120.339844 C 171.242188 120.144531 172.515625 120.074219 173.742188 120.191406 C 178.648438 120.648438 182.414062 118.738281 185.296875 114.863281 C 185.445312 114.664062 185.640625 114.496094 185.8125 114.3125 C 185.925781 114.371094 186.042969 114.429688 186.160156 114.492188 C 185.6875 115.53125 185.214844 116.570312 184.699219 117.703125 C 186.863281 117.039062 188.554688 115.214844 191.222656 115.074219 C 190.445312 115.988281 189.855469 116.683594 189.03125 117.652344 C 190.65625 116.917969 191.980469 116.191406 193.457031 116.683594 C 193.507812 116.808594 193.558594 116.9375 193.605469 117.070312 C 192.664062 117.613281 191.71875 118.160156 190.578125 118.820312 C 192.703125 119.320312 194.585938 119.285156 196.527344 118.957031 C 198.210938 118.671875 200 118.382812 201.652344 118.652344 C 203.148438 118.898438 204.585938 119.789062 205.929688 120.59375 C 208.367188 122.054688 210.792969 123.496094 213.664062 123.925781 C 214.515625 124.050781 215.371094 124.148438 216.234375 124.457031 C 215.335938 124.644531 214.441406 124.828125 213.445312 125.03125 C 215.589844 125.574219 217.839844 125.253906 219.96875 126.695312 C 218.453125 126.980469 217.226562 127.214844 215.996094 127.449219 C 215.996094 127.519531 215.996094 127.59375 215.992188 127.664062 C 216.226562 127.742188 216.453125 127.878906 216.6875 127.890625 C 223.378906 128.253906 230.054688 128.390625 236.558594 126.347656 C 246.265625 123.296875 251.925781 116.769531 253.394531 106.675781 C 253.730469 104.359375 253.980469 102.03125 254.277344 99.710938 C 254.335938 99.265625 254.398438 98.8125 254.507812 98.375 C 254.765625 97.335938 255.046875 96.199219 256.316406 96.042969 C 257.625 95.878906 258.140625 96.964844 258.550781 97.9375 C 260.859375 103.386719 261.679688 109.09375 261.417969 114.980469 C 260.882812 127.058594 251.980469 140.261719 235.871094 143.929688 C 232.246094 144.753906 228.503906 145.074219 224.765625 145.632812 C 224.878906 145.773438 225.101562 146.085938 225.347656 146.378906 C 227.0625 148.425781 229.046875 150.160156 231.417969 151.40625 C 231.828125 151.621094 232.449219 151.71875 232.875 151.578125 C 235.097656 150.851562 237.292969 150.042969 239.484375 149.234375 C 239.976562 149.054688 240.46875 148.816406 240.878906 148.5 C 245.863281 144.660156 251.589844 142.828125 257.785156 142.457031 C 265.964844 141.964844 273.804688 143.355469 281.140625 147.140625 C 282.042969 147.605469 282.921875 148.136719 283.746094 148.730469 C 285.941406 150.308594 286.457031 152.253906 285.238281 154.667969 C 283.734375 157.660156 281.46875 160.03125 278.820312 162.039062 C 275.785156 164.339844 272.417969 165.710938 268.542969 165.621094 C 268.367188 165.617188 268.183594 165.652344 267.964844 165.675781 C 268.96875 166.761719 269.980469 167.746094 270.859375 168.835938 C 271.675781 169.847656 271.507812 170.242188 270.257812 170.515625 C 267.3125 171.160156 264.582031 172.367188 262.027344 173.90625 C 253.46875 179.070312 242.222656 177.34375 235.285156 171.316406 C 233.828125 170.050781 232.273438 169.199219 230.289062 169.351562 C 230.175781 169.363281 230.058594 169.367188 229.953125 169.402344 C 229.890625 169.421875 229.839844 169.492188 229.675781 169.636719 C 230.378906 170.597656 231.09375 171.578125 231.808594 172.554688 C 231.757812 172.632812 231.707031 172.714844 231.652344 172.792969 C 229.277344 171.789062 226.898438 170.785156 224.519531 169.78125 C 224.195312 171.152344 223.703125 172.382812 223.675781 173.625 C 223.660156 174.511719 224.238281 175.421875 224.597656 176.300781 C 224.941406 177.148438 224.9375 178.089844 226.15625 178.542969 C 227.679688 179.113281 229.148438 180.003906 230.441406 181.011719 C 234.554688 184.210938 236.835938 188.671875 238.632812 193.421875 C 240.859375 199.3125 242.050781 205.457031 242.90625 211.667969 C 244.019531 219.769531 244.546875 227.90625 244.078125 236.085938 C 243.886719 239.363281 243.589844 242.640625 243.335938 245.914062 C 243.328125 246.007812 243.261719 246.097656 243.128906 246.417969 C 242.738281 244.257812 242.417969 242.3125 242.035156 240.382812 C 241.179688 236.050781 240.242188 231.734375 238.382812 227.695312 C 237.871094 226.578125 237.195312 225.507812 236.429688 224.539062 C 235.960938 223.941406 235.183594 223.585938 234.320312 222.960938 C 234.917969 225.167969 235.519531 226.984375 235.898438 228.84375 C 236.789062 233.253906 236.707031 237.714844 236.292969 242.164062 C 235.933594 246.035156 235.425781 249.894531 234.976562 253.757812 C 234.9375 254.085938 234.824219 254.402344 234.699219 254.917969 C 234.332031 251.667969 234.09375 248.613281 233.621094 245.589844 C 233.257812 243.289062 232.699219 241.007812 232.035156 238.777344 C 231.574219 237.226562 230.792969 235.78125 229.246094 234.929688 C 229.046875 234.820312 228.910156 234.378906 228.9375 234.109375 C 229.53125 228.117188 229.667969 222.117188 229.324219 216.109375 C 228.890625 208.636719 228.078125 201.214844 226.179688 193.953125 C 226.078125 193.566406 225.953125 193.191406 225.726562 192.835938 C 225.960938 194.734375 226.214844 196.636719 226.425781 198.539062 C 227.351562 206.941406 227.3125 215.367188 226.734375 223.785156 C 226.285156 230.300781 225.707031 236.8125 224.992188 243.300781 C 224.382812 248.863281 223.230469 254.34375 221.144531 259.5625 C 218.816406 265.375 215.121094 270.347656 211.199219 275.15625 C 210.542969 275.960938 209.820312 276.707031 209.207031 277.386719 C 209.679688 271.867188 210.226562 266.347656 210.59375 260.8125 C 210.75 258.410156 210.554688 255.984375 210.476562 253.566406 C 210.460938 253.050781 210.332031 252.515625 210.144531 252.03125 C 210.023438 251.71875 209.703125 251.484375 209.472656 251.214844 C 209.234375 251.480469 208.992188 251.742188 208.753906 252.011719 C 208.730469 252.039062 208.722656 252.082031 208.71875 252.117188 C 207.820312 258 204.070312 262.519531 201.320312 267.511719 C 200.152344 269.625 198.894531 271.6875 197.683594 273.777344 C 197.5625 273.988281 197.472656 274.21875 197.433594 274.472656 C 200.945312 270.15625 203.882812 265.382812 208.261719 261.757812 C 208.195312 261.980469 208.171875 262.230469 208.058594 262.425781 C 205.460938 266.855469 202.867188 271.28125 200.242188 275.695312 C 199.839844 276.371094 199.339844 277.003906 198.804688 277.582031 C 197.367188 279.140625 195.6875 279.429688 193.9375 278.214844 C 192.773438 277.40625 191.714844 276.390625 190.789062 275.3125 C 188.164062 272.261719 185.292969 269.523438 181.980469 267.199219 C 180.5625 266.207031 179.398438 264.78125 178.316406 263.394531 C 177.21875 261.984375 176.921875 260.257812 177.074219 258.457031 C 177.101562 258.160156 176.933594 257.722656 176.703125 257.546875 C 171.976562 253.972656 169.667969 249.105469 169.015625 243.335938 C 168.941406 242.667969 168.871094 241.996094 168.800781 241.339844 C 167.375 241.207031 166.003906 241.207031 164.6875 240.933594 C 160.15625 239.988281 157.769531 235.9375 158.925781 231.28125 C 159.089844 230.625 159.25 229.941406 159.566406 229.355469 C 161.042969 226.632812 161.539062 223.691406 161.734375 220.648438 C 161.820312 219.347656 162.234375 218.066406 162.449219 216.769531 C 162.5 216.460938 162.464844 216.03125 162.285156 215.800781 C 157.355469 209.5 155.058594 202.210938 154.277344 194.367188 C 154.105469 192.652344 153.777344 191.042969 152.75 189.597656 C 152.144531 188.742188 151.714844 187.757812 151.207031 186.832031 C 149.703125 184.085938 149.523438 181.230469 150.582031 178.308594 C 150.859375 177.550781 150.859375 176.957031 150.460938 176.207031 C 149.921875 175.191406 149.632812 174.042969 149.167969 172.773438 C 147.167969 173.984375 145.128906 175.222656 143.089844 176.457031 C 143.015625 176.410156 142.9375 176.363281 142.859375 176.320312 C 143.359375 175.289062 143.855469 174.257812 144.351562 173.226562 C 144.285156 173.113281 144.21875 172.996094 144.152344 172.878906 C 143.332031 173.132812 142.433594 173.253906 141.710938 173.671875 C 140.707031 174.253906 139.851562 175.085938 138.90625 175.773438 C 131.128906 181.382812 122.875 182.828125 114.003906 178.539062 C 111.414062 177.285156 108.796875 176.148438 105.925781 175.726562 C 105.003906 175.589844 104.808594 175.097656 105.367188 174.421875 C 106.15625 173.464844 107.03125 172.578125 107.890625 171.683594 C 108.167969 171.394531 108.519531 171.175781 108.980469 170.808594 C 101.320312 171.757812 93.308594 167.480469 89.789062 160.710938 C 88.59375 158.410156 89.011719 156.492188 91.164062 154.980469 C 95.808594 151.714844 101.03125 149.792969 106.539062 148.621094 C 113.574219 147.117188 120.566406 147.175781 127.398438 149.695312 C 128.730469 150.1875 130.0625 150.820312 131.21875 151.636719 C 134.125 153.6875 137.59375 154.074219 140.84375 155.105469 C 141.09375 155.183594 141.464844 155.117188 141.703125 154.980469 C 144.515625 153.347656 146.8125 151.171875 148.707031 148.292969 C 147.769531 148.292969 147 148.28125 146.230469 148.292969 C 140.789062 148.386719 135.398438 147.964844 130.351562 145.792969 C 120.101562 141.371094 114.136719 133.480469 112.347656 122.539062 C 111.234375 115.734375 112.316406 109.078125 114.597656 102.609375 C 114.820312 101.972656 115.058594 101.28125 115.496094 100.800781 C 115.933594 100.324219 116.660156 99.761719 117.199219 99.820312 C 117.734375 99.878906 118.476562 100.578125 118.636719 101.136719 C 119.023438 102.5 119.132812 103.941406 119.347656 105.351562 C 119.851562 108.628906 120.039062 111.992188 120.917969 115.164062 C 123.425781 124.234375 129.582031 129.367188 138.839844 130.851562 C 144.367188 131.738281 149.875 131.386719 155.542969 130.722656 Z M 155.542969 130.722656 " fill-opacity="1" fill-rule="evenodd"/></g><path fill="#d13627" d="M 205.191406 221.222656 C 204.367188 221.726562 203.769531 222.105469 203.160156 222.46875 C 202.390625 222.929688 201.550781 223.304688 200.871094 223.871094 C 200.554688 224.132812 200.28125 224.996094 200.4375 225.164062 C 200.753906 225.5 201.371094 225.613281 201.882812 225.679688 C 202.117188 225.710938 202.421875 225.445312 202.644531 225.261719 C 203.859375 224.253906 204.574219 222.925781 205.191406 221.222656 Z M 171.847656 222.699219 C 172.523438 224.257812 173.335938 225.53125 174.582031 226.484375 C 175.425781 227.128906 176.441406 227.109375 176.777344 226.417969 C 177.230469 225.476562 176.484375 225.027344 175.828125 224.675781 C 174.578125 224.003906 173.289062 223.410156 171.847656 222.699219 Z M 201.546875 211.867188 C 201.816406 211.984375 202.0625 212.089844 202.308594 212.195312 C 202.296875 212.246094 202.285156 212.292969 202.273438 212.34375 C 200.675781 212.34375 199.082031 212.34375 197.390625 212.34375 C 198.8125 212.5625 200.148438 212.761719 201.484375 212.964844 C 201.480469 213.070312 201.476562 213.171875 201.472656 213.273438 C 198.507812 213.273438 195.546875 213.273438 192.582031 213.273438 C 192.582031 213.347656 192.578125 213.421875 192.578125 213.496094 C 194.582031 213.691406 196.582031 213.882812 198.582031 214.078125 C 198.582031 214.175781 198.578125 214.277344 198.574219 214.375 C 195.777344 214.375 192.976562 214.375 190.179688 214.375 C 190.179688 214.449219 190.179688 214.523438 190.179688 214.601562 C 191.855469 214.792969 193.53125 214.984375 195.207031 215.175781 C 195.199219 215.246094 195.191406 215.316406 195.183594 215.390625 C 193.164062 215.285156 191.140625 215.183594 189.117188 215.078125 C 189.105469 215.132812 189.097656 215.183594 189.085938 215.234375 C 189.75 215.371094 190.417969 215.507812 191.082031 215.640625 C 191.082031 215.726562 191.078125 215.8125 191.078125 215.894531 C 188.949219 215.894531 186.824219 215.894531 184.691406 215.894531 C 185.410156 215.699219 186.15625 215.496094 186.902344 215.292969 C 186.894531 215.230469 186.886719 215.164062 186.878906 215.101562 C 185.183594 215.347656 183.484375 215.589844 181.789062 215.835938 C 181.78125 215.785156 181.769531 215.730469 181.761719 215.675781 C 183.25 215.3125 184.738281 214.949219 186.226562 214.585938 C 186.222656 214.535156 186.21875 214.484375 186.214844 214.429688 C 183.332031 214.742188 180.445312 215.054688 177.5625 215.363281 C 177.550781 215.296875 177.539062 215.222656 177.523438 215.15625 C 179.242188 214.824219 180.960938 214.496094 182.679688 214.164062 C 182.671875 214.101562 182.667969 214.042969 182.660156 213.980469 C 180.121094 214.199219 177.582031 214.417969 175.042969 214.636719 C 175.023438 214.5625 175.003906 214.488281 174.984375 214.414062 C 176.09375 214.121094 177.199219 213.828125 178.304688 213.535156 C 178.300781 213.507812 178.296875 213.476562 178.292969 213.445312 C 176.824219 213.570312 175.355469 213.691406 173.886719 213.816406 C 173.859375 213.757812 173.832031 213.703125 173.804688 213.644531 C 174.109375 213.433594 174.410156 213.21875 174.726562 212.996094 C 173.304688 212.933594 171.921875 213.925781 171.722656 215.136719 C 171.507812 216.453125 172.226562 217.367188 173.835938 217.890625 C 175.226562 218.34375 176.691406 218.675781 177.980469 219.339844 C 180.949219 220.875 182.179688 224.492188 180.953125 227.621094 C 179.683594 230.863281 176.390625 232.632812 173.085938 231.71875 C 170.042969 230.878906 168.621094 228.488281 167.902344 225.660156 C 165.578125 216.496094 172.179688 208.660156 181.941406 209.035156 C 183.492188 209.09375 185.070312 209.507812 186.546875 210.015625 C 187.527344 210.351562 188.273438 210.375 189.199219 209.917969 C 195.261719 206.917969 203.085938 208.597656 207.175781 213.722656 C 209.992188 217.253906 210.488281 223.515625 208.261719 227.453125 C 206.941406 229.789062 204.429688 231.109375 201.929688 230.78125 C 199.054688 230.40625 196.671875 228.292969 196.03125 225.550781 C 195.382812 222.761719 196.289062 220 198.570312 218.566406 C 199.894531 217.734375 201.417969 217.214844 202.863281 216.582031 C 204.304688 215.953125 204.894531 215.050781 204.613281 213.816406 C 204.335938 212.605469 202.988281 211.738281 201.546875 211.867188 Z M 201.546875 211.867188 " fill-opacity="1" fill-rule="evenodd"/><path fill="#d13627" d="M 188.707031 230.664062 C 188.820312 230 188.933594 229.332031 189.078125 228.5 C 189.40625 229.429688 189.683594 230.222656 189.964844 231.019531 C 190.039062 231.015625 190.113281 231.011719 190.183594 231.007812 C 190.222656 230.253906 190.261719 229.496094 190.300781 228.742188 C 190.34375 228.734375 190.382812 228.722656 190.425781 228.710938 C 190.691406 229.507812 190.957031 230.304688 191.226562 231.101562 C 191.292969 231.085938 191.359375 231.074219 191.429688 231.0625 C 191.46875 230.382812 191.507812 229.703125 191.550781 229.019531 C 191.625 229 191.699219 228.980469 191.769531 228.960938 C 192.238281 230.097656 192.707031 231.238281 193.175781 232.375 C 193.230469 232.359375 193.28125 232.34375 193.335938 232.328125 C 193.335938 231.246094 193.335938 230.160156 193.335938 229.074219 C 193.382812 229.0625 193.429688 229.054688 193.480469 229.042969 C 194.003906 230.617188 194.527344 232.195312 195.050781 233.769531 C 195.09375 233.75 195.136719 233.734375 195.179688 233.71875 C 195.117188 232.566406 195.054688 231.417969 194.992188 230.265625 C 195.054688 230.253906 195.117188 230.242188 195.175781 230.234375 C 195.664062 231.480469 196.15625 232.726562 196.644531 233.972656 C 196.710938 233.957031 196.777344 233.941406 196.847656 233.925781 C 196.847656 233.199219 196.847656 232.46875 196.847656 231.738281 C 196.914062 231.730469 196.976562 231.71875 197.042969 231.707031 C 197.382812 233.046875 197.71875 234.382812 198.058594 235.722656 C 198.144531 235.71875 198.230469 235.714844 198.316406 235.707031 C 198.371094 234.730469 198.425781 233.753906 198.480469 232.777344 C 198.53125 232.757812 198.585938 232.742188 198.636719 232.726562 C 199.054688 233.863281 199.472656 234.996094 199.894531 236.132812 C 199.953125 236.113281 200.007812 236.09375 200.066406 236.078125 C 200.015625 235.304688 199.964844 234.527344 199.917969 233.757812 C 199.980469 233.742188 200.046875 233.726562 200.113281 233.710938 C 200.378906 234.480469 200.644531 235.25 200.910156 236.015625 C 200.984375 236.011719 201.0625 236.003906 201.136719 235.996094 C 201.210938 235.550781 201.285156 235.101562 201.417969 234.308594 C 201.898438 235.191406 202.234375 235.808594 202.707031 236.675781 C 202.769531 235.957031 202.808594 235.53125 202.871094 234.8125 C 203.078125 235.617188 203.210938 236.136719 203.34375 236.660156 C 194.640625 236.929688 185.933594 237.203125 177.085938 237.476562 C 177.363281 236.308594 177.597656 235.304688 177.835938 234.300781 C 177.921875 234.300781 178.007812 234.304688 178.09375 234.304688 C 178.195312 234.980469 178.300781 235.652344 178.402344 236.328125 C 178.519531 236.34375 178.636719 236.363281 178.757812 236.378906 C 178.957031 235.445312 179.15625 234.515625 179.414062 233.324219 C 179.542969 233.890625 179.640625 234.25 179.707031 234.613281 C 179.78125 235.007812 179.828125 235.40625 180.117188 235.804688 C 180.296875 234.632812 180.476562 233.460938 180.65625 232.285156 C 180.726562 232.269531 180.792969 232.253906 180.859375 232.238281 C 181.039062 233.078125 181.214844 233.914062 181.453125 235.027344 C 181.785156 233.507812 182.070312 232.210938 182.359375 230.914062 C 182.410156 230.921875 182.460938 230.929688 182.511719 230.9375 C 182.636719 231.804688 182.761719 232.667969 182.886719 233.535156 C 182.9375 233.542969 182.988281 233.546875 183.039062 233.550781 C 183.335938 232.136719 183.628906 230.726562 183.921875 229.3125 C 183.988281 229.3125 184.050781 229.316406 184.117188 229.316406 C 184.253906 230.246094 184.390625 231.179688 184.554688 232.296875 C 184.867188 231.09375 185.136719 230.054688 185.4375 228.890625 C 185.703125 229.820312 185.933594 230.628906 186.242188 231.703125 C 186.445312 230.605469 186.609375 229.730469 186.820312 228.582031 C 187.015625 229.644531 187.164062 230.453125 187.3125 231.257812 C 187.375 231.265625 187.4375 231.269531 187.5 231.273438 C 187.652344 230.566406 187.800781 229.855469 187.949219 229.148438 C 188.027344 229.15625 188.105469 229.160156 188.179688 229.167969 C 188.285156 229.683594 188.386719 230.199219 188.488281 230.710938 C 188.558594 230.695312 188.632812 230.679688 188.707031 230.664062 Z M 188.707031 230.664062 " fill-opacity="1" fill-rule="evenodd"/><path fill="#d13627" d="M 175.105469 142.953125 C 179.933594 142.625 185.136719 146.570312 186.1875 151.269531 C 187.1875 146.53125 190.476562 145.128906 194.804688 145.277344 C 194.511719 145.382812 194.21875 145.484375 193.925781 145.59375 C 190.4375 146.882812 188.167969 149.269531 187.871094 153.046875 C 187.46875 158.085938 187.253906 163.140625 187.039062 168.191406 C 186.871094 172.191406 186.832031 176.195312 186.574219 180.207031 C 186.3125 177.898438 186.128906 175.578125 185.777344 173.28125 C 185.148438 169.183594 184.5625 165.074219 183.703125 161.019531 C 182.828125 156.886719 181.003906 153.144531 177.792969 149.828125 C 181.757812 152.1875 183.832031 156.175781 185.367188 163.726562 C 185.175781 161.269531 185.03125 158.808594 184.785156 156.355469 C 184.609375 154.632812 184.398438 152.902344 184.03125 151.210938 C 183.117188 147.007812 180.394531 144.496094 176.34375 143.304688 C 175.988281 143.199219 175.632812 143.101562 175.105469 142.953125 Z M 175.105469 142.953125 " fill-opacity="1" fill-rule="evenodd"/><path fill="#d13627" d="M 214.964844 143.828125 C 201.945312 148.519531 196.949219 154.777344 193.910156 169.902344 C 194.078125 168.578125 194.160156 167.242188 194.425781 165.941406 C 194.996094 163.144531 195.417969 160.28125 196.335938 157.59375 C 198.941406 150.003906 204.671875 145.957031 212.261719 144.210938 C 213.03125 144.035156 213.820312 143.929688 214.597656 143.796875 C 214.703125 143.78125 214.820312 143.816406 214.964844 143.828125 Z M 214.964844 143.828125 " fill-opacity="1" fill-rule="evenodd"/><path fill="#d13627" d="M 180.769531 167.167969 C 177.203125 156.335938 169.8125 149.578125 159.113281 146.566406 C 161.492188 146.125 168.644531 148.535156 173.328125 153.019531 C 177.390625 156.910156 179.703125 161.703125 180.769531 167.167969 Z M 180.769531 167.167969 " fill-opacity="1" fill-rule="evenodd"/><path fill="#d13627" d="M 189.304688 160.472656 C 189.140625 156.238281 191.402344 151.542969 195.605469 146.847656 C 194.488281 147.53125 193.375 148.21875 192.242188 148.914062 C 193.695312 146.855469 200.722656 143.402344 203.625 143.375 C 195.65625 146.496094 191.257812 152.457031 189.304688 160.472656 Z M 189.304688 160.472656 " fill-opacity="1" fill-rule="evenodd"/><path fill="#d13627" d="M 184.304688 207.058594 C 186.96875 207.046875 189.242188 206.109375 191.351562 204.59375 C 192.988281 203.417969 194.894531 203.332031 196.777344 203.878906 C 198.125 204.269531 199.414062 204.867188 200.640625 205.597656 C 199.355469 205.386719 198.070312 205.128906 196.777344 204.976562 C 195.15625 204.785156 193.742188 205.433594 192.421875 206.28125 C 190.046875 207.804688 187.476562 207.960938 184.796875 207.425781 C 184.6875 207.402344 184.582031 207.355469 184.488281 207.296875 C 184.429688 207.265625 184.398438 207.1875 184.304688 207.058594 Z M 184.304688 207.058594 " fill-opacity="1" fill-rule="evenodd"/><path fill="#d13627" d="M 186.105469 148.839844 C 184.679688 145.757812 181.964844 144.085938 179.09375 142.511719 C 180.824219 142.652344 181.589844 143.175781 185.316406 146.621094 C 184.597656 144.726562 183.175781 143.390625 181.410156 142 C 182.359375 142.195312 183.054688 142.308594 183.730469 142.484375 C 184.414062 142.660156 185.082031 142.894531 185.792969 143.113281 C 185.695312 143.472656 185.621094 143.738281 185.496094 144.203125 C 186.5625 144.203125 187.523438 144.203125 188.601562 144.203125 C 187.703125 145.875 186.914062 147.339844 186.105469 148.839844 Z M 186.105469 148.839844 " fill-opacity="1" fill-rule="evenodd"/><path fill="#d13627" d="M 171.585938 147.917969 C 178.1875 150.328125 184.46875 161.964844 183.863281 170.609375 C 182.515625 161.554688 179.179688 153.578125 171.585938 147.917969 Z M 171.585938 147.917969 " fill-opacity="1" fill-rule="evenodd"/><path fill="#d13627" d="M 171.355469 174.546875 C 168.441406 174.425781 166.414062 172.964844 165.695312 170.476562 C 165.152344 168.601562 164.730469 166.695312 164.347656 164.757812 C 166.269531 168.273438 167.753906 172.074219 171.355469 174.546875 Z M 171.355469 174.546875 " fill-opacity="1" fill-rule="evenodd"/><path fill="#d13627" d="M 172.457031 206.882812 C 174.445312 205.9375 176.414062 204.941406 178.429688 204.054688 C 180.878906 202.976562 182.761719 204.152344 184.644531 205.871094 C 182.484375 205.660156 180.449219 205.148438 178.492188 205.359375 C 176.484375 205.574219 174.554688 206.492188 172.589844 207.105469 C 172.546875 207.03125 172.5 206.957031 172.457031 206.882812 Z M 172.457031 206.882812 " fill-opacity="1" fill-rule="evenodd"/><path fill="#d13627" d="M 203.378906 172.015625 C 205.964844 169.203125 206.8125 165.574219 208.273438 162.191406 C 207.914062 164.273438 207.523438 166.355469 207.214844 168.445312 C 206.882812 170.683594 205.183594 171.378906 203.378906 172.015625 Z M 203.378906 172.015625 " fill-opacity="1" fill-rule="evenodd"/><path fill="#d13627" d="M 177.066406 201.78125 C 178.453125 201.054688 179.792969 200.214844 181.234375 199.632812 C 183.246094 198.824219 184.898438 199.457031 186.304688 201.203125 C 184.894531 201.019531 183.304688 200.558594 181.765625 200.683594 C 180.203125 200.8125 178.691406 201.515625 177.160156 201.96875 C 177.128906 201.90625 177.097656 201.84375 177.066406 201.78125 Z M 177.066406 201.78125 " fill-opacity="1" fill-rule="evenodd"/><path fill="#d13627" d="M 173.609375 171.832031 C 175.527344 176.816406 174.710938 181.496094 172.023438 185.964844 C 173.660156 181.378906 174.6875 176.722656 173.609375 171.832031 Z M 173.609375 171.832031 " fill-opacity="1" fill-rule="evenodd"/><path fill="#d13627" d="M 174.097656 196.492188 C 176.167969 192.292969 177.191406 187.882812 176.789062 183.191406 C 178.003906 188.046875 176.898438 192.4375 174.097656 196.492188 Z M 174.097656 196.492188 " fill-opacity="1" fill-rule="evenodd"/><path fill="#d13627" d="M 190.183594 199.363281 C 191.28125 197.703125 192.277344 197.292969 193.917969 197.996094 C 195.34375 198.609375 196.667969 199.453125 197.980469 200.339844 C 195.410156 199.714844 193.0625 197.78125 190.183594 199.363281 Z M 190.183594 199.363281 " fill-opacity="1" fill-rule="evenodd"/><path fill="#d13627" d="M 201.144531 185.613281 C 199.195312 183.195312 197.492188 180.660156 197.886719 177.304688 C 198.273438 180.347656 199.863281 182.90625 201.144531 185.613281 Z M 201.144531 185.613281 " fill-opacity="1" fill-rule="evenodd"/><path fill="#d13627" d="M 196.390625 182.875 C 196.371094 186.308594 197.195312 189.542969 198.722656 192.609375 C 196.820312 190.664062 195.824219 186.484375 196.390625 182.875 Z M 196.390625 182.875 " fill-opacity="1" fill-rule="evenodd"/><path fill="#d13627" d="M 200.625 179.378906 C 199.199219 177.21875 198.742188 174.890625 199.234375 172.503906 C 199.675781 174.6875 200.140625 176.988281 200.625 179.378906 Z M 200.625 179.378906 " fill-opacity="1" fill-rule="evenodd"/><path fill="#d13627" d="M 156.890625 190.8125 C 157.363281 193.148438 157.839844 195.488281 158.3125 197.824219 C 158.195312 197.847656 158.078125 197.871094 157.960938 197.894531 C 157.507812 195.554688 157.058594 193.214844 156.605469 190.871094 C 156.699219 190.851562 156.796875 190.832031 156.890625 190.8125 Z M 156.890625 190.8125 " fill-opacity="1" fill-rule="evenodd"/><path fill="#d13627" d="M 182.574219 152.335938 C 180.738281 150.660156 179.0625 149.128906 177.414062 147.625 C 179.5 148.617188 181.152344 150.175781 182.574219 152.335938 Z M 182.574219 152.335938 " fill-opacity="1" fill-rule="evenodd"/><path fill="#d13627" d="M 176.980469 237.433594 C 176.574219 237.476562 176.261719 237.507812 175.859375 237.550781 C 176.105469 236.523438 176.324219 235.625 176.539062 234.730469 C 176.605469 234.726562 176.671875 234.722656 176.738281 234.71875 C 176.8125 235.5625 176.886719 236.40625 176.980469 237.433594 Z M 176.980469 237.433594 " fill-opacity="1" fill-rule="evenodd"/><path fill="#d13627" d="M 202.179688 170.457031 C 202.007812 168.828125 202.160156 167.289062 203.113281 165.789062 C 202.785156 167.429688 202.484375 168.949219 202.179688 170.457031 Z M 202.179688 170.457031 " fill-opacity="1" fill-rule="evenodd"/></svg>