<svg xmlns="http://www.w3.org/2000/svg" xmlns:xlink="http://www.w3.org/1999/xlink" zoomAndPan="magnify" preserveAspectRatio="xMidYMid meet" version="1.0" viewBox="46 6 270.72 319"><defs><clipPath id="c7a43a2795"><path d="M 46 6 L 316.71875 6 L 316.71875 325 L 46 325 Z M 46 6 " clip-rule="nonzero"/></clipPath></defs><g clip-path="url(#c7a43a2795)"><path fill="#a44243" d="M 309.78125 85.460938 C 307.058594 83.804688 304.230469 82.355469 301.292969 81.113281 C 298.359375 79.875 295.347656 78.855469 292.261719 78.058594 C 289.179688 77.261719 286.050781 76.691406 282.882812 76.355469 C 279.714844 76.015625 276.539062 75.910156 273.359375 76.039062 C 286.671875 55.882812 270.058594 20.746094 246.34375 18.964844 C 236.328125 19.640625 235.144531 34.871094 233.609375 43.90625 C 230.113281 51.699219 218.886719 53.289062 212.050781 56.785156 C 204.941406 51.34375 195.117188 45.734375 185.609375 46.449219 C 177.269531 45.699219 168.929688 45.746094 160.597656 46.59375 C 152.261719 47.441406 144.085938 49.074219 136.066406 51.492188 C 136.230469 48.382812 136.164062 45.28125 135.863281 42.183594 C 135.558594 39.082031 135.023438 36.023438 134.257812 33.007812 C 133.492188 29.988281 132.5 27.046875 131.289062 24.179688 C 130.078125 21.3125 128.65625 18.554688 127.023438 15.90625 C 122.179688 4.46875 101.96875 1.316406 100.6875 18.726562 C 101.660156 41.847656 74.097656 60.042969 80.402344 82.699219 C 64.957031 85.820312 45.367188 92.300781 46.863281 113.484375 C 50.886719 138.941406 66.996094 168.816406 96.902344 168.589844 C 88.878906 196.511719 84.71875 227.53125 110.414062 247.890625 C 120.496094 256.171875 132.945312 260.4375 141.082031 270.941406 C 141.742188 271.917969 142.496094 272.816406 143.339844 273.636719 C 144.183594 274.457031 145.105469 275.179688 146.101562 275.808594 C 147.09375 276.4375 148.144531 276.957031 149.246094 277.367188 C 150.347656 277.777344 151.480469 278.070312 152.644531 278.242188 C 157.617188 298.007812 171.035156 313.121094 190.210938 313.1875 C 200.585938 331 228.683594 326.316406 236.746094 307.808594 C 259.078125 302.6875 260.355469 275.523438 257.261719 256.40625 C 253.0625 240.039062 239.074219 229.4375 239.773438 212.703125 C 240.277344 194.535156 250.804688 177.21875 247.941406 158.242188 C 280.328125 161.410156 299.128906 130.589844 311.96875 106.136719 C 312.375 105.820312 312.761719 105.476562 313.125 105.105469 C 313.488281 104.738281 313.824219 104.347656 314.140625 103.9375 C 314.453125 103.527344 314.742188 103.097656 315 102.648438 C 315.257812 102.203125 315.488281 101.738281 315.691406 101.261719 C 315.890625 100.785156 316.0625 100.300781 316.203125 99.800781 C 316.34375 99.300781 316.449219 98.796875 316.527344 98.285156 C 316.601562 97.773438 316.644531 97.257812 316.65625 96.742188 C 316.667969 96.222656 316.644531 95.707031 316.589844 95.191406 C 316.535156 94.675781 316.449219 94.167969 316.328125 93.664062 C 316.210938 93.160156 316.0625 92.667969 315.878906 92.183594 C 315.699219 91.695312 315.488281 91.226562 315.246094 90.769531 C 315.007812 90.308594 314.738281 89.867188 314.441406 89.445312 C 314.144531 89.019531 313.824219 88.617188 313.476562 88.234375 C 313.128906 87.851562 312.757812 87.492188 312.363281 87.15625 C 311.972656 86.820312 311.558594 86.507812 311.128906 86.226562 C 310.695312 85.941406 310.246094 85.6875 309.78125 85.460938 Z M 309.78125 85.460938 " fill-opacity="1" fill-rule="nonzero"/></g><path fill="#fff8e1" d="M 232.253906 80.96875 C 229.941406 78.457031 227.949219 75.71875 226.269531 72.746094 C 225.054688 71.050781 225.125 71.070312 222.738281 71.488281 C 220.6875 71.722656 218.726562 71.390625 216.867188 70.488281 C 216.257812 70.238281 215.070312 70.941406 214.894531 69.597656 C 214.730469 68.863281 214.511719 68.148438 214.238281 67.445312 C 215.730469 66.640625 217.273438 65.957031 218.871094 65.390625 C 223.011719 63.957031 227.011719 62.203125 230.867188 60.117188 C 234.484375 58.492188 237.65625 56.234375 240.375 53.34375 C 242.199219 51.308594 243.367188 48.945312 243.882812 46.261719 C 244.648438 43.433594 245.097656 40.5625 245.238281 37.636719 C 245.457031 35.882812 245.90625 34.183594 246.578125 32.546875 C 246.65625 32.273438 247.007812 32.050781 247.023438 31.792969 C 247.078125 30.871094 246.824219 29.574219 247.914062 29.40625 C 249 29.378906 249.988281 29.671875 250.878906 30.292969 C 252.09375 31.035156 253.199219 31.917969 254.183594 32.945312 C 256.628906 35.332031 258.914062 37.855469 261.039062 40.527344 C 262.417969 42.4375 263.667969 44.429688 264.796875 46.496094 C 265.769531 48.636719 266.539062 50.84375 267.113281 53.121094 C 267.632812 54.566406 266.945312 56.367188 267.835938 57.875 C 266.949219 59.710938 267.632812 61.796875 267.09375 63.574219 C 266.722656 65.496094 266.125 67.347656 265.304688 69.125 C 264.339844 70.75 263.132812 72.242188 262.164062 73.832031 C 259.558594 77.421875 256.339844 80.328125 252.507812 82.546875 C 249.71875 84.777344 246.605469 86.359375 243.167969 87.304688 C 242.613281 87.484375 242.082031 87.726562 241.582031 88.027344 C 238.34375 89.585938 235.113281 91.167969 231.859375 92.695312 C 231.109375 92.992188 230.339844 93.242188 229.558594 93.4375 L 228.722656 92.601562 C 230.023438 90.917969 231.445312 89.339844 232.988281 87.875 C 236.839844 84.695312 240.871094 81.765625 245.089844 79.09375 C 248.992188 77 252.757812 74.683594 256.382812 72.140625 C 257.78125 71.300781 258.988281 70.246094 260.015625 68.976562 C 261.039062 67.710938 261.816406 66.304688 262.34375 64.761719 C 263.011719 61.75 262.886719 58.777344 261.96875 55.835938 C 260.140625 52.015625 258.019531 48.367188 255.601562 44.886719 C 253.722656 42.230469 252.003906 39.472656 250.449219 36.613281 C 249.964844 37.925781 249.910156 39.253906 250.296875 40.597656 C 250.777344 41.851562 250 42.789062 250.148438 43.90625 C 250.347656 45.242188 250.171875 46.53125 249.621094 47.765625 C 249.261719 48.9375 249.054688 50.136719 248.992188 51.363281 C 249.765625 52.152344 250.421875 53.027344 250.953125 53.996094 C 251.488281 54.964844 251.882812 55.984375 252.136719 57.058594 C 252.390625 58.136719 252.5 59.226562 252.453125 60.328125 C 252.410156 61.433594 252.222656 62.511719 251.882812 63.5625 C 250.003906 61.386719 248.308594 59.417969 246.382812 57.191406 L 242.671875 61.664062 C 243.335938 62.269531 243.835938 62.992188 244.167969 63.832031 C 244.5 64.671875 244.628906 65.542969 244.554688 66.441406 C 244.40625 68.21875 244.601562 70.019531 244.480469 71.800781 C 244.441406 72.402344 243.902344 72.972656 243.480469 73.769531 C 240.695312 71.667969 238.65625 68.996094 237.363281 65.753906 C 235.988281 67.578125 233.816406 67.648438 231.941406 68.59375 C 232.351562 69.960938 232.84375 71.320312 233.164062 72.722656 C 233.472656 74.085938 233.617188 75.484375 233.808594 76.871094 C 233.910156 77.644531 233.820312 78.390625 233.546875 79.117188 C 233.269531 79.84375 232.839844 80.460938 232.253906 80.96875 Z M 232.253906 80.96875 " fill-opacity="1" fill-rule="nonzero"/><path fill="#fff8e1" d="M 231.160156 150.160156 L 233.171875 148.503906 C 233.671875 149.007812 234.605469 148.917969 235.152344 150.042969 C 235.957031 151.941406 236.546875 153.902344 236.925781 155.929688 C 237.695312 160.753906 237.90625 165.601562 237.5625 170.476562 C 237.457031 171.460938 237.257812 172.425781 236.972656 173.371094 C 236.8125 174.242188 237.359375 175.285156 236.34375 175.949219 C 236.386719 177.578125 236.183594 179.171875 235.742188 180.738281 C 234.996094 183.6875 234.308594 186.648438 233.464844 189.574219 C 232.574219 192.667969 231.484375 195.746094 230.792969 198.847656 C 229.621094 202.679688 229.144531 206.597656 229.367188 210.597656 C 229.484375 211.5 228.738281 212.644531 229.070312 213.355469 C 229.402344 214.230469 229.503906 215.132812 229.375 216.0625 C 229.511719 219.878906 230.207031 223.589844 231.460938 227.195312 C 232.347656 230.191406 233.558594 233.050781 235.101562 235.765625 C 236.65625 238.605469 238.332031 241.378906 240.117188 244.089844 C 242.949219 248.660156 245.230469 253.496094 246.957031 258.59375 C 247.371094 260.578125 247.597656 262.582031 247.644531 264.609375 C 247.742188 269.019531 247.652344 273.4375 247.683594 277.851562 C 247.578125 280.566406 247.097656 283.210938 246.234375 285.785156 C 245.296875 288.378906 243.988281 290.765625 242.3125 292.957031 C 241.890625 293.671875 241.339844 294.257812 240.652344 294.722656 C 239.964844 295.183594 239.214844 295.476562 238.394531 295.601562 C 237.621094 295.765625 236.921875 296.089844 236.292969 296.570312 C 235.757812 297 235.167969 297.328125 234.519531 297.550781 C 233.871094 297.777344 233.207031 297.882812 232.519531 297.875 C 231.835938 297.863281 231.171875 297.738281 230.53125 297.496094 C 229.890625 297.253906 229.308594 296.910156 228.785156 296.464844 C 227.214844 295.070312 225.480469 293.925781 223.585938 293.023438 C 221.75 292.1875 221.617188 290.582031 221.960938 288.695312 C 223.453125 288.464844 224.929688 288.550781 226.386719 288.953125 C 227.84375 289.359375 229.152344 290.042969 230.316406 291.011719 C 230.550781 291.183594 230.800781 291.332031 231.0625 291.457031 C 231.324219 291.578125 231.597656 291.675781 231.882812 291.742188 C 232.164062 291.8125 232.449219 291.851562 232.742188 291.863281 C 233.03125 291.875 233.320312 291.855469 233.605469 291.8125 C 233.894531 291.765625 234.171875 291.691406 234.445312 291.589844 C 234.71875 291.488281 234.976562 291.359375 235.222656 291.203125 C 235.46875 291.050781 235.699219 290.875 235.910156 290.675781 C 236.121094 290.476562 236.3125 290.257812 236.480469 290.019531 C 238.636719 287.53125 240.183594 284.710938 241.121094 281.554688 C 241.640625 280.03125 241.949219 278.46875 242.046875 276.867188 C 242.027344 275.800781 242.550781 274.734375 242.605469 273.65625 C 242.9375 271.996094 242.871094 270.351562 242.40625 268.722656 C 241.636719 267.246094 242.8125 265.554688 241.453125 264.359375 C 241.292969 264.214844 241.355469 263.765625 241.378906 263.460938 C 241.25 260.558594 240.542969 257.804688 239.257812 255.199219 C 238.5625 253.058594 237.414062 251.132812 236.679688 249.003906 C 235.832031 246.910156 234.742188 244.949219 233.410156 243.121094 C 230.960938 239.339844 228.957031 235.332031 227.398438 231.101562 C 226.363281 228.367188 225.515625 225.582031 224.539062 222.832031 C 224.039062 221.417969 224.8125 219.753906 223.734375 218.4375 C 223.835938 214.722656 222.425781 211.03125 223.175781 207.363281 C 223.324219 203.960938 223.929688 200.644531 224.992188 197.410156 C 225.320312 194.554688 225.957031 191.769531 226.894531 189.050781 C 227.367188 186.230469 228.03125 183.453125 228.878906 180.71875 C 229.605469 176.757812 230.605469 172.871094 231.886719 169.050781 C 231.925781 168.957031 231.9375 168.855469 231.917969 168.753906 C 231.464844 166.667969 232.59375 164.753906 232.5625 162.707031 C 232.726562 160.609375 232.6875 158.515625 232.449219 156.421875 C 232.152344 154.835938 231.964844 153.234375 231.894531 151.617188 C 231.859375 151.175781 231.472656 150.757812 231.160156 150.160156 Z M 231.160156 150.160156 " fill-opacity="1" fill-rule="nonzero"/><path fill="#fff8e1" d="M 112.503906 16.5625 C 113.78125 17.011719 114.921875 17.691406 115.925781 18.597656 C 116.929688 19.507812 117.714844 20.578125 118.289062 21.808594 C 121.09375 26.433594 123.097656 31.386719 124.300781 36.667969 C 124.414062 38.367188 124.660156 40.042969 125.039062 41.703125 C 125.5 43.410156 125.628906 45.140625 125.425781 46.898438 C 125.652344 48.679688 125.636719 50.464844 125.386719 52.246094 C 124.894531 55.761719 123.90625 59.136719 122.425781 62.367188 C 120.148438 66.933594 117.597656 71.335938 114.765625 75.578125 C 114.285156 76.128906 113.730469 76.621094 113.054688 77.300781 C 112.8125 76.21875 112.414062 75.292969 113.378906 74.453125 C 114.289062 69.832031 115.742188 65.386719 117.738281 61.121094 C 118.367188 59.582031 119.035156 58.089844 119.746094 56.59375 C 120.417969 55.382812 120.828125 54.089844 120.976562 52.714844 C 121.050781 49.949219 122.730469 47.175781 121.039062 44.40625 C 120.625 41.277344 119.851562 38.238281 118.71875 35.296875 C 118.007812 32.304688 116.5 29.664062 115.511719 26.722656 C 115.464844 27.492188 115.402344 28.261719 115.371094 29.03125 C 115.199219 33.238281 114.277344 37.273438 112.613281 41.136719 C 112.078125 42.386719 111.40625 43.589844 110.992188 44.875 C 110.695312 46.03125 110.472656 47.203125 110.332031 48.390625 C 111.570312 49.300781 110.578125 50.742188 111.140625 51.839844 C 111.417969 52.371094 111.5625 52.941406 111.566406 53.542969 C 111.523438 55.988281 112.863281 58.136719 112.988281 60.550781 C 113.007812 60.941406 113.679688 61.296875 114.050781 61.667969 C 112.988281 62.582031 112.988281 62.582031 111.277344 62.683594 C 110.234375 61.722656 109.238281 60.707031 108.296875 59.644531 C 107.429688 58.449219 106.632812 57.214844 105.898438 55.933594 C 104.664062 58.140625 103.589844 60.054688 102.53125 61.980469 C 102.414062 62.1875 102.382812 62.40625 102.4375 62.636719 C 103.328125 65.625 104.371094 68.554688 105.5625 71.433594 C 106.308594 72.9375 107.300781 74.316406 108.226562 75.828125 L 107.539062 77.109375 C 106.8125 77.167969 105.863281 77.507812 104.980469 76.601562 C 104.660156 76.269531 103.945312 76.25 103.734375 75.894531 C 102.886719 74.453125 100.898438 74.359375 100.203125 72.691406 C 99.882812 71.921875 99.054688 71.363281 98.3125 70.550781 C 97.847656 71.367188 97.453125 72.214844 97.132812 73.097656 C 96.910156 73.949219 97.375 74.925781 96.523438 75.722656 C 96.363281 75.871094 96.9375 76.738281 97.089844 77.300781 C 97.359375 78.402344 97.816406 79.421875 98.464844 80.351562 C 99.113281 81.28125 99.910156 82.0625 100.851562 82.695312 C 103.515625 84.34375 106.28125 85.796875 109.148438 87.058594 C 110.949219 87.976562 111.25 88.578125 110.960938 90.351562 C 110.953125 90.53125 110.910156 90.703125 110.832031 90.867188 C 110.757812 91.03125 110.652344 91.179688 110.523438 91.304688 C 110.394531 91.429688 110.246094 91.527344 110.078125 91.59375 C 109.910156 91.664062 109.738281 91.699219 109.554688 91.703125 C 107.503906 91.84375 105.476562 91.675781 103.472656 91.195312 C 101.472656 90.710938 99.589844 89.941406 97.824219 88.878906 C 96.21875 87.777344 94.742188 86.53125 93.386719 85.132812 C 92.257812 84.117188 92.246094 82.332031 90.933594 81.425781 C 89.753906 78.519531 89.457031 75.523438 90.039062 72.441406 C 91.175781 68.476562 92.820312 64.738281 94.980469 61.226562 C 98.113281 55.679688 101.824219 50.476562 104.628906 44.738281 C 105.523438 42.902344 106.40625 41.0625 107.175781 39.171875 C 107.949219 37.273438 108.363281 35.257812 108.996094 33.308594 C 109.34375 31.527344 109.589844 29.734375 109.726562 27.921875 C 110.101562 25.976562 110.253906 24.003906 110.773438 22.066406 C 111.125 20.746094 111.140625 19.304688 111.609375 17.988281 C 111.855469 17.476562 112.152344 17.003906 112.503906 16.5625 Z M 115.144531 25.976562 L 115.371094 25.753906 C 115.238281 25.671875 115.097656 25.605469 114.949219 25.554688 C 114.894531 25.542969 114.808594 25.683594 114.742188 25.753906 Z M 115.144531 25.976562 " fill-opacity="1" fill-rule="nonzero"/><path fill="#fff8e1" d="M 216.953125 95.542969 C 216.035156 94.097656 215.246094 92.585938 214.59375 91.003906 C 213.566406 87.820312 211.699219 85.058594 210.476562 81.980469 C 209.824219 80.5625 209.105469 79.179688 208.3125 77.832031 C 206.671875 74.59375 204.398438 71.890625 201.492188 69.726562 C 199.3125 67.824219 196.910156 66.269531 194.289062 65.054688 C 193.425781 64.609375 192.527344 64.246094 191.597656 63.964844 C 190.238281 63.617188 188.855469 63.40625 187.453125 63.332031 C 184.625 63.238281 181.785156 63.234375 178.953125 63.332031 C 177.460938 63.382812 175.980469 63.734375 174.492188 63.933594 C 173.105469 64.121094 171.585938 63.425781 170.339844 64.558594 C 170.28125 64.613281 170.132812 64.558594 170.03125 64.566406 C 167.28125 64.777344 164.535156 65.128906 161.789062 65.136719 C 160.601562 65.292969 159.429688 65.53125 158.273438 65.851562 C 157.058594 65.828125 155.863281 65.980469 154.691406 66.308594 C 153.148438 66.742188 151.574219 66.980469 149.96875 67.023438 C 144.875 67.707031 140.042969 69.21875 135.460938 71.554688 C 132.453125 73.375 129.949219 75.734375 127.949219 78.628906 C 127.015625 80.15625 125.144531 81.027344 124.820312 83.011719 C 122.113281 86.542969 120.914062 90.890625 118.519531 94.59375 C 118.304688 96.644531 116.253906 97.535156 115.570312 99.566406 C 114.972656 99.058594 114.546875 98.640625 114.066406 98.300781 C 113.769531 98.078125 113.574219 97.785156 113.480469 97.421875 C 113.386719 97.058594 113.414062 96.707031 113.566406 96.367188 C 113.652344 95.78125 113.839844 95.230469 114.128906 94.714844 C 115.617188 91.96875 116.839844 89.105469 117.789062 86.128906 C 118.796875 83.957031 119.726562 81.679688 120.570312 79.398438 C 121.695312 76.980469 123.066406 74.710938 124.691406 72.597656 C 126.742188 69.734375 129.203125 67.285156 132.074219 65.25 C 134.949219 63.21875 138.074219 61.710938 141.453125 60.734375 C 144.421875 59.65625 147.640625 59.625 150.507812 58.261719 C 150.589844 58.21875 150.714844 58.261719 150.816406 58.253906 C 153.773438 58.046875 156.734375 57.863281 159.6875 57.613281 C 161.597656 57.457031 163.5 57.125 165.410156 57.015625 C 167.296875 57.175781 169.175781 57.136719 171.054688 56.90625 C 174.207031 56.339844 177.382812 56.175781 180.578125 56.40625 C 181.953125 56.363281 183.335938 56.871094 184.726562 56.96875 C 186.191406 56.902344 187.660156 56.925781 189.121094 57.046875 C 191.421875 57.507812 193.65625 58.1875 195.824219 59.085938 C 197.871094 60.027344 199.828125 61.132812 201.691406 62.398438 C 204.359375 63.9375 206.707031 65.871094 208.734375 68.195312 C 210.140625 69.871094 211.382812 71.664062 212.457031 73.574219 C 214.671875 77.878906 216.15625 82.421875 216.90625 87.207031 C 217.363281 89.984375 217.378906 92.761719 216.953125 95.542969 Z M 216.953125 95.542969 " fill-opacity="1" fill-rule="nonzero"/><path fill="#fff8e1" d="M 108.660156 164.351562 L 111.6875 164.351562 C 111.957031 165.613281 112.125 166.886719 112.1875 168.175781 C 112.0625 172.402344 111.996094 176.648438 111.492188 180.835938 C 111.300781 182.425781 111.136719 184.035156 110.914062 185.628906 C 110.777344 187.226562 110.542969 188.816406 110.214844 190.386719 C 109.585938 192.757812 110.21875 195.179688 109.601562 197.382812 C 109.128906 200.125 108.953125 202.886719 109.078125 205.667969 C 109.050781 209.707031 109.789062 213.605469 111.285156 217.359375 C 112.859375 221.140625 114.660156 224.8125 116.679688 228.371094 C 116.847656 228.730469 117.257812 228.972656 117.554688 229.269531 C 118.222656 229.941406 118.949219 230.5625 119.550781 231.285156 C 123.46875 235.449219 127.890625 238.980469 132.8125 241.886719 C 136.445312 243.984375 139.863281 246.382812 143.074219 249.082031 C 143.898438 249.886719 144.847656 250.523438 145.675781 251.40625 C 148.863281 255.011719 151.164062 259.113281 152.582031 263.714844 C 153.089844 265.007812 153.257812 266.34375 153.082031 267.71875 C 152.195312 267.160156 151.351562 266.542969 150.546875 265.875 C 149.839844 265.214844 149.359375 264.320312 148.679688 263.625 C 145.734375 260.628906 142.800781 257.617188 139.765625 254.714844 C 137.703125 252.992188 135.5 251.46875 133.15625 250.144531 C 128.808594 247.28125 124.035156 245.097656 119.875 241.921875 C 119.648438 241.746094 119.304688 241.71875 119.097656 241.53125 C 116.503906 239.164062 113.886719 236.816406 111.355469 234.382812 C 110.46875 233.546875 109.730469 232.59375 109.140625 231.527344 C 107.355469 228.175781 105.609375 224.796875 104.019531 221.351562 C 102.746094 218.566406 101.863281 215.664062 101.371094 212.640625 C 101.046875 210.207031 100.886719 207.761719 100.898438 205.308594 C 100.742188 202.890625 100.753906 200.472656 100.9375 198.058594 C 101.292969 195.820312 101.792969 193.617188 102.4375 191.445312 C 103.164062 188.488281 103.875 185.527344 104.671875 182.59375 C 105.554688 179.765625 106.21875 176.886719 106.660156 173.957031 C 107.933594 172.65625 106.4375 170.660156 107.808594 169.386719 C 107.660156 167.632812 107.945312 165.957031 108.660156 164.351562 Z M 108.660156 164.351562 " fill-opacity="1" fill-rule="nonzero"/><path fill="#fff8e1" d="M 215.933594 188.769531 C 213.660156 187.777344 213.496094 185.371094 213.152344 183.507812 C 212.378906 180.707031 212.132812 177.859375 212.414062 174.964844 C 212.855469 171.304688 213.507812 167.683594 214.367188 164.101562 C 215.570312 160.195312 216.539062 156.214844 217.984375 152.363281 C 219.199219 149.390625 220.566406 146.492188 222.09375 143.667969 C 222.644531 142.308594 223.113281 140.925781 223.496094 139.511719 C 224.1875 138.132812 224.484375 136.671875 224.394531 135.132812 C 224.300781 134.777344 224.296875 134.421875 224.375 134.066406 C 224.457031 133.710938 224.613281 133.390625 224.84375 133.109375 C 225.535156 132.289062 224.535156 131.457031 224.347656 130.617188 C 223.902344 128.605469 223.488281 126.570312 222.84375 124.617188 C 221.496094 121.363281 219.875 118.25 217.980469 115.28125 C 216.546875 112.617188 215.074219 109.972656 213.800781 107.234375 C 213.601562 106.300781 213.582031 105.363281 213.746094 104.421875 L 217.332031 104.421875 C 219.886719 108.050781 222.527344 111.800781 225.167969 115.546875 C 227.496094 119.4375 229.148438 123.59375 230.128906 128.019531 C 230.515625 130.023438 230.6875 132.046875 230.652344 134.085938 C 230.402344 137.664062 229.585938 141.109375 228.203125 144.417969 C 226.96875 147.726562 225.300781 150.789062 223.785156 153.945312 C 222.996094 155.945312 222.347656 157.988281 221.835938 160.074219 C 221.453125 161.277344 220.898438 162.4375 220.601562 163.660156 C 219.769531 166.828125 219.097656 170.027344 218.589844 173.265625 C 218.371094 174.863281 218.230469 176.464844 218.019531 178.058594 C 217.910156 179.558594 217.675781 181.039062 217.320312 182.5 C 216.65625 184.597656 217.140625 186.914062 215.933594 188.769531 Z M 215.933594 188.769531 " fill-opacity="1" fill-rule="nonzero"/><path fill="#fff8e1" d="M 306.3125 96.484375 C 306.304688 96.707031 306.253906 96.921875 306.15625 97.121094 C 306.0625 97.324219 305.929688 97.5 305.761719 97.644531 C 305.59375 97.792969 305.402344 97.898438 305.1875 97.964844 C 304.976562 98.03125 304.757812 98.050781 304.535156 98.027344 C 301.394531 98.210938 298.253906 98.171875 295.121094 97.90625 C 292.414062 97.871094 289.800781 97.371094 287.273438 96.410156 C 286.613281 96.054688 285.671875 96.257812 284.882812 96.105469 C 284.21875 95.980469 283.597656 95.660156 282.9375 95.5 C 281.589844 95.058594 280.210938 94.832031 278.792969 94.824219 C 277.300781 94.929688 275.921875 93.996094 274.335938 94.191406 C 272.871094 94.292969 271.40625 94.308594 269.9375 94.230469 C 268.472656 94.128906 267.007812 94.144531 265.542969 94.273438 C 263.121094 94.660156 260.746094 95.335938 258.34375 95.84375 C 253.363281 96.886719 248.832031 99.226562 244.015625 100.742188 C 241.121094 101.652344 238.199219 102.433594 235.257812 103.1875 C 232.667969 103.855469 230.199219 103.359375 227.511719 103.816406 C 227.511719 103.054688 227.46875 102.546875 227.523438 102.050781 C 227.621094 101.140625 228.121094 100.71875 229.070312 100.511719 C 231.554688 99.96875 234.015625 99.34375 236.460938 98.625 C 237.949219 98.179688 239.398438 97.628906 240.8125 96.984375 C 244.703125 95.242188 248.621094 93.539062 252.429688 91.628906 C 255.851562 89.9375 259.425781 88.679688 263.152344 87.859375 C 265.683594 87.316406 268.242188 86.933594 270.824219 86.714844 C 273.417969 86.457031 276.058594 86.691406 278.679688 86.636719 C 279.441406 86.621094 280.113281 87.566406 280.917969 86.824219 C 281.664062 87.738281 282.675781 87.203125 283.558594 87.257812 C 284.476562 87.3125 285.328125 87.773438 286.132812 87.835938 C 288.523438 88.003906 290.863281 88.453125 293.152344 89.175781 C 297.050781 90.453125 300.730469 92.195312 304.191406 94.40625 C 304.976562 95.019531 305.683594 95.710938 306.3125 96.484375 Z M 306.3125 96.484375 " fill-opacity="1" fill-rule="nonzero"/><path fill="#fff8e1" d="M 256.496094 120.183594 C 257.675781 119.496094 258.925781 118.976562 260.246094 118.625 C 261.566406 118.273438 262.910156 118.101562 264.273438 118.105469 C 265.640625 118.113281 266.980469 118.296875 268.296875 118.660156 C 269.617188 119.023438 270.863281 119.550781 272.039062 120.246094 C 269.40625 121.976562 266.621094 123.398438 263.675781 124.515625 C 262.421875 125.0625 261.125 125.472656 259.785156 125.746094 C 257.792969 126.179688 256.089844 127.136719 254.679688 128.613281 C 252.8125 130.28125 250.710938 131.558594 248.371094 132.441406 C 246.886719 132.816406 245.441406 132.695312 244.035156 132.085938 C 242.839844 131.804688 242.46875 130.746094 241.835938 129.824219 C 240.847656 128.191406 240.304688 126.421875 240.203125 124.515625 C 239.828125 122.222656 238.90625 120.179688 237.4375 118.386719 C 237.175781 118.054688 236.878906 117.753906 236.550781 117.492188 C 236.140625 117.1875 235.78125 116.832031 235.472656 116.425781 C 235.167969 116.019531 234.925781 115.578125 234.746094 115.097656 C 234.566406 114.621094 234.460938 114.128906 234.425781 113.617188 C 234.390625 113.109375 234.429688 112.605469 234.542969 112.109375 C 235.371094 111.738281 236.230469 111.636719 237.125 111.800781 C 238.761719 112.191406 240.265625 112.875 241.632812 113.855469 C 242.707031 114.785156 243.472656 115.917969 243.933594 117.261719 C 244.722656 118.929688 245.726562 120.496094 246.746094 122.296875 C 249.199219 120.605469 251.171875 118.472656 252.664062 115.894531 C 253.292969 114.765625 254.03125 113.707031 254.875 112.722656 C 255.71875 111.742188 256.652344 110.855469 257.671875 110.058594 C 258.695312 109.265625 259.785156 108.582031 260.949219 108.011719 C 262.109375 107.4375 263.3125 106.984375 264.566406 106.65625 C 266.941406 105.832031 269.386719 105.457031 271.898438 105.523438 C 274.414062 105.59375 276.835938 106.105469 279.160156 107.058594 L 279.160156 108.570312 C 276.914062 109.1875 274.703125 109.921875 272.535156 110.773438 C 269.492188 111.472656 266.558594 112.488281 263.730469 113.808594 C 262.273438 114.375 260.929688 115.144531 259.699219 116.109375 C 258.46875 117.074219 257.402344 118.199219 256.507812 119.484375 C 256.414062 119.636719 256.496094 119.894531 256.496094 120.183594 C 256.230469 120.363281 256.019531 120.597656 255.863281 120.878906 L 255.863281 120.738281 C 255.695312 120.777344 255.535156 120.839844 255.386719 120.929688 C 255.347656 120.957031 255.453125 121.175781 255.492188 121.308594 C 255.652344 121.199219 255.777344 121.054688 255.863281 120.878906 C 256.019531 120.597656 256.230469 120.363281 256.496094 120.183594 Z M 256.496094 120.183594 " fill-opacity="1" fill-rule="nonzero"/><path fill="#fff8e1" d="M 95.640625 128.839844 C 95.210938 128.167969 94.652344 127.628906 93.96875 127.21875 C 93.289062 126.808594 92.546875 126.574219 91.753906 126.515625 C 89.308594 126.386719 86.878906 126.109375 84.464844 125.691406 C 81.816406 125.46875 79.191406 124.726562 76.523438 124.394531 C 76.277344 124.363281 76.074219 123.972656 75.6875 123.589844 C 76.640625 122.46875 77.820312 121.710938 79.230469 121.3125 C 82.871094 120.128906 86.601562 119.511719 90.429688 119.464844 C 91.558594 119.523438 92.691406 119.476562 94.316406 119.476562 C 91.066406 116.585938 87.203125 116.941406 83.90625 115.730469 C 80.179688 115.546875 76.59375 116.167969 73.144531 117.59375 C 73.234375 117.125 73.175781 116.660156 73.382812 116.453125 C 74.648438 114.953125 76.113281 113.675781 77.765625 112.621094 C 79.523438 111.761719 81.347656 111.097656 83.246094 110.621094 C 84.113281 110.496094 84.953125 110.140625 85.820312 110.03125 C 86.660156 109.96875 87.5 109.960938 88.339844 110.007812 C 89.980469 110.105469 91.558594 110.460938 93.082031 111.082031 C 94.605469 111.699219 95.988281 112.550781 97.226562 113.628906 C 97.808594 114.070312 98.242188 114.695312 98.800781 115.171875 C 99.902344 116.089844 100.746094 117.203125 101.339844 118.507812 C 101.929688 119.816406 102.207031 121.1875 102.171875 122.621094 C 102.179688 123.589844 102.648438 124.542969 102.746094 125.519531 C 102.851562 126.558594 102.738281 127.621094 102.78125 128.667969 C 102.769531 128.875 102.804688 129.074219 102.878906 129.265625 C 102.953125 129.457031 103.0625 129.628906 103.210938 129.773438 C 103.355469 129.917969 103.523438 130.03125 103.714844 130.105469 C 103.90625 130.179688 104.105469 130.214844 104.308594 130.207031 C 106.238281 130.195312 108.015625 129.675781 109.644531 128.644531 C 110.519531 128.148438 111.324219 127.558594 112.058594 126.875 C 113.132812 125.945312 113.910156 126.445312 114.628906 127.25 C 113.867188 128.722656 112.855469 130 111.597656 131.078125 C 110.34375 132.160156 108.929688 132.964844 107.363281 133.5 C 107.019531 133.683594 106.667969 133.84375 106.304688 133.976562 C 105.320312 134.179688 104.269531 133.636719 103.308594 134.371094 C 102.3125 135.132812 101.59375 133.5 100.511719 133.945312 C 100.121094 134.109375 99.523438 133.671875 99.019531 133.671875 C 98.519531 133.671875 98.046875 133.785156 97.597656 134.007812 C 96.039062 134.480469 94.449219 134.703125 92.820312 134.671875 C 91.03125 135.023438 89.226562 135.246094 87.40625 135.339844 C 86.929688 135.351562 86.402344 135.984375 86.078125 135.214844 C 85.851562 134.667969 85.8125 134.109375 85.960938 133.535156 C 86.191406 133.039062 86.546875 132.667969 87.039062 132.421875 C 89.558594 130.390625 92.425781 129.195312 95.640625 128.839844 Z M 95.640625 128.839844 " fill-opacity="1" fill-rule="nonzero"/><path fill="#fff8e1" d="M 57.386719 108.042969 C 57.699219 106.472656 58.328125 105.042969 59.28125 103.753906 C 60.234375 102.464844 61.414062 101.441406 62.824219 100.679688 C 66.539062 98.117188 70.539062 96.132812 74.828125 94.726562 C 76.5 94.066406 78.230469 93.6875 80.027344 93.597656 C 81.339844 93.625 82.457031 92.757812 83.867188 92.898438 C 85.003906 93.015625 86.382812 93.523438 87.378906 92.335938 C 89.183594 93.355469 91.3125 92.441406 93.042969 93.121094 C 95.3125 94.015625 97.984375 93.738281 99.933594 95.492188 C 102.089844 95.890625 104.046875 96.742188 105.804688 98.050781 C 109.011719 99.757812 111.914062 101.878906 114.519531 104.414062 C 115.09375 104.933594 115.507812 105.558594 115.769531 106.289062 C 116.027344 107.019531 116.101562 107.765625 115.988281 108.535156 C 115.984375 108.738281 115.941406 108.933594 115.855469 109.121094 C 115.773438 109.308594 115.65625 109.472656 115.507812 109.613281 C 115.355469 109.753906 115.1875 109.859375 114.992188 109.929688 C 114.800781 110.003906 114.601562 110.035156 114.398438 110.023438 C 113.054688 110.179688 111.789062 109.941406 110.59375 109.3125 C 105.71875 106.632812 100.632812 104.453125 95.335938 102.773438 C 93.996094 102.289062 92.414062 103.082031 91.332031 101.804688 C 88.582031 101.59375 85.835938 101.296875 83.085938 101.214844 C 81.902344 101.339844 80.730469 101.53125 79.566406 101.78125 C 78.207031 101.886719 76.515625 101.308594 75.554688 101.933594 C 74.441406 102.65625 72.96875 101.785156 72.214844 103.066406 C 69.789062 103.050781 67.460938 103.523438 65.234375 104.484375 C 62.542969 105.507812 59.929688 106.695312 57.386719 108.042969 Z M 57.386719 108.042969 " fill-opacity="1" fill-rule="nonzero"/><path fill="#fff8e1" d="M 238.035156 142.277344 C 238.167969 141.503906 238.429688 140.777344 238.820312 140.097656 C 239.011719 139.917969 239.226562 139.773438 239.464844 139.664062 C 239.703125 139.554688 239.953125 139.484375 240.210938 139.457031 C 240.472656 139.433594 240.730469 139.445312 240.984375 139.503906 C 241.242188 139.5625 241.480469 139.65625 241.703125 139.792969 C 244.660156 140.878906 247.699219 141.652344 250.8125 142.117188 C 251.347656 142.351562 251.910156 142.441406 252.492188 142.382812 C 253.074219 142.324219 253.605469 142.128906 254.085938 141.792969 C 254.347656 141.640625 254.628906 141.566406 254.929688 141.570312 C 258.078125 141.226562 261.113281 140.453125 264.042969 139.25 C 266.972656 138.050781 269.679688 136.46875 272.164062 134.5 C 274.382812 132.808594 276.410156 130.914062 278.246094 128.816406 C 280 126.660156 281.566406 124.378906 282.9375 121.960938 C 286.457031 116.519531 290.628906 111.640625 295.453125 107.320312 C 296.660156 106.285156 297.96875 105.398438 299.375 104.65625 C 300.109375 104.4375 300.855469 104.34375 301.621094 104.367188 C 299.425781 107.671875 297.390625 110.472656 295.644531 113.445312 C 293.886719 116.441406 291.835938 119.226562 289.855469 122.058594 C 286.617188 127.554688 282.746094 132.566406 278.242188 137.085938 C 275.359375 139.703125 272.171875 141.871094 268.675781 143.589844 C 265.71875 145.074219 262.636719 146.242188 259.433594 147.089844 C 256.136719 148.019531 252.785156 148.253906 249.386719 147.796875 C 247.226562 147.582031 245.171875 147.003906 243.21875 146.054688 C 241.265625 145.105469 239.539062 143.847656 238.035156 142.277344 Z M 238.035156 142.277344 " fill-opacity="1" fill-rule="nonzero"/><path fill="#fff8e1" d="M 57.410156 112.644531 C 58 112.472656 58.589844 112.46875 59.179688 112.632812 C 59.773438 112.796875 60.277344 113.101562 60.695312 113.554688 C 63.816406 116.714844 66.109375 120.398438 67.566406 124.597656 C 69.0625 127.996094 70.773438 131.277344 72.703125 134.449219 C 73.417969 135.734375 74.246094 136.988281 74.976562 138.25 C 76.03125 140.027344 77.308594 141.628906 78.804688 143.054688 C 80.304688 144.480469 81.964844 145.675781 83.792969 146.644531 C 89.253906 149.710938 94.617188 152.960938 99.996094 156.183594 C 100.449219 156.453125 100.6875 157.09375 101.332031 157.984375 C 98.042969 157.644531 95.183594 158.71875 92.414062 157.382812 C 90.1875 157.382812 88.066406 156.917969 86.050781 155.980469 C 83.917969 155.277344 81.902344 154.328125 80.003906 153.132812 C 76.503906 151.097656 73.503906 148.484375 71.003906 145.292969 C 68.375 142.1875 66.359375 138.722656 64.964844 134.894531 C 64.832031 134.53125 64.675781 134.175781 64.488281 133.832031 C 62.699219 129.941406 61.179688 125.945312 59.929688 121.847656 C 59.445312 120.152344 58.75 118.546875 57.839844 117.035156 C 57.578125 116.605469 57.441406 116.140625 57.425781 115.640625 C 57.363281 114.703125 57.410156 113.757812 57.410156 112.644531 Z M 57.410156 112.644531 " fill-opacity="1" fill-rule="nonzero"/><path fill="#fff8e1" d="M 214.851562 289.25 C 213.457031 291.152344 211.785156 292.765625 209.835938 294.089844 C 206.554688 296.453125 203.136719 298.585938 199.574219 300.492188 C 197.769531 301.429688 195.863281 302.0625 193.859375 302.386719 C 191.851562 302.714844 189.847656 302.71875 187.839844 302.402344 C 185.585938 302.160156 183.425781 301.566406 181.363281 300.617188 C 179.296875 299.730469 177.304688 298.699219 175.390625 297.519531 C 173.527344 296.214844 171.890625 294.675781 170.480469 292.890625 C 169.066406 291.109375 167.941406 289.164062 167.097656 287.050781 C 166.390625 284.414062 165.53125 281.828125 164.511719 279.292969 C 165.039062 277.769531 163.203125 277.398438 162.964844 276.132812 C 162.8125 275.320312 162.378906 274.671875 163.078125 273.964844 C 163.789062 273.238281 164.234375 273.363281 165.457031 274.074219 C 167.890625 275.863281 169.65625 278.164062 170.757812 280.980469 C 171.882812 283.5625 173.441406 285.851562 175.429688 287.847656 C 177.355469 289.585938 179.511719 290.957031 181.902344 291.964844 C 184.109375 293.019531 186.398438 293.832031 188.777344 294.402344 C 190.179688 294.777344 191.605469 294.929688 193.058594 294.859375 C 194.507812 294.789062 195.914062 294.5 197.273438 293.992188 C 199.753906 293.128906 202.253906 292.332031 204.757812 291.542969 C 207.261719 290.753906 209.777344 289.980469 212.308594 289.273438 C 213.15625 289.175781 214.003906 289.171875 214.851562 289.25 Z M 214.851562 289.25 " fill-opacity="1" fill-rule="nonzero"/><path fill="#fff8e1" d="M 197.011719 288.5625 C 195.3125 287.820312 193.785156 286.8125 192.433594 285.542969 C 191.082031 284.273438 189.980469 282.8125 189.128906 281.164062 C 187.269531 277.8125 185.953125 274.261719 185.179688 270.503906 C 184.84375 269 184.734375 267.476562 184.863281 265.9375 C 184.988281 264.402344 185.339844 262.917969 185.914062 261.484375 C 187.019531 258.773438 188.671875 256.453125 190.875 254.527344 C 194.0625 252.191406 197.546875 250.46875 201.335938 249.355469 C 203.257812 248.804688 205.128906 247.917969 207.121094 247.371094 C 207.910156 247.15625 208.675781 247.097656 209.453125 246.960938 C 210.730469 246.734375 212.167969 247.5625 213.296875 246.371094 C 214.3125 247.480469 215.628906 246.890625 216.796875 246.9375 C 220.898438 247.230469 224.867188 248.113281 228.703125 249.59375 C 228.449219 250.136719 228.09375 250.601562 227.636719 250.988281 C 227.175781 251.375 226.660156 251.648438 226.082031 251.804688 C 224.972656 252.222656 223.828125 252.496094 222.652344 252.628906 C 221.070312 252.917969 219.480469 253.125 217.878906 253.25 C 216.210938 253.355469 214.511719 253.128906 212.851562 253.308594 C 209.953125 253.472656 207.09375 253.914062 204.277344 254.632812 C 201.507812 255.246094 198.878906 256.238281 196.390625 257.601562 C 195.054688 258.246094 193.898438 259.125 192.917969 260.238281 C 191.933594 261.351562 191.207031 262.613281 190.738281 264.019531 C 190.199219 266.246094 190.140625 268.484375 190.554688 270.734375 C 191.734375 275.652344 193.839844 280.132812 196.867188 284.179688 C 197.746094 285.398438 198.871094 286.933594 197.011719 288.5625 Z M 197.011719 288.5625 " fill-opacity="1" fill-rule="nonzero"/><path fill="#fff8e1" d="M 171.53125 179.621094 C 171.871094 179.476562 172.226562 179.402344 172.59375 179.398438 C 172.964844 179.398438 173.320312 179.464844 173.664062 179.601562 C 174.007812 179.738281 174.3125 179.933594 174.578125 180.1875 C 174.84375 180.445312 175.050781 180.742188 175.199219 181.082031 C 176.335938 182.902344 177.371094 184.789062 178.359375 186.699219 C 179.382812 188.683594 180.363281 190.695312 181.246094 192.746094 C 182.894531 196.257812 184.351562 199.851562 185.613281 203.527344 C 186.605469 206.160156 187.148438 208.886719 187.25 211.703125 C 187.554688 213.703125 187.746094 215.71875 187.828125 217.742188 C 187.535156 219.535156 187.335938 221.335938 187.230469 223.152344 C 187.070312 224.832031 186.652344 226.449219 185.980469 228 C 185.410156 229.664062 184.765625 231.273438 184.117188 232.898438 C 182.828125 236.144531 181.355469 239.3125 180.179688 242.613281 C 179.4375 244.6875 178.410156 246.703125 177.53125 248.757812 C 177.152344 249.640625 176.789062 250.535156 176.121094 252.144531 C 175.820312 250.382812 175.742188 248.609375 175.878906 246.828125 C 175.695312 245.382812 175.867188 243.984375 176.390625 242.628906 C 176.773438 241.496094 176.980469 240.335938 177.015625 239.144531 C 177.792969 234.578125 178.9375 230.105469 180.457031 225.730469 C 182.039062 221.15625 182.570312 216.460938 182.050781 211.644531 C 181.628906 208.625 180.753906 205.746094 179.425781 203.003906 C 178.074219 199.773438 176.902344 196.476562 175.917969 193.117188 C 174.96875 190.242188 173.71875 187.496094 172.503906 184.765625 C 171.683594 183.144531 171.355469 181.429688 171.53125 179.621094 Z M 171.53125 179.621094 " fill-opacity="1" fill-rule="nonzero"/><path fill="#fff8e1" d="M 160.222656 180.949219 C 158.296875 179.390625 157.023438 177.410156 156.402344 175.007812 C 155.667969 172.980469 154.65625 171.109375 153.757812 169.183594 C 152.890625 167.328125 151.613281 165.667969 150.582031 163.886719 C 149.308594 161.625 147.539062 159.867188 145.265625 158.617188 C 143.726562 157.769531 142.109375 157.121094 140.414062 156.667969 C 137.886719 156 135.488281 154.832031 132.949219 154.253906 C 131.144531 153.816406 129.402344 153.214844 127.714844 152.441406 C 126.882812 152.078125 126.199219 151.523438 125.667969 150.785156 C 125.136719 150.046875 124.828125 149.222656 124.75 148.3125 C 126.207031 147.160156 127.863281 146.59375 129.71875 146.613281 C 131.546875 146.65625 133.367188 146.792969 135.179688 147.019531 C 137.257812 147.542969 139.402344 147.925781 141.515625 148.457031 C 144.039062 149.246094 146.410156 150.355469 148.628906 151.796875 C 150.746094 153.222656 152.480469 155.015625 153.828125 157.1875 C 155.230469 159.082031 156.246094 161.167969 156.875 163.441406 C 158.179688 166.964844 159.042969 170.597656 159.472656 174.332031 C 160.679688 176.347656 159.828125 178.5 160.222656 180.949219 Z M 160.222656 180.949219 " fill-opacity="1" fill-rule="nonzero"/><path fill="#fff8e1" d="M 131.984375 227.707031 C 131.277344 227.984375 130.542969 228.09375 129.785156 228.039062 C 129.023438 227.984375 128.316406 227.765625 127.652344 227.390625 C 125.878906 226.425781 124.277344 225.230469 122.855469 223.800781 C 121.429688 222.367188 120.238281 220.761719 119.28125 218.984375 C 118.507812 217.636719 117.949219 216.171875 117.253906 214.777344 C 116.371094 213.398438 115.933594 211.886719 115.945312 210.246094 C 116.03125 209.199219 115.175781 207.984375 115.460938 207.070312 C 115.835938 205.488281 116.023438 203.882812 116.023438 202.253906 C 115.957031 200.734375 116.195312 199.261719 116.734375 197.839844 C 117.394531 196.636719 117.140625 195.355469 117.773438 194.140625 C 118.074219 193.574219 118.492188 193.113281 119.023438 192.75 C 119.554688 192.390625 120.136719 192.175781 120.773438 192.101562 C 122.171875 191.773438 122.910156 192.480469 122.921875 193.910156 C 122.949219 197.589844 123.097656 201.28125 122.878906 204.949219 C 122.835938 207.796875 123.304688 210.558594 124.285156 213.230469 C 124.828125 214.988281 125.492188 216.726562 126.128906 218.457031 C 126.910156 220.617188 128.054688 222.566406 129.5625 224.296875 C 130.429688 225.390625 131.238281 226.527344 131.984375 227.707031 Z M 131.984375 227.707031 " fill-opacity="1" fill-rule="nonzero"/><path fill="#fff8e1" d="M 204.019531 100.542969 C 205.011719 102.074219 205.78125 103.710938 206.328125 105.449219 C 207.898438 109.859375 209.8125 114.109375 212.082031 118.203125 C 213.070312 119.945312 213.804688 121.789062 214.289062 123.730469 C 214.773438 125.675781 214.988281 127.648438 214.929688 129.652344 C 214.832031 131.75 215 133.863281 214.882812 135.960938 C 214.769531 137.355469 214.527344 138.722656 214.152344 140.070312 C 214.046875 140.472656 213.476562 140.757812 212.804688 141.390625 C 211.953125 139.09375 211.179688 137.148438 210.515625 135.164062 C 209.773438 132.945312 209.132812 130.691406 208.4375 128.453125 C 207.964844 127.378906 207.625 126.265625 207.414062 125.113281 C 207.238281 123.929688 206.847656 122.820312 206.246094 121.789062 C 204.507812 118.0625 203.160156 114.195312 202.203125 110.195312 C 201.84375 107.859375 201.269531 105.582031 200.480469 103.355469 C 199.757812 101.652344 200.6875 100.617188 202.550781 100.542969 C 203.050781 100.523438 203.554688 100.542969 204.019531 100.542969 Z M 204.019531 100.542969 " fill-opacity="1" fill-rule="nonzero"/><path fill="#fff8e1" d="M 227.414062 302.558594 C 226.988281 304.191406 226.1875 305.613281 225.011719 306.820312 C 224.160156 307.769531 223.066406 308.414062 222.195312 309.347656 C 221.3125 310.296875 220.125 310.949219 219.167969 311.839844 C 218.132812 312.605469 216.984375 313.132812 215.730469 313.421875 C 213.636719 314.027344 211.527344 314.105469 209.394531 313.65625 C 208.054688 313.507812 206.773438 312.898438 205.441406 312.617188 C 204.410156 312.40625 203.4375 312.03125 202.53125 311.492188 C 201.625 310.953125 200.832031 310.28125 200.152344 309.472656 C 199.953125 309.265625 199.824219 309.023438 199.769531 308.742188 C 199.710938 308.460938 199.734375 308.1875 199.835938 307.917969 C 199.9375 307.652344 200.101562 307.429688 200.332031 307.257812 C 200.558594 307.085938 200.816406 306.992188 201.101562 306.96875 C 202.832031 306.902344 204.558594 307.003906 206.273438 307.273438 C 208.507812 307.695312 210.738281 307.675781 212.964844 307.214844 C 216.953125 306.320312 220.808594 305.019531 224.527344 303.316406 C 225.46875 302.992188 226.433594 302.738281 227.414062 302.558594 Z M 227.414062 302.558594 " fill-opacity="1" fill-rule="nonzero"/><path fill="#fff8e1" d="M 167.464844 246.402344 C 166.667969 245.847656 166.0625 245.128906 165.640625 244.25 C 165.222656 243.375 165.042969 242.449219 165.109375 241.480469 C 165.152344 240.9375 164.730469 240.375 164.632812 239.804688 C 164.550781 239.324219 164.421875 238.597656 164.671875 238.363281 C 165.449219 237.636719 165.105469 236.792969 165.125 236.007812 C 165.199219 233.792969 165.769531 231.710938 166.84375 229.773438 C 168.304688 227.234375 169.609375 224.621094 170.753906 221.929688 C 171.804688 219.230469 173.734375 217.171875 175.253906 214.023438 C 175.597656 215.074219 175.957031 215.636719 175.8125 215.839844 C 174.847656 217.226562 175.523438 218.847656 175.066406 220.277344 C 174.554688 221.664062 174.179688 223.085938 173.941406 224.546875 C 173.800781 225.214844 173.597656 225.867188 173.332031 226.496094 C 172.132812 230.207031 170.894531 233.90625 169.757812 237.632812 C 169.355469 238.953125 169.21875 240.351562 168.914062 241.707031 C 168.730469 243.363281 168.246094 244.929688 167.464844 246.402344 Z M 167.464844 246.402344 " fill-opacity="1" fill-rule="nonzero"/><path fill="#fff8e1" d="M 137.082031 102.558594 C 135.097656 101.949219 135.097656 100.113281 135.003906 98.875 C 134.542969 96.683594 134.28125 94.46875 134.222656 92.234375 C 134.445312 90.058594 134.265625 87.84375 134.273438 85.644531 C 134.367188 84.769531 134.535156 83.90625 134.78125 83.058594 C 134.914062 82.304688 135.210938 81.625 135.683594 81.019531 C 136.152344 80.414062 136.738281 79.957031 137.4375 79.648438 C 138.109375 79.292969 138.824219 79.132812 139.582031 79.167969 C 140.339844 79.207031 141.035156 79.4375 141.667969 79.859375 C 142.148438 83.898438 141.691406 87.828125 140.289062 91.644531 C 139.5625 95.382812 138.496094 99.019531 137.082031 102.558594 Z M 137.082031 102.558594 " fill-opacity="1" fill-rule="nonzero"/><path fill="#fff8e1" d="M 173.355469 98.320312 C 171.519531 96.613281 170.210938 94.566406 169.4375 92.179688 C 168.457031 89.566406 167.089844 87.078125 166.304688 84.355469 C 165.734375 82.394531 165.070312 80.457031 164.53125 78.488281 C 164.476562 78.285156 164.460938 78.082031 164.488281 77.871094 C 164.515625 77.664062 164.582031 77.46875 164.6875 77.289062 C 164.792969 77.109375 164.929688 76.953125 165.09375 76.828125 C 165.261719 76.703125 165.445312 76.613281 165.648438 76.5625 C 166.203125 76.367188 166.769531 76.285156 167.351562 76.304688 C 167.9375 76.328125 168.496094 76.457031 169.03125 76.691406 C 169.570312 76.921875 170.042969 77.246094 170.457031 77.660156 C 170.871094 78.074219 171.195312 78.546875 171.429688 79.085938 C 172.617188 81.183594 173.257812 83.4375 173.351562 85.847656 C 173.785156 89.207031 173.984375 92.582031 173.949219 95.96875 C 173.800781 96.765625 173.601562 97.546875 173.355469 98.320312 Z M 173.355469 98.320312 " fill-opacity="1" fill-rule="nonzero"/><path fill="#fff8e1" d="M 143.882812 168.316406 C 143.878906 170.109375 143.292969 171.6875 142.128906 173.050781 C 141.863281 173.425781 141.535156 173.730469 141.140625 173.972656 C 140.75 174.210938 140.328125 174.363281 139.875 174.429688 C 139.421875 174.496094 138.972656 174.46875 138.527344 174.347656 C 138.085938 174.230469 137.683594 174.027344 137.324219 173.742188 C 136.058594 172.820312 134.953125 171.734375 134.011719 170.480469 C 133.070312 169.226562 132.335938 167.863281 131.804688 166.386719 C 131.042969 164.714844 131.945312 163.359375 133.769531 162.578125 C 134.195312 162.371094 134.632812 162.210938 135.089844 162.09375 C 135.542969 161.976562 136.007812 161.90625 136.476562 161.882812 C 136.945312 161.859375 137.414062 161.878906 137.878906 161.949219 C 138.34375 162.019531 138.796875 162.136719 139.238281 162.296875 C 139.679688 162.460938 140.101562 162.664062 140.5 162.910156 C 140.902344 163.15625 141.273438 163.441406 141.617188 163.761719 C 141.960938 164.082031 142.269531 164.433594 142.542969 164.820312 C 142.816406 165.203125 143.050781 165.609375 143.242188 166.039062 C 143.519531 166.78125 143.734375 167.539062 143.882812 168.316406 Z M 143.882812 168.316406 " fill-opacity="1" fill-rule="nonzero"/><path fill="#fff8e1" d="M 155.441406 99.886719 C 155.128906 99.9375 154.8125 99.9375 154.5 99.882812 C 154.183594 99.828125 153.886719 99.726562 153.605469 99.570312 C 153.328125 99.417969 153.078125 99.222656 152.863281 98.988281 C 152.648438 98.75 152.476562 98.484375 152.351562 98.191406 C 151.503906 96.417969 150.902344 94.5625 150.546875 92.625 C 150.007812 89.257812 149.84375 85.871094 150.054688 82.46875 C 150.070312 82.175781 150.113281 81.886719 150.1875 81.601562 C 150.257812 81.316406 150.359375 81.042969 150.492188 80.78125 C 150.621094 80.515625 150.777344 80.269531 150.957031 80.039062 C 151.140625 79.808594 151.34375 79.597656 151.566406 79.410156 C 151.792969 79.222656 152.035156 79.058594 152.292969 78.917969 C 152.554688 78.78125 152.824219 78.671875 153.105469 78.589844 C 153.386719 78.507812 153.675781 78.457031 153.96875 78.433594 C 154.257812 78.414062 154.550781 78.421875 154.839844 78.460938 C 155.726562 78.582031 156.40625 79.039062 156.308594 80.042969 C 156.625 82.933594 156.421875 85.78125 155.691406 88.597656 C 156.164062 90.882812 154.992188 93.015625 155.074219 95.261719 C 155.128906 96.738281 155.304688 98.210938 155.441406 99.886719 Z M 155.441406 99.886719 " fill-opacity="1" fill-rule="nonzero"/><path fill="#fff8e1" d="M 183.019531 74.664062 C 183.851562 75.402344 184.601562 76.21875 185.265625 77.109375 C 185.929688 78.003906 186.496094 78.953125 186.964844 79.960938 C 187.433594 80.972656 187.796875 82.019531 188.046875 83.105469 C 188.300781 84.1875 188.441406 85.285156 188.46875 86.398438 C 188.574219 87.265625 188.960938 88.101562 189.058594 88.96875 C 189.164062 89.898438 189.027344 90.855469 189.097656 91.789062 C 189.175781 92.792969 188.6875 93.304688 187.554688 93.726562 C 186.917969 92.253906 186.136719 90.859375 185.210938 89.546875 C 183.066406 85.621094 181.148438 81.554688 178.679688 77.804688 C 178.605469 77.644531 178.550781 77.480469 178.515625 77.308594 C 178.480469 77.136719 178.46875 76.964844 178.472656 76.789062 C 178.480469 76.613281 178.507812 76.445312 178.554688 76.273438 C 178.601562 76.105469 178.667969 75.945312 178.753906 75.792969 C 178.839844 75.640625 178.941406 75.5 179.058594 75.375 C 179.175781 75.246094 179.308594 75.132812 179.453125 75.035156 C 179.601562 74.941406 179.753906 74.863281 179.917969 74.800781 C 180.082031 74.742188 180.25 74.703125 180.425781 74.683594 C 181.289062 74.625 182.152344 74.621094 183.019531 74.664062 Z M 183.019531 74.664062 " fill-opacity="1" fill-rule="nonzero"/><path fill="#fff8e1" d="M 201.628906 91.75 C 201.3125 91.746094 200.996094 91.707031 200.691406 91.628906 C 199.773438 88.6875 198.339844 86.027344 196.382812 83.652344 C 194.953125 81.351562 192.957031 79.410156 191.347656 77.210938 C 190.019531 75.398438 188.144531 73.796875 188.492188 71.011719 C 189.367188 70.769531 190.539062 70.023438 191.1875 70.34375 C 192.664062 71.078125 194.496094 71.515625 195.363281 73.125 C 196.53125 75.695312 197.828125 78.195312 199.257812 80.628906 C 200.230469 82.441406 200.980469 84.34375 201.503906 86.335938 C 201.855469 88.132812 201.898438 89.9375 201.628906 91.75 Z M 201.628906 91.75 " fill-opacity="1" fill-rule="nonzero"/><path fill="#fff8e1" d="M 209.714844 278.679688 C 207.039062 275.996094 204.695312 273.589844 202.273438 271.261719 C 201.671875 270.570312 200.964844 270.007812 200.152344 269.578125 C 199.507812 269.246094 198.984375 268.78125 198.585938 268.175781 C 198.183594 267.570312 197.957031 266.90625 197.90625 266.183594 C 197.753906 264.734375 198.316406 264.0625 199.742188 264.007812 C 200.226562 263.9375 200.710938 263.914062 201.199219 263.929688 C 201.6875 263.945312 202.171875 264.003906 202.652344 264.105469 C 203.128906 264.207031 203.59375 264.347656 204.046875 264.527344 C 204.5 264.710938 204.9375 264.929688 205.351562 265.1875 C 205.765625 265.445312 206.15625 265.738281 206.523438 266.0625 C 206.886719 266.386719 207.222656 266.742188 207.523438 267.128906 C 207.828125 267.511719 208.09375 267.917969 208.328125 268.347656 C 208.558594 268.78125 208.753906 269.226562 208.90625 269.691406 C 209.945312 271.984375 210.46875 274.390625 210.476562 276.910156 C 210.308594 277.535156 210.054688 278.125 209.714844 278.679688 Z M 209.714844 278.679688 " fill-opacity="1" fill-rule="nonzero"/><path fill="#fff8e1" d="M 231.039062 260.304688 L 234.988281 260.304688 C 235.121094 261.164062 235.078125 262.015625 234.859375 262.855469 C 234.636719 263.695312 234.257812 264.457031 233.71875 265.136719 C 230.953125 269.054688 228.449219 273.15625 225.765625 277.300781 C 225.425781 276.816406 225.179688 276.285156 225.023438 275.710938 C 224.933594 272.578125 225.53125 269.582031 226.820312 266.722656 C 227.164062 265.457031 227.699219 264.273438 228.417969 263.175781 C 229.140625 262.082031 230.011719 261.125 231.039062 260.304688 Z M 231.039062 260.304688 " fill-opacity="1" fill-rule="nonzero"/></svg>