<svg xmlns="http://www.w3.org/2000/svg" xmlns:xlink="http://www.w3.org/1999/xlink" width="500" zoomAndPan="magnify" viewBox="0 0 375 374.999991" height="500" preserveAspectRatio="xMidYMid meet" version="1.0"><defs><clipPath id="ab9a6435c8"><path d="M 155.402344 155.402344 L 207.902344 155.402344 L 207.902344 207.902344 L 155.402344 207.902344 Z M 155.402344 155.402344 " clip-rule="nonzero"/></clipPath></defs><g clip-path="url(#ab9a6435c8)"><path fill="#000000" d="M 181.652344 155.402344 C 167.152344 155.402344 155.402344 167.152344 155.402344 181.652344 C 155.402344 196.152344 167.152344 207.902344 181.652344 207.902344 C 196.152344 207.902344 207.902344 196.152344 207.902344 181.652344 C 207.878906 167.152344 196.128906 155.402344 181.652344 155.402344 Z M 181.652344 199.015625 C 179.878906 199.015625 178.152344 198.789062 176.539062 198.355469 L 172.425781 200.539062 C 171.265625 201.152344 169.835938 200.3125 169.835938 198.992188 L 169.835938 195.128906 C 165.539062 191.902344 162.789062 186.96875 162.789062 181.449219 C 162.789062 171.742188 171.222656 163.878906 181.652344 163.878906 C 192.0625 163.878906 200.515625 171.742188 200.515625 181.449219 C 200.515625 191.152344 192.0625 199.015625 181.652344 199.015625 Z M 181.652344 199.015625 " fill-opacity="1" fill-rule="nonzero"/></g><path fill="#000000" d="M 168.628906 187.789062 L 178.628906 177.175781 C 179.105469 176.675781 179.902344 176.675781 180.378906 177.152344 L 184.242188 181.085938 C 184.628906 181.46875 185.222656 181.5625 185.699219 181.289062 L 194.699219 176.242188 L 184.585938 186.855469 C 184.105469 187.355469 183.3125 187.355469 182.835938 186.855469 L 179.199219 183.105469 C 178.8125 182.71875 178.222656 182.628906 177.742188 182.878906 Z M 168.628906 187.789062 " fill-opacity="1" fill-rule="nonzero"/></svg>