<svg xmlns="http://www.w3.org/2000/svg" xmlns:xlink="http://www.w3.org/1999/xlink" zoomAndPan="magnify" preserveAspectRatio="xMidYMid meet" version="1.0" viewBox="114.58 158.61 145.87 136.35"><path fill="#e72a2e" d="M 251.304688 240.226562 C 245.546875 240.226562 238.453125 238.019531 232.976562 241.035156 C 225.695312 245.082031 227.78125 254.292969 228.121094 261.074219 C 228.402344 266.769531 228.339844 272.464844 228.246094 278.15625 C 228.183594 282.296875 228.867188 287.925781 225.632812 291.132812 C 224.324219 292.40625 222.550781 293.03125 220.777344 293.371094 C 211.445312 295.144531 201.175781 293.433594 191.714844 293.433594 C 183.46875 293.433594 175.164062 293.1875 166.917969 293.527344 C 161.191406 293.777344 153.320312 295.519531 148.464844 291.445312 C 146.378906 289.699219 145.445312 286.933594 145.167969 284.226562 C 144.636719 279.183594 145.507812 274.113281 145.507812 269.070312 C 145.507812 261.757812 148.902344 249.71875 143.550781 243.277344 C 139.066406 237.863281 129.734375 240.164062 123.695312 240.164062 C 116.292969 240.164062 112.558594 231.203125 117.785156 225.945312 C 132.160156 211.476562 146.566406 197.007812 160.941406 182.539062 C 165.546875 177.902344 170.121094 173.296875 174.726562 168.660156 C 178.492188 164.863281 182.722656 158.640625 188.914062 159.511719 C 195.109375 160.382812 199.496094 167.882812 203.539062 171.929688 C 208.207031 176.59375 212.84375 181.292969 217.511719 185.960938 C 227.40625 195.886719 237.269531 205.8125 247.164062 215.769531 C 250.523438 219.160156 253.886719 222.523438 257.246094 225.914062 C 262.441406 231.265625 258.707031 240.226562 251.304688 240.226562 Z M 251.304688 240.226562 " fill-opacity="1" fill-rule="nonzero"/><path fill="#000000" d="M 210.945312 294.960938 C 207.679688 294.960938 204.378906 294.773438 201.144531 294.585938 C 198.03125 294.398438 194.796875 294.210938 191.714844 294.210938 C 189.257812 294.210938 186.769531 294.183594 184.371094 294.183594 C 178.648438 294.121094 172.734375 294.089844 166.949219 294.304688 C 165.890625 294.335938 164.738281 294.460938 163.523438 294.554688 C 158.203125 295.023438 152.136719 295.550781 147.96875 292.035156 C 145.445312 289.949219 144.636719 286.683594 144.390625 284.285156 C 144.046875 281.113281 144.265625 277.90625 144.484375 274.796875 C 144.605469 272.898438 144.730469 270.9375 144.730469 269.039062 C 144.730469 267.078125 144.980469 264.808594 145.230469 262.414062 C 145.914062 255.753906 146.691406 248.222656 142.957031 243.742188 C 139.722656 239.824219 133.5625 240.289062 128.117188 240.695312 C 126.558594 240.816406 125.066406 240.910156 123.695312 240.910156 C 119.964844 240.910156 116.726562 238.765625 115.296875 235.28125 C 113.863281 231.824219 114.613281 228 117.257812 225.355469 C 124.445312 218.136719 131.632812 210.886719 138.851562 203.636719 C 146.039062 196.417969 153.226562 189.167969 160.414062 181.945312 L 174.199219 168.070312 C 174.820312 167.417969 175.472656 166.730469 176.160156 165.984375 C 179.425781 162.40625 183.5 157.925781 189.039062 158.703125 C 193.925781 159.386719 197.660156 163.835938 200.925781 167.757812 C 202.046875 169.066406 203.074219 170.339844 204.101562 171.335938 C 206.433594 173.671875 208.769531 176.003906 211.101562 178.367188 C 213.433594 180.703125 215.738281 183.035156 218.070312 185.371094 C 227.964844 195.296875 237.984375 205.378906 247.695312 215.148438 L 247.722656 215.179688 C 249.40625 216.859375 251.054688 218.539062 252.734375 220.21875 C 254.414062 221.929688 256.125 223.609375 257.804688 225.324219 C 260.449219 228.0625 261.167969 231.886719 259.703125 235.371094 C 258.242188 238.828125 255.035156 240.941406 251.304688 240.941406 C 249.589844 240.941406 247.816406 240.757812 245.949219 240.570312 C 241.5625 240.101562 237.019531 239.636719 233.347656 241.660156 C 227.59375 244.863281 228.152344 251.738281 228.683594 257.839844 C 228.773438 258.925781 228.867188 259.984375 228.898438 260.980469 C 229.179688 266.707031 229.117188 272.339844 229.023438 278.125 C 229.023438 278.78125 229.023438 279.433594 229.023438 280.148438 C 229.085938 283.945312 229.117188 288.707031 226.160156 291.628906 C 224.917969 292.84375 223.207031 293.652344 220.902344 294.089844 C 217.699219 294.742188 214.335938 294.960938 210.945312 294.960938 Z M 177.0625 292.5625 C 179.519531 292.5625 181.976562 292.59375 184.402344 292.59375 C 186.800781 292.625 189.289062 292.625 191.746094 292.625 C 194.859375 292.625 198.125 292.8125 201.269531 293 C 207.773438 293.371094 214.492188 293.746094 220.683594 292.59375 C 222.675781 292.222656 224.140625 291.535156 225.132812 290.574219 C 227.625 288.113281 227.5625 283.914062 227.53125 280.210938 C 227.53125 279.496094 227.5 278.8125 227.53125 278.125 C 227.625 272.402344 227.6875 266.769531 227.40625 261.105469 C 227.34375 260.109375 227.28125 259.082031 227.1875 257.992188 C 226.660156 251.769531 226.003906 244.023438 232.664062 240.320312 C 236.773438 238.050781 241.53125 238.546875 246.167969 239.042969 C 248.003906 239.230469 249.746094 239.417969 251.363281 239.417969 C 254.445312 239.417969 257.121094 237.644531 258.335938 234.78125 C 259.546875 231.886719 258.957031 228.683594 256.75 226.410156 C 255.066406 224.699219 253.355469 223.019531 251.675781 221.308594 C 249.996094 219.628906 248.347656 217.949219 246.667969 216.269531 L 246.636719 216.238281 C 236.925781 206.464844 226.90625 196.386719 217.011719 186.460938 C 214.679688 184.125 212.347656 181.792969 210.011719 179.425781 C 207.679688 177.09375 205.375 174.757812 203.042969 172.425781 C 201.984375 171.367188 200.894531 170.09375 199.773438 168.722656 C 196.664062 165.019531 193.148438 160.820312 188.855469 160.226562 C 184.125 159.574219 180.515625 163.527344 177.339844 167.011719 C 176.65625 167.757812 176.003906 168.503906 175.316406 169.160156 L 161.535156 183.035156 C 154.347656 190.285156 147.160156 197.503906 139.941406 204.753906 C 132.75 211.972656 125.5625 219.222656 118.375 226.441406 C 116.199219 228.652344 115.574219 231.792969 116.757812 234.6875 C 117.941406 237.550781 120.617188 239.355469 123.726562 239.355469 C 125.003906 239.355469 126.464844 239.261719 128.023438 239.136719 C 133.5625 238.734375 140.4375 238.203125 144.171875 242.746094 C 148.339844 247.757812 147.5 255.628906 146.785156 262.566406 C 146.535156 264.933594 146.316406 267.140625 146.316406 269.039062 C 146.316406 271 146.195312 272.992188 146.070312 274.890625 C 145.882812 277.9375 145.664062 281.050781 145.976562 284.101562 C 146.195312 286.183594 146.878906 289.046875 148.996094 290.789062 C 152.664062 293.871094 158.390625 293.371094 163.402344 292.9375 C 164.644531 292.84375 165.796875 292.71875 166.917969 292.6875 C 170.246094 292.625 173.667969 292.5625 177.0625 292.5625 Z M 177.0625 292.5625 " fill-opacity="1" fill-rule="nonzero"/></svg>