<svg xmlns="http://www.w3.org/2000/svg" xmlns:xlink="http://www.w3.org/1999/xlink" zoomAndPan="magnify" preserveAspectRatio="xMidYMid meet" version="1.0" viewBox="301.43 325.41 213.75 154.5"><defs><clipPath id="e93126595b"><path d="M 301.433594 325.414062 L 515.183594 325.414062 L 515.183594 479.914062 L 301.433594 479.914062 Z M 301.433594 325.414062 " clip-rule="nonzero"/></clipPath><clipPath id="5f57d845b0"><path d="M 302 326 L 515 326 L 515 479.914062 L 302 479.914062 Z M 302 326 " clip-rule="nonzero"/></clipPath><clipPath id="db49880573"><path d="M 301.433594 325.414062 L 515.183594 325.414062 L 515.183594 479.914062 L 301.433594 479.914062 Z M 301.433594 325.414062 " clip-rule="nonzero"/></clipPath></defs><g clip-path="url(#e93126595b)"><path fill="#00247d" d="M 301.433594 349.550781 L 301.433594 372.960938 L 334.851562 372.960938 Z M 329.128906 479.886719 L 378.621094 479.886719 L 378.621094 445.210938 Z M 437.996094 445.21875 L 437.996094 479.886719 L 487.484375 479.886719 Z M 301.433594 432.363281 L 301.433594 455.773438 L 334.863281 432.363281 Z M 487.496094 325.441406 L 437.996094 325.441406 L 437.996094 360.113281 Z M 515.183594 455.78125 L 515.183594 432.363281 L 481.75 432.363281 Z M 515.183594 372.960938 L 515.183594 349.550781 L 481.761719 372.960938 Z M 378.621094 325.441406 L 329.128906 325.441406 L 378.621094 360.113281 Z M 378.621094 325.441406 " fill-opacity="1" fill-rule="nonzero"/></g><g clip-path="url(#5f57d845b0)"><path fill="#cf1b2b" d="M 450.703125 432.363281 L 508.367188 472.761719 C 511.164062 469.917969 513.164062 466.335938 514.246094 462.375 L 471.40625 432.363281 Z M 378.621094 432.363281 L 365.910156 432.363281 L 308.25 472.757812 C 311.34375 475.90625 315.308594 478.15625 319.757812 479.203125 L 378.621094 437.964844 Z M 437.996094 372.960938 L 450.710938 372.960938 L 508.367188 332.570312 C 505.273438 329.421875 501.316406 327.171875 496.867188 326.125 L 437.996094 367.359375 Z M 365.910156 372.960938 L 308.25 332.570312 C 305.453125 335.421875 303.453125 338.996094 302.367188 342.960938 L 345.207031 372.960938 Z M 365.910156 372.960938 " fill-opacity="1" fill-rule="nonzero"/></g><g clip-path="url(#db49880573)"><path fill="#eeeeee" d="M 515.183594 420.484375 L 426.121094 420.484375 L 426.121094 479.886719 L 437.996094 479.886719 L 437.996094 445.21875 L 487.484375 479.886719 L 491.433594 479.886719 C 498.066406 479.886719 504.058594 477.148438 508.367188 472.761719 L 450.703125 432.363281 L 471.40625 432.363281 L 514.246094 462.375 C 514.796875 460.371094 515.183594 458.296875 515.183594 456.125 L 515.183594 455.78125 L 481.75 432.363281 L 515.183594 432.363281 Z M 301.433594 420.484375 L 301.433594 432.363281 L 334.863281 432.363281 L 301.433594 455.773438 L 301.433594 456.125 C 301.433594 462.605469 304.042969 468.46875 308.25 472.757812 L 365.910156 432.363281 L 378.621094 432.363281 L 378.621094 437.964844 L 319.757812 479.195312 C 321.503906 479.613281 323.308594 479.886719 325.183594 479.886719 L 329.128906 479.886719 L 378.621094 445.210938 L 378.621094 479.886719 L 390.496094 479.886719 L 390.496094 420.484375 Z M 515.183594 349.203125 C 515.183594 342.722656 512.578125 336.859375 508.367188 332.570312 L 450.710938 372.960938 L 437.996094 372.960938 L 437.996094 367.359375 L 496.867188 326.125 C 495.117188 325.714844 493.3125 325.441406 491.433594 325.441406 L 487.496094 325.441406 L 437.996094 360.113281 L 437.996094 325.441406 L 426.121094 325.441406 L 426.121094 384.84375 L 515.183594 384.84375 L 515.183594 372.960938 L 481.761719 372.960938 L 515.183594 349.550781 Z M 378.621094 325.441406 L 378.621094 360.113281 L 329.128906 325.441406 L 325.183594 325.441406 C 318.546875 325.441406 312.5625 328.179688 308.25 332.570312 L 365.910156 372.960938 L 345.207031 372.960938 L 302.367188 342.960938 C 301.820312 344.960938 301.433594 347.027344 301.433594 349.203125 L 301.433594 349.550781 L 334.851562 372.960938 L 301.433594 372.960938 L 301.433594 384.84375 L 390.496094 384.84375 L 390.496094 325.441406 Z M 378.621094 325.441406 " fill-opacity="1" fill-rule="nonzero"/><path fill="#cf1b2b" d="M 426.121094 384.84375 L 426.121094 325.441406 L 390.496094 325.441406 L 390.496094 384.84375 L 301.433594 384.84375 L 301.433594 420.484375 L 390.496094 420.484375 L 390.496094 479.886719 L 426.121094 479.886719 L 426.121094 420.484375 L 515.183594 420.484375 L 515.183594 384.84375 Z M 426.121094 384.84375 " fill-opacity="1" fill-rule="nonzero"/></g></svg>