<svg xmlns="http://www.w3.org/2000/svg" xmlns:xlink="http://www.w3.org/1999/xlink" zoomAndPan="magnify" preserveAspectRatio="xMidYMid meet" version="1.0" viewBox="139.55 150.66 86.25 62.25"><defs><clipPath id="3f845a1a31"><path d="M 139.554688 150.65625 L 225.804688 150.65625 L 225.804688 212.90625 L 139.554688 212.90625 Z M 139.554688 150.65625 " clip-rule="nonzero"/></clipPath></defs><g clip-path="url(#3f845a1a31)"><path fill="#00247d" d="M 139.554688 160.382812 L 139.554688 169.8125 L 153.035156 169.8125 Z M 150.726562 212.890625 L 170.699219 212.890625 L 170.699219 198.921875 Z M 194.65625 198.925781 L 194.65625 212.890625 L 214.625 212.890625 Z M 139.554688 193.746094 L 139.554688 203.175781 L 153.042969 193.746094 Z M 214.632812 150.667969 L 194.65625 150.667969 L 194.65625 164.636719 Z M 225.804688 203.179688 L 225.804688 193.746094 L 212.3125 193.746094 Z M 225.804688 169.8125 L 225.804688 160.382812 L 212.316406 169.8125 Z M 170.699219 150.667969 L 150.726562 150.667969 L 170.699219 164.636719 Z M 170.699219 150.667969 " fill-opacity="1" fill-rule="nonzero"/><path fill="#cf1b2b" d="M 199.785156 193.746094 L 223.050781 210.023438 C 224.179688 208.875 224.988281 207.433594 225.425781 205.835938 L 208.136719 193.746094 Z M 170.699219 193.746094 L 165.570312 193.746094 L 142.304688 210.019531 C 143.550781 211.289062 145.152344 212.195312 146.945312 212.617188 L 170.699219 196.003906 Z M 194.65625 169.8125 L 199.785156 169.8125 L 223.050781 153.539062 C 221.804688 152.269531 220.207031 151.363281 218.410156 150.941406 L 194.65625 167.554688 Z M 165.570312 169.8125 L 142.304688 153.539062 C 141.175781 154.6875 140.367188 156.128906 139.929688 157.726562 L 157.214844 169.8125 Z M 165.570312 169.8125 " fill-opacity="1" fill-rule="nonzero"/><path fill="#eeeeee" d="M 225.804688 188.960938 L 189.867188 188.960938 L 189.867188 212.890625 L 194.65625 212.890625 L 194.65625 198.925781 L 214.625 212.890625 L 216.21875 212.890625 C 218.894531 212.890625 221.3125 211.789062 223.050781 210.023438 L 199.785156 193.746094 L 208.136719 193.746094 L 225.425781 205.835938 C 225.648438 205.03125 225.804688 204.195312 225.804688 203.320312 L 225.804688 203.179688 L 212.3125 193.746094 L 225.804688 193.746094 Z M 139.554688 188.960938 L 139.554688 193.746094 L 153.042969 193.746094 L 139.554688 203.175781 L 139.554688 203.320312 C 139.554688 205.929688 140.605469 208.292969 142.304688 210.019531 L 165.570312 193.746094 L 170.699219 193.746094 L 170.699219 196.003906 L 146.945312 212.613281 C 147.652344 212.78125 148.378906 212.890625 149.136719 212.890625 L 150.726562 212.890625 L 170.699219 198.921875 L 170.699219 212.890625 L 175.492188 212.890625 L 175.492188 188.960938 Z M 225.804688 160.238281 C 225.804688 157.628906 224.75 155.265625 223.050781 153.539062 L 199.785156 169.8125 L 194.65625 169.8125 L 194.65625 167.554688 L 218.410156 150.941406 C 217.707031 150.777344 216.976562 150.667969 216.21875 150.667969 L 214.632812 150.667969 L 194.65625 164.636719 L 194.65625 150.667969 L 189.867188 150.667969 L 189.867188 174.597656 L 225.804688 174.597656 L 225.804688 169.8125 L 212.316406 169.8125 L 225.804688 160.382812 Z M 170.699219 150.667969 L 170.699219 164.636719 L 150.726562 150.667969 L 149.136719 150.667969 C 146.457031 150.667969 144.042969 151.769531 142.304688 153.539062 L 165.570312 169.8125 L 157.214844 169.8125 L 139.929688 157.726562 C 139.707031 158.53125 139.554688 159.363281 139.554688 160.238281 L 139.554688 160.382812 L 153.035156 169.8125 L 139.554688 169.8125 L 139.554688 174.597656 L 175.492188 174.597656 L 175.492188 150.667969 Z M 170.699219 150.667969 " fill-opacity="1" fill-rule="nonzero"/><path fill="#cf1b2b" d="M 189.867188 174.597656 L 189.867188 150.667969 L 175.492188 150.667969 L 175.492188 174.597656 L 139.554688 174.597656 L 139.554688 188.960938 L 175.492188 188.960938 L 175.492188 212.890625 L 189.867188 212.890625 L 189.867188 188.960938 L 225.804688 188.960938 L 225.804688 174.597656 Z M 189.867188 174.597656 " fill-opacity="1" fill-rule="nonzero"/></g></svg>