<svg xmlns="http://www.w3.org/2000/svg" xmlns:xlink="http://www.w3.org/1999/xlink" zoomAndPan="magnify" preserveAspectRatio="xMidYMid meet" version="1.0" viewBox="335.69 285.17 231.75 154.5"><defs><clipPath id="dea185d3de"><path d="M 335.691406 336 L 567.441406 336 L 567.441406 389 L 335.691406 389 Z M 335.691406 336 " clip-rule="nonzero"/></clipPath><clipPath id="6375d980cb"><path d="M 335.691406 388 L 567.441406 388 L 567.441406 439.671875 L 335.691406 439.671875 Z M 335.691406 388 " clip-rule="nonzero"/></clipPath><clipPath id="da4088997d"><path d="M 335.691406 285.171875 L 567.441406 285.171875 L 567.441406 337 L 335.691406 337 Z M 335.691406 285.171875 " clip-rule="nonzero"/></clipPath></defs><g clip-path="url(#dea185d3de)"><path fill="#000000" d="M 335.691406 336.707031 L 567.441406 336.707031 L 567.441406 388.136719 L 335.691406 388.136719 Z M 335.691406 336.707031 " fill-opacity="1" fill-rule="nonzero"/></g><g clip-path="url(#6375d980cb)"><path fill="#e6e6e6" d="M 567.441406 388.136719 L 567.441406 418.527344 C 567.441406 430.152344 558.011719 439.566406 546.375 439.566406 L 356.753906 439.566406 C 345.117188 439.566406 335.691406 430.152344 335.691406 418.558594 L 335.691406 388.167969 L 567.441406 388.167969 Z M 567.441406 388.136719 " fill-opacity="1" fill-rule="nonzero"/></g><g clip-path="url(#da4088997d)"><path fill="#3776c5" d="M 567.441406 306.316406 L 567.441406 336.707031 L 335.691406 336.707031 L 335.691406 306.316406 C 335.691406 294.691406 345.117188 285.277344 356.753906 285.277344 L 546.375 285.277344 C 558.011719 285.277344 567.441406 294.691406 567.441406 306.316406 Z M 567.441406 306.316406 " fill-opacity="1" fill-rule="nonzero"/></g></svg>