<svg xmlns="http://www.w3.org/2000/svg" xmlns:xlink="http://www.w3.org/1999/xlink" zoomAndPan="magnify" preserveAspectRatio="xMidYMid meet" version="1.0" viewBox="144.48 158.79 86.25 57.75"><defs><clipPath id="1729d992c8"><path d="M 144.480469 178 L 230.730469 178 L 230.730469 198 L 144.480469 198 Z M 144.480469 178 " clip-rule="nonzero"/></clipPath><clipPath id="fdc0cb28d1"><path d="M 144.480469 197 L 230.730469 197 L 230.730469 216.535156 L 144.480469 216.535156 Z M 144.480469 197 " clip-rule="nonzero"/></clipPath><clipPath id="18bcfbe520"><path d="M 144.480469 158.785156 L 230.730469 158.785156 L 230.730469 179 L 144.480469 179 Z M 144.480469 158.785156 " clip-rule="nonzero"/></clipPath></defs><g clip-path="url(#1729d992c8)"><path fill="#000000" d="M 144.480469 178.046875 L 230.730469 178.046875 L 230.730469 197.273438 L 144.480469 197.273438 Z M 144.480469 178.046875 " fill-opacity="1" fill-rule="nonzero"/></g><g clip-path="url(#fdc0cb28d1)"><path fill="#e6e6e6" d="M 230.730469 197.273438 L 230.730469 208.632812 C 230.730469 212.976562 227.222656 216.496094 222.890625 216.496094 L 152.320312 216.496094 C 147.992188 216.496094 144.480469 212.976562 144.480469 208.644531 L 144.480469 197.285156 L 230.730469 197.285156 Z M 230.730469 197.273438 " fill-opacity="1" fill-rule="nonzero"/></g><g clip-path="url(#18bcfbe520)"><path fill="#3776c5" d="M 230.730469 166.6875 L 230.730469 178.046875 L 144.480469 178.046875 L 144.480469 166.6875 C 144.480469 162.34375 147.992188 158.824219 152.320312 158.824219 L 222.890625 158.824219 C 227.222656 158.824219 230.730469 162.34375 230.730469 166.6875 Z M 230.730469 166.6875 " fill-opacity="1" fill-rule="nonzero"/></g></svg>