<svg xmlns="http://www.w3.org/2000/svg" xmlns:xlink="http://www.w3.org/1999/xlink" zoomAndPan="magnify" preserveAspectRatio="xMidYMid meet" version="1.0" viewBox="161.16 154.61 52.66 52.66"><defs><clipPath id="0d6c875d2e"><path d="M 161.164062 154.609375 L 213.664062 154.609375 L 213.664062 207.109375 L 161.164062 207.109375 Z M 161.164062 154.609375 " clip-rule="nonzero"/></clipPath></defs><path fill="#eeeeee" d="M 187.496094 175.105469 C 184.28125 175.105469 181.660156 177.726562 181.660156 180.941406 C 181.660156 184.15625 184.28125 186.777344 187.496094 186.777344 C 190.710938 186.777344 193.332031 184.15625 193.332031 180.941406 C 193.332031 177.726562 190.710938 175.105469 187.496094 175.105469 Z M 187.496094 175.105469 " fill-opacity="1" fill-rule="nonzero"/><path fill="#eeeeee" d="M 195.335938 166.621094 L 179.652344 166.621094 C 176.09375 166.621094 173.175781 169.519531 173.175781 173.097656 L 173.175781 188.78125 C 173.175781 192.339844 176.074219 195.257812 179.652344 195.257812 L 195.335938 195.257812 C 198.894531 195.257812 201.8125 192.363281 201.8125 188.78125 L 201.8125 173.097656 C 201.789062 169.519531 198.894531 166.621094 195.335938 166.621094 Z M 187.496094 189.71875 C 182.636719 189.71875 178.695312 185.773438 178.695312 180.917969 C 178.695312 176.0625 182.636719 172.117188 187.496094 172.117188 C 192.351562 172.117188 196.292969 176.0625 196.292969 180.917969 C 196.273438 185.773438 192.328125 189.71875 187.496094 189.71875 Z M 196.910156 173.597656 C 195.746094 173.597656 194.789062 172.640625 194.789062 171.480469 C 194.789062 170.316406 195.746094 169.359375 196.910156 169.359375 C 198.074219 169.359375 199.03125 170.316406 199.03125 171.480469 C 199.03125 172.664062 198.097656 173.597656 196.910156 173.597656 Z M 196.910156 173.597656 " fill-opacity="1" fill-rule="nonzero"/><g clip-path="url(#0d6c875d2e)"><path fill="#eeeeee" d="M 187.496094 154.609375 C 172.949219 154.609375 161.164062 166.394531 161.164062 180.941406 C 161.164062 195.484375 172.949219 207.273438 187.496094 207.273438 C 202.039062 207.273438 213.828125 195.484375 213.828125 180.941406 C 213.804688 166.394531 202.015625 154.609375 187.496094 154.609375 Z M 204.753906 188.78125 C 204.753906 193.980469 200.511719 198.222656 195.3125 198.222656 L 179.652344 198.222656 C 174.453125 198.222656 170.214844 193.980469 170.214844 188.78125 L 170.214844 173.097656 C 170.214844 167.898438 174.453125 163.660156 179.652344 163.660156 L 195.335938 163.660156 C 200.535156 163.660156 204.777344 167.898438 204.777344 173.097656 L 204.777344 188.78125 Z M 204.753906 188.78125 " fill-opacity="1" fill-rule="nonzero"/></g></svg>