<svg xmlns="http://www.w3.org/2000/svg" xmlns:xlink="http://www.w3.org/1999/xlink" width="500" zoomAndPan="magnify" viewBox="0 0 375 374.999991" height="500" preserveAspectRatio="xMidYMid meet" version="1.0"><defs><g/><clipPath id="20462af117"><path d="M 42.464844 39.0625 L 337.859375 39.0625 L 337.859375 334.457031 L 42.464844 334.457031 Z M 42.464844 39.0625 " clip-rule="nonzero"/></clipPath><clipPath id="b99bf5eac8"><path d="M 190.160156 39.0625 C 108.589844 39.0625 42.464844 105.1875 42.464844 186.757812 C 42.464844 268.332031 108.589844 334.457031 190.160156 334.457031 C 271.730469 334.457031 337.859375 268.332031 337.859375 186.757812 C 337.859375 105.1875 271.730469 39.0625 190.160156 39.0625 Z M 190.160156 39.0625 " clip-rule="nonzero"/></clipPath><clipPath id="8eb4bfee53"><path d="M 92 222 L 281 222 L 281 284 L 92 284 Z M 92 222 " clip-rule="nonzero"/></clipPath><clipPath id="a77454a805"><path d="M 90.769531 235.699219 L 276.957031 221.210938 L 282.25 289.253906 L 96.0625 303.742188 Z M 90.769531 235.699219 " clip-rule="nonzero"/></clipPath><clipPath id="f76e6837f9"><path d="M 277.0625 221.203125 L 90.875 235.691406 L 96.167969 303.734375 L 282.355469 289.246094 Z M 277.0625 221.203125 " clip-rule="nonzero"/></clipPath></defs><path fill="#d13627" d="M 359.292969 219.582031 C 364.441406 237.367188 354.910156 263.542969 339.554688 273.859375 C 324.195312 284.171875 307.320312 304.417969 299.777344 321.347656 C 292.238281 338.277344 268.050781 352.21875 249.671875 350.214844 C 231.296875 348.207031 205.34375 352.867188 188.695312 361.050781 C 172.042969 369.238281 144.574219 364.296875 131.746094 350.929688 C 118.917969 337.558594 96.074219 324.417969 78.046875 320.039062 C 60.015625 315.65625 42.128906 294.207031 40.925781 275.65625 C 39.71875 257.105469 30.699219 232.410156 19.738281 217.453125 C 8.777344 202.496094 8.757812 174.660156 19.738281 159.703125 C 30.714844 144.746094 39.703125 119.964844 40.925781 101.445312 C 42.144531 82.929688 60.121094 61.480469 78.046875 57.097656 C 95.96875 52.71875 118.917969 39.648438 131.746094 26.226562 C 144.574219 12.804688 172.0625 7.9375 188.710938 16.121094 C 205.363281 24.304688 231.242188 28.964844 249.671875 26.960938 C 268.101562 24.953125 292.238281 38.878906 299.796875 55.753906 C 307.355469 72.632812 324.230469 92.929688 339.554688 103.242188 C 354.875 113.558594 364.441406 139.753906 359.292969 157.519531 C 354.144531 175.289062 354.144531 201.796875 359.292969 219.582031 Z M 359.292969 219.582031 " fill-opacity="1" fill-rule="nonzero"/><g clip-path="url(#20462af117)"><g clip-path="url(#b99bf5eac8)"><path stroke-linecap="butt" transform="matrix(0.75, 0, 0, 0.75, 42.463903, 39.062392)" fill="none" stroke-linejoin="miter" d="M 196.928351 0.000143473 C 88.167927 0.000143473 0.00125498 88.166816 0.00125498 196.92724 C 0.00125498 305.692872 88.167927 393.859544 196.928351 393.859544 C 305.688775 393.859544 393.860656 305.692872 393.860656 196.92724 C 393.860656 88.166816 305.688775 0.000143473 196.928351 0.000143473 Z M 196.928351 0.000143473 " stroke="#f6f3e1" stroke-width="2" stroke-opacity="1" stroke-miterlimit="4"/></g></g><g clip-path="url(#8eb4bfee53)"><g clip-path="url(#a77454a805)"><g clip-path="url(#f76e6837f9)"><path fill="#f6f3e1" d="M 100.882812 238.023438 C 113.945312 237.5 138.671875 236.535156 161.902344 235.335938 C 162.128906 237.699219 162.207031 240.078125 162.148438 242.457031 C 162.039062 245.914062 161.65625 249.355469 161.132812 252.789062 L 161.488281 252.847656 C 163.335938 249.65625 164.453125 246.152344 165.019531 242.550781 C 165.398438 240.117188 165.53125 237.632812 165.414062 235.15625 C 183.191406 234.210938 199.683594 233.132812 208.839844 232.019531 C 240.421875 228.160156 254.765625 222.988281 261.074219 222.917969 C 269.246094 222.824219 272.753906 229.390625 272.421875 236.992188 C 271.902344 248.769531 274.914062 260.664062 280.921875 270.800781 C 280.921875 270.800781 241.730469 292.03125 163.890625 279.136719 C 164.152344 273.886719 164.011719 268.46875 163.125 263.285156 C 162.582031 260.09375 161.855469 256.847656 159.332031 254.671875 C 155.429688 251.308594 149.703125 250.152344 144.691406 250.179688 C 137.15625 250.21875 131.453125 251.292969 124.179688 253.191406 C 117.652344 254.890625 109.835938 253.90625 103.4375 256.53125 C 101.527344 257.316406 100.007812 259.679688 96.140625 258.601562 C 94.191406 258.054688 91.609375 246.402344 93.074219 243.234375 C 94.480469 240.199219 97.539062 238.160156 100.882812 238.023438 Z M 260.488281 229.433594 C 258.019531 229.625 256.171875 231.78125 256.363281 234.253906 C 256.554688 236.726562 258.710938 238.570312 261.183594 238.378906 C 263.65625 238.1875 265.5 236.03125 265.308594 233.558594 C 265.117188 231.085938 262.957031 229.242188 260.488281 229.433594 Z M 207.328125 275.382812 L 207.371094 275.394531 C 212.800781 276.71875 218.308594 277.148438 223.804688 277.125 C 226.558594 277.171875 229.289062 276.917969 232.035156 276.746094 C 234.769531 276.464844 237.484375 276.070312 240.203125 275.660156 C 242.894531 275.113281 245.585938 274.570312 248.25 273.894531 C 250.886719 273.128906 253.539062 272.429688 256.117188 271.453125 C 261.292969 269.605469 266.324219 267.324219 270.984375 264.25 L 271.023438 264.222656 C 271.113281 264.164062 271.136719 264.042969 271.078125 263.953125 C 271.027344 263.878906 270.9375 263.847656 270.855469 263.878906 C 265.734375 265.570312 260.554688 267.082031 255.335938 268.421875 C 250.109375 269.75 244.832031 270.867188 239.523438 271.777344 C 234.21875 272.726562 228.875 273.472656 223.511719 274 C 218.144531 274.515625 212.761719 274.851562 207.371094 275.007812 C 207.265625 275.011719 207.183594 275.101562 207.183594 275.207031 C 207.183594 275.289062 207.242188 275.363281 207.328125 275.382812 Z M 136.097656 246.597656 C 137.605469 246.480469 138.734375 245.160156 138.617188 243.652344 C 138.5 242.144531 137.183594 241.015625 135.671875 241.132812 C 134.164062 241.25 133.039062 242.570312 133.15625 244.078125 C 133.273438 245.585938 134.589844 246.714844 136.097656 246.597656 Z M 108.359375 248.753906 C 109.867188 248.636719 110.996094 247.320312 110.878906 245.8125 C 110.761719 244.304688 109.445312 243.175781 107.933594 243.292969 C 106.425781 243.410156 105.300781 244.726562 105.417969 246.234375 C 105.53125 247.746094 106.847656 248.871094 108.359375 248.753906 Z M 108.359375 248.753906 " fill-opacity="1" fill-rule="nonzero"/></g></g></g><g fill="#f6f3e1" fill-opacity="1"><g transform="translate(104.518185, 158.536903)"><g><path d="M 64.558594 -24.421875 C 64.097656 -24.605469 63.652344 -24.644531 63.132812 -24.601562 C 61.734375 -24.488281 60.402344 -23.492188 59.925781 -22.042969 C 58.742188 -18.308594 55.914062 -11.921875 50.601562 -11.492188 C 50.308594 -11.46875 50.226562 -11.535156 50.226562 -11.535156 C 50.226562 -11.535156 49.753906 -11.871094 49.484375 -13.40625 C 48.09375 -21.460938 54.144531 -41.328125 60.882812 -50.777344 C 62.085938 -52.433594 61.679688 -54.703125 60.023438 -55.90625 C 59.3125 -56.441406 58.402344 -56.667969 57.59375 -56.601562 C 56.484375 -56.511719 55.488281 -55.988281 54.820312 -55.042969 C 51.882812 -50.945312 48.960938 -44.84375 46.523438 -38.191406 C 45.691406 -37.457031 42.285156 -34.582031 36.21875 -32.460938 C 37.542969 -37.246094 38.515625 -41.777344 39.335938 -45.40625 C 39.765625 -47.445312 40.140625 -49.257812 40.4375 -50.175781 C 40.785156 -51.390625 40.539062 -52.632812 39.722656 -53.53125 C 38.976562 -54.511719 37.820312 -55.011719 36.566406 -54.910156 C 27.714844 -54.199219 20.414062 -51.757812 15.308594 -47.855469 C 10.558594 -44.132812 8.054688 -39.253906 8.445312 -34.386719 C 8.933594 -28.335938 14.402344 -22.167969 25.269531 -22.746094 C 25.203125 -22.667969 25.203125 -22.667969 25.136719 -22.585938 C 22.589844 -16.367188 18.363281 -8.902344 12.832031 -8.457031 C 11.136719 -8.320312 8.160156 -8.378906 7.195312 -10.230469 C 6.488281 -11.660156 6.972656 -13.925781 8.261719 -15.4375 C 9.617188 -17.03125 9.433594 -19.320312 7.839844 -20.675781 C 7.117188 -21.359375 6.136719 -21.578125 5.175781 -21.5 C 4.21875 -21.425781 3.28125 -21.050781 2.601562 -20.253906 C -0.648438 -16.355469 -1.472656 -10.945312 0.632812 -6.882812 C 1.613281 -4.882812 4.867188 -0.390625 13.425781 -1.078125 C 23.3125 -1.875 29.578125 -12.550781 33.632812 -24.011719 C 37.496094 -24.917969 40.738281 -26.144531 43.382812 -27.394531 C 41.777344 -20.582031 40.992188 -12.800781 43.597656 -8.109375 C 45.15625 -5.339844 47.949219 -3.855469 51.195312 -4.117188 C 58.277344 -4.6875 63.917969 -10.261719 67.011719 -19.792969 C 67.601562 -21.695312 66.535156 -23.835938 64.558594 -24.421875 Z M 27.992188 -30.464844 C 27.113281 -30.320312 26.226562 -30.246094 25.339844 -30.175781 C 19.882812 -29.738281 16.089844 -31.660156 15.824219 -34.980469 C 15.632812 -37.339844 17.066406 -39.832031 19.863281 -41.984375 C 22.023438 -43.71875 25.871094 -45.734375 32.089844 -46.902344 C 31.167969 -42.671875 29.871094 -36.628906 27.992188 -30.464844 Z M 27.992188 -30.464844 "/></g></g></g><g fill="#f6f3e1" fill-opacity="1"><g transform="translate(168.694059, 153.377026)"><g><path d="M 29.882812 -21.707031 C 29.429688 -21.816406 29.054688 -21.863281 28.609375 -21.828125 C 27.136719 -21.707031 25.8125 -20.636719 25.339844 -19.113281 C 23.785156 -13.496094 20.050781 -9.183594 18.210938 -8.964844 C 17.703125 -9.738281 17.140625 -13.035156 18.84375 -17.699219 C 19.582031 -19.617188 18.597656 -21.691406 16.683594 -22.425781 C 16.148438 -22.605469 15.699219 -22.644531 15.183594 -22.601562 C 12.527344 -22.390625 11.808594 -20.253906 11.175781 -17.976562 C 9.515625 -11.828125 5.601562 -7.875 3.980469 -7.746094 C 3.167969 -7.679688 3.003906 -7.890625 2.917969 -8.03125 C 2.347656 -8.652344 1.859375 -11.0625 2.828125 -14.703125 C 4.148438 -19.488281 7.519531 -24.660156 11.277344 -25.035156 C 12.03125 -23.984375 13.335938 -23.421875 14.589844 -23.519531 C 15.179688 -23.566406 15.832031 -23.769531 16.394531 -24.183594 C 18.082031 -25.359375 18.414062 -27.6875 17.238281 -29.375 C 15.734375 -31.484375 13.339844 -32.625 10.757812 -32.417969 C 3.160156 -31.808594 -2.308594 -24.09375 -4.308594 -16.65625 C -5.792969 -11.117188 -5.25 -6.1875 -2.785156 -3.265625 C -1.058594 -1.175781 1.621094 -0.128906 4.574219 -0.367188 C 7.375 -0.59375 9.988281 -2.289062 12.242188 -4.695312 C 12.25 -4.621094 12.335938 -4.480469 12.414062 -4.414062 C 13.988281 -2.386719 16.222656 -1.378906 18.730469 -1.582031 C 25 -2.085938 30.53125 -9.953125 32.476562 -17.164062 C 32.984375 -19.132812 31.859375 -21.121094 29.882812 -21.707031 Z M 29.882812 -21.707031 "/></g></g></g><g fill="#f6f3e1" fill-opacity="1"><g transform="translate(198.347751, 150.992807)"><g><path d="M 21.839844 -16.457031 C 22.351562 -18.429688 21.21875 -20.488281 19.25 -21 C 18.792969 -21.113281 18.34375 -21.148438 17.976562 -21.121094 C 16.425781 -20.996094 15.101562 -19.925781 14.707031 -18.40625 C 13.433594 -13.925781 9.570312 -8.417969 4.554688 -8.011719 C 4.160156 -8.277344 2.785156 -10.617188 3.253906 -17.710938 C 5.171875 -21.574219 8.769531 -26.691406 11.964844 -31.253906 C 19.828125 -42.429688 24.128906 -48.9375 21.367188 -53.761719 C 19.988281 -56.101562 17.382812 -57.15625 13.546875 -56.847656 C 8.601562 -56.449219 4.117188 -50.371094 0.21875 -38.847656 C -2.894531 -29.539062 -7.257812 -12.707031 -1.984375 -4.371094 C -0.285156 -1.683594 2.34375 -0.410156 5.292969 -0.648438 C 13.480469 -1.308594 19.761719 -9.085938 21.839844 -16.457031 Z M 14.582031 -49.503906 C 12.972656 -45.515625 10.375 -41.816406 7.90625 -38.351562 C 7.960938 -38.578125 8.089844 -38.8125 8.144531 -39.039062 C 11.027344 -46.621094 13.492188 -49.195312 14.285156 -49.480469 C 14.359375 -49.488281 14.433594 -49.492188 14.582031 -49.503906 Z M 14.582031 -49.503906 "/></g></g></g><g fill="#f6f3e1" fill-opacity="1"><g transform="translate(217.452989, 149.456705)"><g><path d="M 29.882812 -21.707031 C 29.429688 -21.816406 29.054688 -21.863281 28.609375 -21.828125 C 27.136719 -21.707031 25.8125 -20.636719 25.339844 -19.113281 C 23.785156 -13.496094 20.050781 -9.183594 18.210938 -8.964844 C 17.703125 -9.738281 17.140625 -13.035156 18.84375 -17.699219 C 19.582031 -19.617188 18.597656 -21.691406 16.683594 -22.425781 C 16.148438 -22.605469 15.699219 -22.644531 15.183594 -22.601562 C 12.527344 -22.390625 11.808594 -20.253906 11.175781 -17.976562 C 9.515625 -11.828125 5.601562 -7.875 3.980469 -7.746094 C 3.167969 -7.679688 3.003906 -7.890625 2.917969 -8.03125 C 2.347656 -8.652344 1.859375 -11.0625 2.828125 -14.703125 C 4.148438 -19.488281 7.519531 -24.660156 11.277344 -25.035156 C 12.03125 -23.984375 13.335938 -23.421875 14.589844 -23.519531 C 15.179688 -23.566406 15.832031 -23.769531 16.394531 -24.183594 C 18.082031 -25.359375 18.414062 -27.6875 17.238281 -29.375 C 15.734375 -31.484375 13.339844 -32.625 10.757812 -32.417969 C 3.160156 -31.808594 -2.308594 -24.09375 -4.308594 -16.65625 C -5.792969 -11.117188 -5.25 -6.1875 -2.785156 -3.265625 C -1.058594 -1.175781 1.621094 -0.128906 4.574219 -0.367188 C 7.375 -0.59375 9.988281 -2.289062 12.242188 -4.695312 C 12.25 -4.621094 12.335938 -4.480469 12.414062 -4.414062 C 13.988281 -2.386719 16.222656 -1.378906 18.730469 -1.582031 C 25 -2.085938 30.53125 -9.953125 32.476562 -17.164062 C 32.984375 -19.132812 31.859375 -21.121094 29.882812 -21.707031 Z M 29.882812 -21.707031 "/></g></g></g><g fill="#f6f3e1" fill-opacity="1"><g transform="translate(247.10668, 147.072486)"><g><path d="M 21.839844 -16.457031 C 22.351562 -18.429688 21.21875 -20.488281 19.25 -21 C 18.792969 -21.113281 18.34375 -21.148438 17.976562 -21.121094 C 16.425781 -20.996094 15.101562 -19.925781 14.707031 -18.40625 C 13.433594 -13.925781 9.570312 -8.417969 4.554688 -8.011719 C 4.160156 -8.277344 2.785156 -10.617188 3.253906 -17.710938 C 5.171875 -21.574219 8.769531 -26.691406 11.964844 -31.253906 C 19.828125 -42.429688 24.128906 -48.9375 21.367188 -53.761719 C 19.988281 -56.101562 17.382812 -57.15625 13.546875 -56.847656 C 8.601562 -56.449219 4.117188 -50.371094 0.21875 -38.847656 C -2.894531 -29.539062 -7.257812 -12.707031 -1.984375 -4.371094 C -0.285156 -1.683594 2.34375 -0.410156 5.292969 -0.648438 C 13.480469 -1.308594 19.761719 -9.085938 21.839844 -16.457031 Z M 14.582031 -49.503906 C 12.972656 -45.515625 10.375 -41.816406 7.90625 -38.351562 C 7.960938 -38.578125 8.089844 -38.8125 8.144531 -39.039062 C 11.027344 -46.621094 13.492188 -49.195312 14.285156 -49.480469 C 14.359375 -49.488281 14.433594 -49.492188 14.582031 -49.503906 Z M 14.582031 -49.503906 "/></g></g></g><g fill="#f6f3e1" fill-opacity="1"><g transform="translate(112.269413, 214.091003)"><g><path d="M 83 -25.902344 C 82.546875 -26.015625 82.097656 -26.054688 81.730469 -26.023438 C 80.179688 -25.898438 78.855469 -24.828125 78.457031 -23.308594 C 77.484375 -19.742188 74.050781 -16.273438 70.941406 -14.316406 C 70.898438 -26.859375 74.128906 -41.152344 79.710938 -52.070312 C 80.476562 -53.617188 80.105469 -55.441406 78.824219 -56.601562 C 78.035156 -57.207031 77.046875 -57.496094 76.085938 -57.421875 C 75.421875 -57.367188 74.769531 -57.167969 74.210938 -56.75 C 64.816406 -49.832031 56.386719 -39.28125 49.761719 -28.425781 C 51.476562 -35.691406 53.808594 -42.710938 56.449219 -48.640625 C 57.144531 -50.179688 56.78125 -51.933594 55.503906 -53.019531 C 54.78125 -53.703125 53.792969 -53.996094 52.832031 -53.917969 C 52.242188 -53.871094 51.664062 -53.675781 51.097656 -53.332031 C 37.484375 -44.441406 30.214844 -32.351562 24.316406 -22.59375 C 19.804688 -15.03125 16.203125 -9.023438 11.800781 -8.375 C 10.175781 -8.242188 9.109375 -8.601562 8.75 -9.390625 C 8.039062 -10.816406 8.476562 -13.675781 10.585938 -16.070312 C 11.871094 -17.660156 11.6875 -19.945312 10.164062 -21.308594 C 9.367188 -21.988281 8.386719 -22.207031 7.425781 -22.128906 C 6.46875 -22.050781 5.605469 -21.683594 4.929688 -20.886719 C 1.0625 -16.34375 -0.09375 -10.386719 2.113281 -6.035156 C 4.214844 -2.046875 8.335938 -0.671875 12.613281 -1.015625 C 20.625 -2.03125 25.269531 -9.828125 30.710938 -18.804688 C 34.378906 -24.890625 38.703125 -32.066406 44.792969 -38.496094 C 40.515625 -24.269531 38.742188 -8.460938 39.375 -6.136719 C 40.386719 -2.800781 44.1875 -3.550781 43.226562 -3.476562 C 44.554688 -3.582031 45.824219 -4.425781 46.386719 -5.734375 C 50.867188 -16.488281 58.203125 -29.625 67.167969 -40 C 64.285156 -29.667969 62.957031 -18.5 63.734375 -8.835938 C 63.898438 -6.769531 65.726562 -5.285156 67.71875 -5.445312 C 73.988281 -5.949219 83.359375 -13.160156 85.59375 -21.359375 C 86.105469 -23.332031 84.972656 -25.394531 83 -25.902344 Z M 83 -25.902344 "/></g></g></g><g fill="#f6f3e1" fill-opacity="1"><g transform="translate(195.034152, 207.436542)"><g><path d="M 29.746094 -16.945312 C 30.328125 -18.921875 29.203125 -20.910156 27.226562 -21.492188 C 26.773438 -21.605469 26.324219 -21.644531 25.882812 -21.605469 C 24.480469 -21.496094 23.148438 -20.496094 22.679688 -18.972656 C 20.867188 -12.886719 10.984375 -8.382812 4.636719 -7.871094 C 2.867188 -7.730469 2.476562 -7.996094 2.339844 -9.691406 C 2.304688 -10.132812 2.324219 -10.804688 2.398438 -11.699219 C 3.671875 -11.582031 4.933594 -11.609375 6.039062 -11.695312 C 12.457031 -12.210938 15.75 -15.59375 17.019531 -17.332031 C 19.492188 -20.722656 19.894531 -24.988281 18.070312 -28.253906 C 16.425781 -31.167969 13.332031 -32.699219 9.71875 -32.410156 C 0.867188 -31.699219 -5.414062 -17.457031 -5.050781 -9.246094 C -4.890625 -6.363281 -3.898438 -4.140625 -2.0625 -2.582031 C -0.789062 -1.496094 1.46875 -0.191406 5.230469 -0.496094 C 13.417969 -1.152344 26.847656 -6.835938 29.746094 -16.945312 Z M 10.3125 -25.03125 C 11.34375 -25.117188 11.523438 -24.757812 11.609375 -24.617188 C 11.949219 -24.050781 11.898438 -22.859375 11.027344 -21.675781 C 9.558594 -19.625 6.996094 -19.199219 4.707031 -19.015625 C 6.636719 -22.734375 9.132812 -24.9375 10.3125 -25.03125 Z M 10.3125 -25.03125 "/></g></g></g><g fill="#f6f3e1" fill-opacity="1"><g transform="translate(221.9585, 205.271768)"><g><path d="M 29.882812 -21.707031 C 29.429688 -21.816406 29.054688 -21.863281 28.609375 -21.828125 C 27.136719 -21.707031 25.8125 -20.636719 25.339844 -19.113281 C 23.785156 -13.496094 20.050781 -9.183594 18.210938 -8.964844 C 17.703125 -9.738281 17.140625 -13.035156 18.84375 -17.699219 C 19.582031 -19.617188 18.597656 -21.691406 16.683594 -22.425781 C 16.148438 -22.605469 15.699219 -22.644531 15.183594 -22.601562 C 12.527344 -22.390625 11.808594 -20.253906 11.175781 -17.976562 C 9.515625 -11.828125 5.601562 -7.875 3.980469 -7.746094 C 3.167969 -7.679688 3.003906 -7.890625 2.917969 -8.03125 C 2.347656 -8.652344 1.859375 -11.0625 2.828125 -14.703125 C 4.148438 -19.488281 7.519531 -24.660156 11.277344 -25.035156 C 12.03125 -23.984375 13.335938 -23.421875 14.589844 -23.519531 C 15.179688 -23.566406 15.832031 -23.769531 16.394531 -24.183594 C 18.082031 -25.359375 18.414062 -27.6875 17.238281 -29.375 C 15.734375 -31.484375 13.339844 -32.625 10.757812 -32.417969 C 3.160156 -31.808594 -2.308594 -24.09375 -4.308594 -16.65625 C -5.792969 -11.117188 -5.25 -6.1875 -2.785156 -3.265625 C -1.058594 -1.175781 1.621094 -0.128906 4.574219 -0.367188 C 7.375 -0.59375 9.988281 -2.289062 12.242188 -4.695312 C 12.25 -4.621094 12.335938 -4.480469 12.414062 -4.414062 C 13.988281 -2.386719 16.222656 -1.378906 18.730469 -1.582031 C 25 -2.085938 30.53125 -9.953125 32.476562 -17.164062 C 32.984375 -19.132812 31.859375 -21.121094 29.882812 -21.707031 Z M 29.882812 -21.707031 "/></g></g></g><g fill="#f6f3e1" fill-opacity="1"><g transform="translate(251.612191, 202.887548)"><g><path d="M 16.164062 -20.601562 C 15.707031 -20.714844 15.332031 -20.757812 14.890625 -20.722656 C 13.414062 -20.605469 12.015625 -19.527344 11.617188 -18.011719 C 10.117188 -12.691406 4.859375 -7.890625 2.652344 -7.636719 C 2.230469 -8.273438 1.59375 -10.671875 2.753906 -14.699219 C 3.714844 -18.414062 4.917969 -21.925781 6.027344 -24.761719 C 6.09375 -24.84375 6.089844 -24.917969 6.15625 -24.996094 L 6.691406 -26.671875 L 11.558594 -27.0625 C 13.625 -27.230469 15.117188 -28.984375 14.949219 -31.046875 C 14.785156 -33.113281 13.03125 -34.605469 10.964844 -34.441406 L 9.121094 -34.292969 L 9.941406 -37.03125 C 10.597656 -39.015625 9.542969 -41.082031 7.558594 -41.738281 C 7.105469 -41.851562 6.648438 -41.964844 6.207031 -41.925781 C 4.730469 -41.808594 3.402344 -40.8125 2.929688 -39.289062 L 1.082031 -33.644531 L -3.789062 -33.253906 C -5.851562 -33.089844 -7.34375 -31.335938 -7.179688 -29.269531 C -7.011719 -27.203125 -5.257812 -25.710938 -3.195312 -25.878906 L -1.425781 -26.019531 C -2.457031 -23.1875 -3.46875 -20.0625 -4.382812 -16.648438 C -6.003906 -10.949219 -5.441406 -5.800781 -2.972656 -2.804688 C -1.492188 -0.992188 0.738281 -0.0585938 3.171875 -0.253906 C 9.074219 -0.730469 16.625 -8.390625 18.753906 -16.058594 C 19.265625 -18.03125 18.140625 -20.019531 16.164062 -20.601562 Z M 16.164062 -20.601562 "/></g></g></g><g fill="#f6f3e1" fill-opacity="1"><g transform="translate(157.982682, 306.685813)"><g><path d="M 1.59375 0.320312 L 8.414062 1.695312 L 8.675781 0.414062 L 3.230469 -0.683594 L 3.96875 -4.34375 L 8.847656 -3.359375 L 9.105469 -4.625 L 4.222656 -5.609375 L 4.921875 -9.066406 L 10.191406 -8.003906 L 10.449219 -9.289062 L 3.804688 -10.628906 Z M 1.59375 0.320312 "/></g></g></g><g fill="#f6f3e1" fill-opacity="1"><g transform="translate(172.596362, 309.348407)"><g><path d="M 1.621094 0.148438 L 8.546875 0.792969 L 8.667969 -0.511719 L 3.140625 -1.023438 L 3.484375 -4.742188 L 8.441406 -4.28125 L 8.558594 -5.570312 L 3.601562 -6.027344 L 3.929688 -9.539062 L 9.28125 -9.042969 L 9.402344 -10.347656 L 2.652344 -10.972656 Z M 1.621094 0.148438 "/></g></g></g><g fill="#f6f3e1" fill-opacity="1"><g transform="translate(187.423801, 310.453715)"><g><path d="M 5.347656 0.117188 C 7.789062 0.0742188 9.347656 -1.148438 9.316406 -3.09375 C 9.289062 -4.738281 8.171875 -5.707031 5.300781 -6.359375 C 3.125 -6.851562 2.394531 -7.414062 2.378906 -8.339844 C 2.363281 -9.40625 3.308594 -10.09375 4.902344 -10.121094 C 6.546875 -10.148438 7.582031 -9.335938 7.636719 -7.996094 L 9.023438 -8.019531 C 8.972656 -10.191406 7.386719 -11.503906 4.882812 -11.460938 C 2.441406 -11.417969 0.914062 -10.195312 0.945312 -8.316406 C 0.972656 -6.589844 2.21875 -5.65625 4.972656 -5.046875 C 6.992188 -4.601562 7.847656 -4.058594 7.863281 -3.019531 C 7.882812 -1.921875 6.90625 -1.25 5.324219 -1.222656 C 3.585938 -1.195312 2.359375 -2.035156 2.304688 -3.46875 L 0.898438 -3.445312 C 0.953125 -1.261719 2.683594 0.164062 5.347656 0.117188 Z M 5.347656 0.117188 "/></g></g></g><g fill="#f6f3e1" fill-opacity="1"><g transform="translate(202.991637, 309.892362)"><g><path d="M 4.289062 -0.550781 L 5.683594 -0.730469 L 4.429688 -10.480469 L 8.164062 -10.957031 L 7.996094 -12.289062 L -0.882812 -11.148438 L -0.714844 -9.816406 L 3.039062 -10.300781 Z M 4.289062 -0.550781 "/></g></g></g><g fill="#f6f3e1" fill-opacity="1"><g transform="translate(218.013804, 307.610484)"><g><path d="M 1.589844 -0.351562 L 2.960938 -0.652344 L 0.550781 -11.5625 L -0.820312 -11.257812 Z M 1.589844 -0.351562 "/></g></g></g></svg>