<svg xmlns="http://www.w3.org/2000/svg" xmlns:xlink="http://www.w3.org/1999/xlink" zoomAndPan="magnify" preserveAspectRatio="xMidYMid meet" version="1.0" viewBox="155.4 155.4 52.5 52.5"><defs><clipPath id="08edf65e9b"><path d="M 155.402344 155.402344 L 207.902344 155.402344 L 207.902344 207.902344 L 155.402344 207.902344 Z M 155.402344 155.402344 " clip-rule="nonzero"/></clipPath></defs><g clip-path="url(#08edf65e9b)"><path fill="#eeeeee" d="M 181.542969 155.402344 C 167.101562 155.402344 155.402344 167.101562 155.402344 181.542969 C 155.402344 195.980469 167.101562 207.679688 181.542969 207.679688 C 195.980469 207.679688 207.679688 195.980469 207.679688 181.542969 C 207.65625 167.101562 195.957031 155.402344 181.542969 155.402344 Z M 181.542969 198.832031 C 179.777344 198.832031 178.054688 198.605469 176.449219 198.175781 L 172.351562 200.347656 C 171.199219 200.957031 169.773438 200.121094 169.773438 198.808594 L 169.773438 194.960938 C 165.496094 191.746094 162.757812 186.835938 162.757812 181.335938 C 162.757812 171.675781 171.152344 163.84375 181.542969 163.84375 C 191.90625 163.84375 200.324219 171.675781 200.324219 181.335938 C 200.324219 191 191.90625 198.832031 181.542969 198.832031 Z M 181.542969 198.832031 " fill-opacity="1" fill-rule="nonzero"/></g><path fill="#eeeeee" d="M 168.574219 187.652344 L 178.53125 177.082031 C 179.007812 176.585938 179.796875 176.585938 180.273438 177.058594 L 184.121094 180.976562 C 184.503906 181.359375 185.09375 181.449219 185.570312 181.179688 L 194.53125 176.15625 L 184.460938 186.722656 C 183.984375 187.222656 183.191406 187.222656 182.71875 186.722656 L 179.097656 182.988281 C 178.710938 182.605469 178.125 182.515625 177.648438 182.761719 Z M 168.574219 187.652344 " fill-opacity="1" fill-rule="nonzero"/></svg>