<svg xmlns="http://www.w3.org/2000/svg" xmlns:xlink="http://www.w3.org/1999/xlink" zoomAndPan="magnify" preserveAspectRatio="xMidYMid meet" version="1.0" viewBox="309.48 314.15 231.75 154.5"><defs><clipPath id="45f375c11f"><path d="M 309.484375 314.148438 L 379 314.148438 L 379 376 L 309.484375 376 Z M 309.484375 314.148438 " clip-rule="nonzero"/></clipPath><clipPath id="2a8ad27666"><path d="M 309.484375 407 L 379 407 L 379 468.648438 L 309.484375 468.648438 Z M 309.484375 407 " clip-rule="nonzero"/></clipPath><clipPath id="a5315bc3cf"><path d="M 411 314.148438 L 541.234375 314.148438 L 541.234375 376 L 411 376 Z M 411 314.148438 " clip-rule="nonzero"/></clipPath><clipPath id="37ab69ff7c"><path d="M 411 407 L 541.234375 407 L 541.234375 468.648438 L 411 468.648438 Z M 411 407 " clip-rule="nonzero"/></clipPath><clipPath id="e7e58fbddd"><path d="M 309.484375 314.148438 L 386 314.148438 L 386 382 L 309.484375 382 Z M 309.484375 314.148438 " clip-rule="nonzero"/></clipPath><clipPath id="1bb2e77f7b"><path d="M 405 314.148438 L 541.234375 314.148438 L 541.234375 382 L 405 382 Z M 405 314.148438 " clip-rule="nonzero"/></clipPath><clipPath id="5c9a1a01c4"><path d="M 405 401 L 541.234375 401 L 541.234375 468.648438 L 405 468.648438 Z M 405 401 " clip-rule="nonzero"/></clipPath><clipPath id="9a133f3e93"><path d="M 309.484375 401 L 386 401 L 386 468.648438 L 309.484375 468.648438 Z M 309.484375 401 " clip-rule="nonzero"/></clipPath><clipPath id="035aa5f186"><path d="M 309.484375 314.148438 L 541.234375 314.148438 L 541.234375 468.648438 L 309.484375 468.648438 Z M 309.484375 314.148438 " clip-rule="nonzero"/></clipPath></defs><g clip-path="url(#45f375c11f)"><path fill="#e72a2e" d="M 378.867188 314.148438 L 378.867188 375.003906 L 309.546875 375.003906 L 309.546875 335.222656 C 309.546875 323.59375 318.980469 314.148438 330.605469 314.148438 Z M 378.867188 314.148438 " fill-opacity="1" fill-rule="nonzero"/></g><g clip-path="url(#2a8ad27666)"><path fill="#e72a2e" d="M 378.867188 407.796875 L 378.867188 468.648438 L 330.605469 468.648438 C 318.980469 468.648438 309.546875 459.238281 309.546875 447.605469 L 309.546875 407.796875 Z M 378.867188 407.796875 " fill-opacity="1" fill-rule="nonzero"/></g><g clip-path="url(#a5315bc3cf)"><path fill="#e72a2e" d="M 541.171875 335.222656 L 541.171875 375.003906 L 411.640625 375.003906 L 411.640625 314.148438 L 520.113281 314.148438 C 531.738281 314.148438 541.171875 323.59375 541.171875 335.222656 Z M 541.171875 335.222656 " fill-opacity="1" fill-rule="nonzero"/></g><g clip-path="url(#37ab69ff7c)"><path fill="#e72a2e" d="M 541.171875 407.796875 L 541.171875 447.578125 C 541.171875 459.207031 531.738281 468.648438 520.113281 468.648438 L 411.640625 468.648438 L 411.640625 407.796875 Z M 541.171875 407.796875 " fill-opacity="1" fill-rule="nonzero"/></g><g clip-path="url(#e7e58fbddd)"><path fill="#ededed" d="M 378.867188 375.003906 L 309.546875 375.003906 L 309.546875 381.179688 L 385.039062 381.179688 L 385.039062 314.148438 L 378.867188 314.148438 Z M 378.867188 375.003906 " fill-opacity="1" fill-rule="nonzero"/></g><g clip-path="url(#1bb2e77f7b)"><path fill="#ededed" d="M 411.640625 375.003906 L 411.640625 314.148438 L 405.46875 314.148438 L 405.46875 381.179688 L 541.171875 381.179688 L 541.171875 375.003906 Z M 411.640625 375.003906 " fill-opacity="1" fill-rule="nonzero"/></g><g clip-path="url(#5c9a1a01c4)"><path fill="#ededed" d="M 538.089844 401.621094 L 405.46875 401.621094 L 405.46875 468.648438 L 411.640625 468.648438 L 411.640625 407.796875 L 541.171875 407.796875 L 541.171875 401.621094 Z M 538.089844 401.621094 " fill-opacity="1" fill-rule="nonzero"/></g><g clip-path="url(#9a133f3e93)"><path fill="#ededed" d="M 312.632812 401.621094 L 309.546875 401.621094 L 309.546875 407.796875 L 378.867188 407.796875 L 378.867188 468.648438 L 385.039062 468.648438 L 385.039062 401.621094 Z M 312.632812 401.621094 " fill-opacity="1" fill-rule="nonzero"/></g><g clip-path="url(#035aa5f186)"><path fill="#013362" d="M 541.171875 381.179688 L 541.171875 401.621094 L 405.46875 401.621094 L 405.46875 468.648438 L 385.039062 468.648438 L 385.039062 401.621094 L 309.546875 401.621094 L 309.546875 381.179688 L 385.039062 381.179688 L 385.039062 314.148438 L 405.46875 314.148438 L 405.46875 381.179688 Z M 541.171875 381.179688 " fill-opacity="1" fill-rule="nonzero"/></g></svg>