<svg xmlns="http://www.w3.org/2000/svg" xmlns:xlink="http://www.w3.org/1999/xlink" zoomAndPan="magnify" preserveAspectRatio="xMidYMid meet" version="1.0" viewBox="346.3 279.5 213.75 154.5"><defs><clipPath id="79ee1a9a67"><path d="M 346.300781 386 L 560.050781 386 L 560.050781 433.996094 L 346.300781 433.996094 Z M 346.300781 386 " clip-rule="nonzero"/></clipPath><clipPath id="a40efbe54e"><path d="M 346.300781 327 L 560.050781 327 L 560.050781 387 L 346.300781 387 Z M 346.300781 327 " clip-rule="nonzero"/></clipPath><clipPath id="293d9be1bf"><path d="M 346.300781 279.496094 L 560.050781 279.496094 L 560.050781 328 L 346.300781 328 Z M 346.300781 279.496094 " clip-rule="nonzero"/></clipPath></defs><g clip-path="url(#79ee1a9a67)"><path fill="#ce2028" d="M 560.050781 410.203125 C 560.050781 423.324219 549.417969 433.964844 536.300781 433.964844 L 370.050781 433.964844 C 356.933594 433.964844 346.300781 423.324219 346.300781 410.203125 L 346.300781 386.445312 L 560.050781 386.445312 Z M 560.050781 410.203125 " fill-opacity="1" fill-rule="nonzero"/></g><g clip-path="url(#a40efbe54e)"><path fill="#22408c" d="M 346.300781 327.046875 L 560.050781 327.046875 L 560.050781 386.445312 L 346.300781 386.445312 Z M 346.300781 327.046875 " fill-opacity="1" fill-rule="nonzero"/></g><g clip-path="url(#293d9be1bf)"><path fill="#eeeeee" d="M 536.300781 279.527344 L 370.050781 279.527344 C 356.933594 279.527344 346.300781 290.164062 346.300781 303.285156 L 346.300781 327.046875 L 560.050781 327.046875 L 560.050781 303.285156 C 560.050781 290.164062 549.417969 279.527344 536.300781 279.527344 Z M 536.300781 279.527344 " fill-opacity="1" fill-rule="nonzero"/></g></svg>