<svg xmlns="http://www.w3.org/2000/svg" xmlns:xlink="http://www.w3.org/1999/xlink" zoomAndPan="magnify" preserveAspectRatio="xMidYMid meet" version="1.0" viewBox="161.16 161.16 52.66 52.66"><defs><clipPath id="493bcffa86"><path d="M 161.164062 161.164062 L 213.664062 161.164062 L 213.664062 213.664062 L 161.164062 213.664062 Z M 161.164062 161.164062 " clip-rule="nonzero"/></clipPath></defs><g clip-path="url(#493bcffa86)"><path fill="#eeeeee" d="M 187.496094 161.164062 C 172.949219 161.164062 161.164062 172.949219 161.164062 187.496094 C 161.164062 202.039062 172.949219 213.828125 187.496094 213.828125 C 202.039062 213.828125 213.828125 202.039062 213.828125 187.496094 C 213.804688 172.949219 202.015625 161.164062 187.496094 161.164062 Z M 201.675781 177.328125 L 196.546875 201.378906 C 196.292969 202.585938 194.882812 203.113281 193.902344 202.382812 L 181.726562 193.308594 L 195.175781 181.15625 C 195.175781 181.15625 196.089844 180.40625 195.839844 180.175781 C 195.566406 179.902344 194.5625 180.496094 194.058594 180.835938 C 193.535156 181.226562 177.578125 191.300781 177.578125 191.300781 L 169.484375 188.792969 C 168.570312 188.519531 168.570312 187.265625 169.894531 186.71875 L 199.625 175.273438 C 200.921875 174.636719 201.949219 176.09375 201.675781 177.328125 Z M 201.675781 177.328125 " fill-opacity="1" fill-rule="nonzero"/></g></svg>