<svg xmlns="http://www.w3.org/2000/svg" xmlns:xlink="http://www.w3.org/1999/xlink" zoomAndPan="magnify" preserveAspectRatio="xMidYMid meet" version="1.0" viewBox="161.36 161.36 52.5 52.5"><defs><clipPath id="ec4282dfff"><path d="M 161.359375 161.359375 L 213.859375 161.359375 L 213.859375 213.859375 L 161.359375 213.859375 Z M 161.359375 161.359375 " clip-rule="nonzero"/></clipPath></defs><path fill="#eeeeee" d="M 188.042969 173.355469 C 180.417969 173.355469 174.214844 179.554688 174.214844 187.183594 C 174.214844 189.851562 174.984375 192.433594 176.410156 194.675781 L 176.75 195.195312 L 175.414062 199.992188 L 180.484375 198.792969 L 180.960938 199.085938 C 183.085938 200.355469 185.554688 201.03125 188.042969 201.03125 C 195.667969 201.03125 201.871094 194.832031 201.871094 187.207031 C 201.871094 179.578125 195.667969 173.355469 188.042969 173.355469 Z M 195.917969 193.136719 C 195.78125 193.8125 194.335938 194.675781 193.40625 194.921875 C 191.097656 195.535156 187.839844 193.769531 184.625 190.960938 C 181.390625 188.15625 179.21875 185.167969 179.488281 182.792969 C 179.601562 181.84375 180.28125 180.28125 180.914062 180.078125 C 181.546875 179.875 182 180.078125 182.65625 180.28125 C 182.972656 180.644531 183.382812 181.074219 183.832031 181.59375 C 184.445312 182.273438 184.851562 182.882812 185.101562 183.3125 C 185.304688 183.675781 185.238281 184.128906 184.921875 184.398438 L 183.8125 185.394531 C 183.605469 185.578125 183.539062 185.871094 183.652344 186.121094 C 183.992188 186.84375 184.785156 188.335938 185.984375 189.378906 C 187.160156 190.417969 188.765625 191.007812 189.535156 191.234375 C 189.785156 191.324219 190.078125 191.210938 190.214844 190.984375 L 191.054688 189.761719 C 191.277344 189.421875 191.730469 189.289062 192.117188 189.445312 C 192.570312 189.648438 193.25 189.964844 193.996094 190.464844 C 194.5625 190.847656 195.058594 191.1875 195.441406 191.460938 C 195.78125 192.070312 196.054688 192.5 195.917969 193.136719 Z M 195.917969 193.136719 " fill-opacity="1" fill-rule="nonzero"/><g clip-path="url(#ec4282dfff)"><path fill="#eeeeee" d="M 187.5 161.359375 C 173.0625 161.359375 161.359375 173.0625 161.359375 187.5 C 161.359375 201.9375 173.0625 213.636719 187.5 213.636719 C 201.9375 213.636719 213.636719 201.9375 213.636719 187.5 C 213.617188 173.0625 201.914062 161.359375 187.5 161.359375 Z M 188.042969 203.726562 C 185.238281 203.726562 182.5 203.023438 180.054688 201.667969 L 171.566406 203.679688 L 173.808594 195.601562 C 172.292969 193.042969 171.5 190.148438 171.5 187.160156 C 171.5 178.039062 178.921875 170.617188 188.042969 170.617188 C 197.164062 170.617188 204.585938 178.0625 204.585938 187.183594 C 204.585938 196.304688 197.164062 203.726562 188.042969 203.726562 Z M 188.042969 203.726562 " fill-opacity="1" fill-rule="nonzero"/></g></svg>